<svg width="80" height="82" viewBox="0 0 80 82" fill="none" xmlns="http://www.w3.org/2000/svg">
<mask id="mask0" mask-type="alpha" maskUnits="userSpaceOnUse" x="0" y="0" width="80" height="82">
<rect width="80" height="81.0127" fill="#291A69"/>
</mask>
<g mask="url(#mask0)">
<path d="M20.4662 9.15254C31.2057 -1.58687 48.6177 -1.58687 59.3571 9.15254L70.6708 20.4663C81.4102 31.2057 81.4102 48.6177 70.6708 59.3571L59.3571 70.6708C48.6177 81.4103 31.2057 81.4103 20.4662 70.6708L9.15254 59.3571C-1.58688 48.6177 -1.58688 31.2057 9.15254 20.4663L20.4662 9.15254Z" stroke="white" stroke-opacity="0.16"/>
</g>
<g clip-path="url(#clip0)">
<path d="M52 41.0719C51.9997 38.7787 51.3424 36.5335 50.1058 34.6023C48.8692 32.6711 47.1051 31.1347 45.0225 30.1749C42.9398 29.2151 40.6257 28.8721 38.3542 29.1867C36.0826 29.5012 33.9488 30.46 32.2052 31.9496C30.4617 33.4391 29.1815 35.3971 28.5162 37.5917C27.8508 39.7862 27.8282 42.1255 28.4511 44.3325C29.0739 46.5395 30.3161 48.5218 32.0306 50.0448C33.745 51.5677 35.86 52.5675 38.125 52.9259V44.5409H35.078V41.0719H38.125V38.4279C38.125 35.4209 39.917 33.7589 42.657 33.7589C43.5571 33.7718 44.4552 33.85 45.344 33.9929V36.9469H43.83C43.3742 36.8864 42.9131 37.0093 42.548 37.2887C42.1829 37.5682 41.9437 37.9811 41.883 38.4369C41.8658 38.5645 41.8632 38.6936 41.875 38.8219V41.0719H45.2L44.668 44.5409H41.868V52.9259C44.692 52.4808 47.2644 51.0422 49.1219 48.869C50.9795 46.6957 52.0001 43.9307 52 41.0719Z" fill="white"/>
</g>
<defs>
<clipPath id="clip0">
<rect width="24" height="24" fill="white" transform="translate(28 29)"/>
</clipPath>
</defs>
</svg>
