<svg width="80" height="82" viewBox="0 0 80 82" fill="none" xmlns="http://www.w3.org/2000/svg">
<mask id="mask0" mask-type="alpha" maskUnits="userSpaceOnUse" x="0" y="0" width="80" height="82">
<rect width="80" height="81.0127" fill="#291A69"/>
</mask>
<g mask="url(#mask0)">
<path d="M20.4662 9.15254C31.2056 -1.58687 48.6176 -1.58687 59.3571 9.15254L70.6708 20.4663C81.4102 31.2057 81.4102 48.6177 70.6708 59.3571L59.3571 70.6708C48.6176 81.4103 31.2056 81.4103 20.4662 70.6708L9.15248 59.3571C-1.58694 48.6177 -1.58694 31.2057 9.15248 20.4663L20.4662 9.15254Z" stroke="white" stroke-opacity="0.16"/>
</g>
<path d="M52 33.5998C51.1 33.9998 50.2 34.2998 49.2 34.3998C50.2 33.7998 51 32.7998 51.4 31.6998C50.4 32.2998 49.4 32.6998 48.3 32.8998C47.4 31.8998 46.1 31.2998 44.7 31.2998C42 31.2998 39.8 33.4998 39.8 36.1998C39.8 36.5998 39.8 36.9998 39.9 37.2998C35.7 37.0998 32.1 35.0998 29.7 32.0998C29.2 32.8998 29 33.6998 29 34.5998C29 36.2998 29.9 37.7998 31.2 38.6998C30.4 38.6998 29.6 38.4998 29 38.0998C29 38.0998 29 38.0998 29 38.1998C29 40.5998 30.7 42.5998 32.9 42.9998C32.5 43.0998 32.1 43.1998 31.6 43.1998C31.3 43.1998 31 43.1998 30.7 43.0998C31.3 45.0998 33.1 46.4998 35.3 46.4998C33.6 47.7998 31.5 48.5998 29.2 48.5998C28.8 48.5998 28.4 48.5998 28 48.4998C30.2 49.8998 32.8 50.6998 35.5 50.6998C44.6 50.6998 49.5 43.1998 49.5 36.6998C49.5 36.4998 49.5 36.2998 49.5 36.0998C50.5 35.3998 51.3 34.4998 52 33.5998Z" fill="white"/>
</svg>
