<?xml version="1.0" encoding="UTF-8"?>
<!DOCTYPE svg PUBLIC "-//W3C//DTD SVG 1.1//EN" "http://www.w3.org/Graphics/SVG/1.1/DTD/svg11.dtd">
<svg xmlns="http://www.w3.org/2000/svg" version="1.1" width="100px" height="100px" style="shape-rendering:geometricPrecision; text-rendering:geometricPrecision; image-rendering:optimizeQuality; fill-rule:evenodd; clip-rule:evenodd" xmlns:xlink="http://www.w3.org/1999/xlink">
<g><path style="opacity:0.842" fill="aqua" d="M 33.5,8.5 C 51.3956,6.76937 63.729,14.1027 70.5,30.5C 67.8333,31.8333 65.1667,31.8333 62.5,30.5C 55.0453,17.1794 44.0453,13.0127 29.5,18C 22.2132,22.1158 17.8799,28.2824 16.5,36.5C 21.2137,36.1734 25.8804,36.5067 30.5,37.5C 31.5312,38.7003 32.3645,40.0337 33,41.5C 36.3333,34.1667 39.6667,26.8333 43,19.5C 46.088,24.6748 48.9213,30.0082 51.5,35.5C 63.4815,36.499 75.4815,36.8323 87.5,36.5C 87.5,38.8333 87.5,41.1667 87.5,43.5C 82.1667,43.5 76.8333,43.5 71.5,43.5C 71.1848,49.4639 69.1848,54.7972 65.5,59.5C 73.1521,67.6524 80.9855,75.6524 89,83.5C 88.5993,86.101 87.0993,88.101 84.5,89.5C 76.1667,81.5 67.8333,73.5 59.5,65.5C 40.5595,76.2623 24.7262,72.929 12,55.5C 4.04356,32.7536 11.2102,17.087 33.5,8.5 Z M 42.5,37.5 C 44.5128,38.4752 45.8461,40.1419 46.5,42.5C 52.5,43.1667 58.5,43.8333 64.5,44.5C 60.1673,58.9959 50.5006,65.4959 35.5,64C 24.4558,61.4583 18.1225,54.6249 16.5,43.5C 19.5184,43.3354 22.5184,43.502 25.5,44C 28.3775,48.2549 31.3775,52.4216 34.5,56.5C 37.9473,50.4904 40.614,44.157 42.5,37.5 Z"/></g>
</svg>
