<svg width="80" height="82" viewBox="0 0 80 82" fill="none" xmlns="http://www.w3.org/2000/svg">
<mask id="mask0" mask-type="alpha" maskUnits="userSpaceOnUse" x="0" y="0" width="80" height="82">
<rect width="80" height="81.0127" fill="#291A69"/>
</mask>
<g mask="url(#mask0)">
<path d="M20.1126 8.79899C31.0473 -2.13569 48.7759 -2.13569 59.7106 8.79899L71.0243 20.1127C81.959 31.0474 81.959 48.776 71.0243 59.7107L59.7106 71.0244C48.7759 81.9591 31.0473 81.9591 20.1126 71.0244L8.79892 59.7107C-2.13576 48.776 -2.13576 31.0474 8.79892 20.1127L20.1126 8.79899Z" fill="#071A5F"/>
</g>
<path d="M51 47H50V39H48V47H44V39H42V47H38V39H36V47H32V39H30V47H29C28.448 47 28 47.447 28 48C28 48.553 28.448 49 29 49H51C51.552 49 52 48.553 52 48C52 47.447 51.552 47 51 47Z" fill="#4DCF91"/>
<path d="M51.479 32.122L40.479 26.122C40.18 25.96 39.82 25.96 39.521 26.122L28.521 32.122C28.2 32.297 28 32.634 28 33V36C28 36.553 28.448 37 29 37H51C51.552 37 52 36.553 52 36V33C52 32.634 51.8 32.297 51.479 32.122ZM40 34C38.895 34 38 33.105 38 32C38 30.895 38.895 30 40 30C41.105 30 42 30.895 42 32C42 33.105 41.105 34 40 34Z" fill="#4DCF91"/>
</svg>
