<svg width="48" height="48" viewBox="0 0 48 48" fill="none" xmlns="http://www.w3.org/2000/svg">
<path d="M9.5 13.5C7.291 13.5 5.5 11.709 5.5 9.5C5.5 7.291 7.291 5.5 9.5 5.5C11.709 5.5 13.5 7.291 13.5 9.5C13.5 11.709 11.709 13.5 9.5 13.5Z" stroke="white" stroke-width="1.5" stroke-miterlimit="10" stroke-linecap="square"/>
<path d="M12.5 43.5H6.5L5.5 32.5L2.5 31.5V22.5C2.5 20.291 4.291 18.5 6.5 18.5H12.5C13.954 18.5 15.227 19.277 15.927 20.437" stroke="white" stroke-width="1.5" stroke-miterlimit="10"/>
<path d="M39.5 13.5C41.709 13.5 43.5 11.709 43.5 9.5C43.5 7.291 41.709 5.5 39.5 5.5C37.291 5.5 35.5 7.291 35.5 9.5C35.5 11.709 37.291 13.5 39.5 13.5Z" stroke="white" stroke-width="1.5" stroke-miterlimit="10" stroke-linecap="square"/>
<path d="M36.4993 43.5H42.4993L43.4993 32.5L46.4993 31.5V22.5C46.4993 20.291 44.7083 18.5 42.4993 18.5H36.4993C35.0453 18.5 33.7723 19.277 33.0723 20.437" stroke="white" stroke-width="1.5" stroke-miterlimit="10"/>
<path d="M24.5 14.5C21.186 14.5 18.5 11.814 18.5 8.5C18.5 5.186 21.186 2.5 24.5 2.5C27.814 2.5 30.5 5.186 30.5 8.5C30.5 11.814 27.814 14.5 24.5 14.5Z" stroke="#1AD6FF" stroke-width="1.5" stroke-miterlimit="10" stroke-linecap="square"/>
<path d="M29.5 46.5H19.5L18.5 34.5L14.5 33.5V23.5C14.5 21.291 16.291 19.5 18.5 19.5H30.5C32.709 19.5 34.5 21.291 34.5 23.5V33.5L30.5 34.5L29.5 46.5Z" stroke="#1AD6FF" stroke-width="1.5" stroke-miterlimit="10" stroke-linecap="square"/>
</svg>
