<?xml version="1.0" standalone="no"?>
<!DOCTYPE svg PUBLIC "-//W3C//DTD SVG 20010904//EN"
 "http://www.w3.org/TR/2001/REC-SVG-20010904/DTD/svg10.dtd">
<svg version="1.0" xmlns="http://www.w3.org/2000/svg"
 width="90.000000pt" height="90.000000pt" viewBox="0 0 90.000000 90.000000"
 preserveAspectRatio="xMidYMid meet">
<metadata>
Created by potrace 1.16, written by Peter Selinger 2001-2019
</metadata>
<g transform="translate(0.000000,90.000000) scale(0.100000,-0.100000)"
fill="#000000" stroke="none">
<path d="M570 743 c-41 -15 -60 -46 -60 -98 0 -46 20 -95 38 -95 4 0 17 22 30
49 12 27 43 72 68 100 l46 51 -54 -1 c-29 0 -60 -3 -68 -6z"  fill="white"/>
<path d="M704 717 c-31 -27 -30 -30 20 -99 19 -26 37 -53 39 -60 4 -9 12 -6
26 11 31 34 29 120 -2 149 -30 28 -49 28 -83 -1z" fill="white"/>
<path d="M161 707 c-50 -25 -66 -62 -70 -158 -2 -75 0 -93 15 -110 10 -11 12
-19 6 -19 -21 0 -52 -39 -52 -65 l0 -25 125 0 125 0 0 39 c0 39 -1 40 -53 55
-30 9 -62 26 -72 38 -11 13 -13 17 -5 11 8 -7 40 -13 72 -13 54 0 58 2 73 30
8 16 27 37 41 47 23 15 25 21 20 56 -9 52 -32 90 -66 111 -33 19 -124 21 -159
3z"  fill="#00008b"/>
<path d="M637 639 c-43 -66 -51 -98 -38 -135 9 -26 10 -39 2 -47 -6 -6 -11
-37 -11 -69 l0 -58 125 0 c120 0 125 1 125 21 0 37 -18 56 -75 79 -59 24 -67
39 -39 78 14 21 14 25 -10 65 -14 23 -34 53 -44 66 l-19 24 -16 -24z"  fill="brown"/>
<path d="M382 487 c-31 -32 -31 -131 -1 -182 12 -19 18 -42 15 -50 -3 -9 -27
-25 -53 -36 -54 -22 -73 -42 -73 -76 l0 -23 180 0 c175 0 180 1 180 21 0 37
-18 56 -75 79 -61 25 -66 37 -35 88 15 23 20 50 20 97 0 59 -2 65 -29 84 -41
29 -101 28 -129 -2z"  fill="#ffebcd"/>
</g>
</svg>
