<svg width="252" height="57" viewBox="0 0 252 57" fill="none" xmlns="http://www.w3.org/2000/svg">
<g clip-path="url(#clip0)">
<path d="M28.4647 57C44.1852 57 56.9293 44.2401 56.9293 28.5C56.9293 12.7599 44.1852 0 28.4647 0C12.7441 0 0 12.7599 0 28.5C0 44.2401 12.7441 57 28.4647 57Z" fill="#C4BF5B"/>
<path d="M28.1873 39.6516C25.9303 39.6517 23.724 38.9818 21.8473 37.7264C19.9706 36.471 18.508 34.6866 17.6442 32.5988C16.7804 30.5111 16.5543 28.2137 16.9946 25.9974C17.4349 23.781 18.5217 21.7451 20.1177 20.1472C21.7136 18.5493 23.7469 17.4611 25.9606 17.0203C28.1742 16.5795 30.4687 16.8058 32.5539 17.6706C34.639 18.5355 36.4212 20 37.675 21.879C38.9289 23.758 39.598 25.9671 39.5978 28.2269C39.5942 31.2558 38.3909 34.1596 36.2518 36.3013C34.1127 38.4431 31.2125 39.6479 28.1873 39.6516ZM28.1873 21.8415C26.9257 21.8415 25.6924 22.2161 24.6435 22.9179C23.5945 23.6197 22.7769 24.6172 22.2941 25.7842C21.8113 26.9512 21.685 28.2354 21.9311 29.4743C22.1772 30.7132 22.7847 31.8512 23.6768 32.7444C24.5689 33.6376 25.7055 34.2458 26.9429 34.4923C28.1802 34.7387 29.4628 34.6122 30.6284 34.1289C31.794 33.6455 32.7902 32.8268 33.4911 31.7765C34.192 30.7262 34.5662 29.4915 34.5662 28.2283C34.5647 26.5349 33.8921 24.9111 32.6962 23.7137C31.5002 22.5163 29.8786 21.843 28.1873 21.8415Z" fill="white"/>
<path d="M28.1874 50.22C24.5736 50.2202 21.0156 49.328 17.8284 47.6224C14.6413 45.9168 11.9235 43.4504 9.91584 40.4418C7.90817 37.4332 6.67256 33.9753 6.31857 30.3744C5.96458 26.7735 6.50307 23.1408 7.88637 19.798C9.26966 16.4553 11.455 13.5057 14.2489 11.2107C17.0428 8.91565 20.3588 7.34596 23.9033 6.64071C27.4479 5.93545 31.1114 6.1164 34.5694 7.1675C38.0274 8.21861 41.1731 10.1074 43.7278 12.6666C44.1937 13.1405 44.4536 13.7796 44.451 14.4446C44.4483 15.1095 44.1833 15.7465 43.7137 16.2167C43.2441 16.6869 42.6079 16.9523 41.9438 16.9549C41.2796 16.9575 40.6413 16.6973 40.168 16.2309C37.7985 13.8589 34.7798 12.2436 31.4936 11.5893C28.2073 10.935 24.801 11.2712 21.7055 12.5551C18.61 13.839 15.9642 16.0131 14.1028 18.8026C12.2414 21.592 11.2479 24.8714 11.2479 28.2262C11.2479 31.581 12.2414 34.8604 14.1028 37.6499C15.9642 40.4393 18.61 42.6135 21.7055 43.8974C24.801 45.1813 28.2073 45.5174 31.4936 44.8631C34.7798 44.2089 37.7985 42.5936 40.168 40.2216C40.6413 39.7552 41.2796 39.4949 41.9438 39.4976C42.6079 39.5002 43.2441 39.7655 43.7137 40.2357C44.1833 40.7059 44.4483 41.343 44.451 42.0079C44.4536 42.6729 44.1937 43.3119 43.7278 43.7858C41.6884 45.8302 39.2657 47.4511 36.5988 48.5552C33.9319 49.6594 31.0733 50.2251 28.1874 50.22Z" fill="white"/>
<path d="M82.7431 42.9059C81.1375 42.9375 79.5478 42.5816 78.1085 41.8683C76.8011 41.2126 75.714 40.1879 74.9815 38.9207C74.2256 37.5847 73.8421 36.0698 73.8711 34.5345V25.1075C73.8384 23.5838 74.2216 22.0801 74.9795 20.7583C75.7204 19.507 76.8058 18.4961 78.1058 17.8465C79.5454 17.1334 81.1352 16.7777 82.7411 16.8095C84.3371 16.7767 85.9185 17.1197 87.3578 17.8108C88.6434 18.433 89.7235 19.4117 90.4697 20.6306C91.2257 21.9067 91.6097 23.3693 91.5781 24.8527V24.8891C91.5807 24.9425 91.5723 24.9959 91.5536 25.046C91.5348 25.096 91.5061 25.1417 91.4691 25.1803C91.4364 25.2149 91.3969 25.2425 91.3531 25.2613C91.3094 25.2801 91.2622 25.2897 91.2146 25.2895L88.4518 25.4351C88.2095 25.4351 88.0883 25.3259 88.0883 25.1075V24.9976C88.1184 24.306 88.0047 23.6156 87.7544 22.9703C87.5041 22.3249 87.1226 21.7387 86.6342 21.2487C86.1131 20.7644 85.5005 20.3893 84.8325 20.1456C84.1646 19.9018 83.4546 19.7942 82.7445 19.8292C82.0314 19.7951 81.3187 19.903 80.6476 20.1467C79.9765 20.3904 79.3604 20.7649 78.8349 21.2487C78.3416 21.7359 77.9557 22.3213 77.7022 22.967C77.4487 23.6127 77.3331 24.3045 77.363 24.9976V34.6808C77.3333 35.3739 77.449 36.0655 77.7027 36.7111C77.9563 37.3567 78.3422 37.9419 78.8356 38.429C79.3611 38.9128 79.9772 39.2873 80.6483 39.531C81.3194 39.7747 82.0321 39.8826 82.7452 39.8485C83.4553 39.8835 84.1652 39.7759 84.8332 39.5321C85.5012 39.2884 86.1138 38.9133 86.6349 38.429C87.1233 37.939 87.5048 37.3528 87.7551 36.7074C88.0054 36.0621 88.1191 35.3717 88.089 34.6801V34.6073C88.089 34.3889 88.2102 34.2797 88.4525 34.2797L91.2153 34.4253C91.2647 34.4182 91.3151 34.4227 91.3624 34.4384C91.4098 34.4542 91.4528 34.4808 91.4881 34.5161C91.5234 34.5515 91.55 34.5945 91.5657 34.642C91.5815 34.6894 91.586 34.7398 91.5788 34.7893C91.6085 36.2782 91.2245 37.746 90.4697 39.0292C89.7263 40.2584 88.6479 41.2495 87.3613 41.8861C85.9249 42.5894 84.3416 42.939 82.7431 42.9059ZM103.682 42.9059C102.053 42.939 100.44 42.5636 98.9927 41.814C97.6677 41.1172 96.575 40.0481 95.8485 38.7381C95.0898 37.3375 94.7076 35.7635 94.7394 34.1705V25.5079C94.706 23.9204 95.0884 22.3518 95.8485 20.9582C96.5792 19.656 97.6714 18.594 98.9927 17.9008C100.44 17.1512 102.053 16.7758 103.682 16.8089C105.329 16.7747 106.959 17.1498 108.426 17.9008C109.758 18.5926 110.862 19.6541 111.607 20.9582C112.378 22.348 112.767 23.9181 112.734 25.5079V34.1705C112.766 35.7657 112.377 37.3412 111.607 38.7381C110.866 40.0502 109.761 41.1188 108.426 41.814C106.959 42.565 105.329 42.9401 103.682 42.9059ZM103.682 39.8842C104.423 39.9175 105.163 39.7991 105.857 39.5363C106.551 39.2734 107.184 38.8717 107.717 38.3555C108.233 37.8214 108.634 37.1877 108.897 36.493C109.159 35.7984 109.277 35.0574 109.244 34.3154V25.4715C109.278 24.7212 109.161 23.9718 108.898 23.2681C108.636 22.5645 108.234 21.9213 107.717 21.3771C107.187 20.856 106.554 20.4498 105.86 20.1837C105.166 19.9177 104.425 19.7974 103.682 19.8305C102.95 19.7974 102.22 19.9179 101.538 20.1843C100.855 20.4506 100.236 20.8569 99.7197 21.3771C99.2129 21.9267 98.8201 22.5717 98.5642 23.2746C98.3084 23.9774 98.1945 24.7242 98.2293 25.4715V34.3161C98.1955 35.0551 98.31 35.7933 98.566 36.4872C98.822 37.1812 99.2143 37.8167 99.7197 38.3562C100.239 38.8715 100.859 39.2734 101.541 39.5365C102.223 39.7996 102.952 39.9183 103.682 39.8849V39.8842ZM131.892 42.5784C131.807 42.5843 131.722 42.5628 131.65 42.517C131.578 42.4711 131.522 42.4033 131.492 42.3236L126.402 31.4407C126.395 31.4084 126.376 31.3798 126.349 31.3599C126.323 31.34 126.29 31.3299 126.257 31.3315H121.061C121.041 31.3286 121.021 31.3304 121.002 31.3367C120.983 31.343 120.966 31.3536 120.951 31.3678C120.937 31.3819 120.927 31.3992 120.92 31.4181C120.914 31.4371 120.912 31.4573 120.915 31.4771V42.2144C120.922 42.2638 120.918 42.3143 120.902 42.3617C120.886 42.4091 120.86 42.4522 120.825 42.4875C120.789 42.5228 120.746 42.5494 120.699 42.5652C120.651 42.581 120.601 42.5855 120.552 42.5784H117.787C117.737 42.5855 117.687 42.581 117.64 42.5652C117.592 42.5494 117.549 42.5228 117.514 42.4875C117.479 42.4522 117.452 42.4091 117.436 42.3617C117.421 42.3143 117.416 42.2638 117.423 42.2144V17.464C117.416 17.4146 117.421 17.3641 117.436 17.3167C117.452 17.2693 117.479 17.2262 117.514 17.1909C117.549 17.1555 117.592 17.1289 117.64 17.1132C117.687 17.0974 117.737 17.0929 117.787 17.1H127.566C128.889 17.0741 130.196 17.3874 131.364 18.01C132.445 18.595 133.335 19.4796 133.927 20.5578C134.551 21.7203 134.864 23.0241 134.836 24.3432C134.878 25.8846 134.405 27.3959 133.491 28.6374C132.589 29.8307 131.306 30.6789 129.856 31.041C129.759 31.0895 129.735 31.1502 129.783 31.223L135.053 42.1416C135.079 42.1986 135.091 42.2609 135.089 42.3236C135.089 42.4934 134.992 42.5784 134.798 42.5784H131.892ZM121.061 20.1217C121.041 20.1188 121.021 20.1206 121.002 20.1269C120.983 20.1332 120.966 20.1439 120.951 20.158C120.937 20.1721 120.927 20.1894 120.92 20.2084C120.914 20.2273 120.912 20.2475 120.915 20.2673V28.4204C120.912 28.4402 120.914 28.4603 120.92 28.4793C120.927 28.4983 120.937 28.5156 120.951 28.5297C120.966 28.5438 120.983 28.5545 121.002 28.5608C121.021 28.5671 121.041 28.5688 121.061 28.566H127.097C127.665 28.5914 128.232 28.5031 128.766 28.3061C129.3 28.1092 129.789 27.8076 130.205 27.4191C130.602 27.0222 130.911 26.5469 131.114 26.0236C131.317 25.5002 131.408 24.9403 131.383 24.3796C131.405 23.8133 131.312 23.2484 131.109 22.7195C130.906 22.1906 130.597 21.7088 130.202 21.3036C129.791 20.9053 129.304 20.595 128.769 20.3918C128.235 20.1885 127.664 20.0967 127.093 20.1217H121.061ZM147.16 42.9059C145.554 42.9375 143.964 42.5816 142.525 41.8683C141.218 41.2123 140.131 40.1874 139.399 38.92C138.643 37.5838 138.26 36.069 138.29 34.5338V25.1075C138.257 23.5837 138.641 22.08 139.399 20.7583C140.14 19.507 141.225 18.4961 142.525 17.8465C143.964 17.1335 145.554 16.7778 147.16 16.8095C148.756 16.7767 150.337 17.1197 151.776 17.8108C153.061 18.4339 154.14 19.4131 154.885 20.632C155.641 21.9081 156.025 23.3707 155.993 24.8541V24.8905C155.996 24.9439 155.987 24.9973 155.969 25.0473C155.95 25.0974 155.921 25.1431 155.884 25.1817C155.852 25.2163 155.812 25.2439 155.768 25.2627C155.725 25.2814 155.677 25.291 155.63 25.2909L152.867 25.4365C152.625 25.4365 152.503 25.3273 152.503 25.1089V24.9976C152.534 24.306 152.42 23.6156 152.17 22.9703C151.919 22.3249 151.538 21.7387 151.049 21.2487C150.528 20.7644 149.916 20.3893 149.248 20.1456C148.58 19.9018 147.87 19.7942 147.16 19.8292C146.447 19.7951 145.734 19.903 145.063 20.1467C144.392 20.3904 143.776 20.7649 143.25 21.2487C142.757 21.7359 142.371 22.3213 142.117 22.967C141.864 23.6127 141.748 24.3045 141.778 24.9976V34.6808C141.748 35.3739 141.864 36.0657 142.117 36.7114C142.371 37.3571 142.757 37.9424 143.25 38.4297C143.776 38.9135 144.392 39.288 145.063 39.5317C145.734 39.7753 146.447 39.8833 147.16 39.8492C147.87 39.8842 148.58 39.7766 149.248 39.5328C149.916 39.289 150.528 38.914 151.049 38.4297C151.538 37.9397 151.919 37.3535 152.17 36.7081C152.42 36.0628 152.534 35.3724 152.503 34.6808V34.608C152.503 34.3896 152.625 34.2804 152.867 34.2804L155.63 34.426C155.679 34.4188 155.73 34.4233 155.777 34.4391C155.824 34.4549 155.867 34.4815 155.903 34.5168C155.938 34.5522 155.964 34.5952 155.98 34.6426C155.996 34.6901 156 34.7405 155.993 34.79C156.023 36.279 155.64 37.7471 154.885 39.0306C154.141 40.2598 153.063 41.2509 151.776 41.8875C150.34 42.5901 148.758 42.9392 147.16 42.9059ZM168.099 42.9059C166.469 42.939 164.857 42.5636 163.409 41.814C162.084 41.1173 160.991 40.0482 160.264 38.7381C159.506 37.3375 159.123 35.7635 159.155 34.1705V25.5079C159.122 23.9204 159.504 22.3518 160.264 20.9582C160.995 19.6559 162.088 18.5939 163.409 17.9008C164.857 17.1512 166.469 16.7758 168.099 16.8089C169.747 16.7741 171.378 17.1493 172.846 17.9008C174.177 18.5927 175.282 19.6542 176.026 20.9582C176.798 22.348 177.187 23.9181 177.153 25.5079V34.1705C177.185 35.7657 176.796 37.3412 176.026 38.7381C175.286 40.0501 174.181 41.1187 172.846 41.814C171.378 42.5655 169.747 42.9407 168.099 42.9059ZM168.099 39.8842C168.84 39.9175 169.58 39.7991 170.274 39.5363C170.967 39.2734 171.6 38.8717 172.134 38.3555C172.649 37.8214 173.051 37.1877 173.313 36.493C173.576 35.7984 173.694 35.0574 173.661 34.3154V25.4715C173.695 24.7212 173.577 23.9718 173.315 23.2681C173.053 22.5645 172.651 21.9213 172.134 21.3771C171.603 20.856 170.971 20.4498 170.277 20.1837C169.583 19.9177 168.841 19.7974 168.099 19.8305C167.367 19.7974 166.637 19.9179 165.954 20.1843C165.272 20.4506 164.653 20.8569 164.136 21.3771C163.629 21.9267 163.237 22.5717 162.981 23.2746C162.725 23.9774 162.611 24.7242 162.646 25.4715V34.3161C162.612 35.055 162.726 35.7932 162.982 36.4871C163.238 37.181 163.63 37.8166 164.135 38.3562C164.654 38.8717 165.274 39.2737 165.957 39.5368C166.639 39.7999 167.368 39.9185 168.099 39.8849V39.8842ZM189.692 42.9059C188.085 42.9379 186.495 42.582 185.055 41.8683C183.747 41.2123 182.661 40.1874 181.928 38.92C181.173 37.5838 180.79 36.069 180.819 34.5338V25.1075C180.787 23.5837 181.17 22.08 181.928 20.7583C182.669 19.507 183.755 18.4961 185.055 17.8465C186.494 17.1335 188.084 16.7778 189.689 16.8095C191.285 16.7767 192.867 17.1197 194.306 17.8108C195.591 18.4339 196.669 19.4131 197.415 20.632C198.171 21.908 198.555 23.3706 198.524 24.8541V24.8905C198.526 24.9439 198.518 24.9973 198.499 25.0473C198.48 25.0974 198.452 25.1431 198.415 25.1817C198.382 25.2163 198.342 25.2439 198.299 25.2627C198.255 25.2814 198.208 25.291 198.16 25.2909L195.397 25.4365C195.155 25.4365 195.034 25.3273 195.034 25.1089V24.9976C195.064 24.306 194.95 23.6156 194.7 22.9703C194.45 22.3249 194.068 21.7387 193.58 21.2487C193.059 20.7644 192.446 20.3893 191.778 20.1456C191.11 19.9018 190.4 19.7942 189.69 19.8292C188.977 19.7951 188.264 19.903 187.593 20.1467C186.922 20.3904 186.306 20.7649 185.78 21.2487C185.287 21.7359 184.901 22.3213 184.648 22.967C184.394 23.6127 184.279 24.3045 184.308 24.9976V34.6808C184.279 35.3739 184.394 36.0657 184.648 36.7114C184.901 37.3571 185.287 37.9424 185.78 38.4297C186.306 38.9135 186.922 39.288 187.593 39.5317C188.264 39.7753 188.977 39.8833 189.69 39.8492C190.4 39.8842 191.11 39.7766 191.778 39.5328C192.446 39.289 193.059 38.914 193.58 38.4297C194.068 37.9397 194.45 37.3535 194.7 36.7081C194.95 36.0628 195.064 35.3724 195.034 34.6808V34.608C195.034 34.3896 195.155 34.2804 195.397 34.2804L198.16 34.426C198.209 34.4188 198.26 34.4233 198.307 34.4391C198.355 34.4549 198.398 34.4815 198.433 34.5168C198.468 34.5522 198.495 34.5952 198.51 34.6426C198.526 34.6901 198.531 34.7405 198.524 34.79C198.553 36.2791 198.169 37.7472 197.415 39.0306C196.671 40.2598 195.593 41.2509 194.306 41.8875C192.871 42.5896 191.289 42.9388 189.692 42.9059ZM210.631 42.9059C209.001 42.939 207.389 42.5636 205.942 41.814C204.616 41.1173 203.523 40.0482 202.797 38.7381C202.038 37.3375 201.656 35.7635 201.688 34.1705V25.5079C201.654 23.9204 202.037 22.3518 202.797 20.9582C203.528 19.6559 204.62 18.5939 205.942 17.9008C207.389 17.1512 209.001 16.7758 210.631 16.8089C212.278 16.7745 213.908 17.1497 215.375 17.9008C216.707 18.5927 217.811 19.6542 218.556 20.9582C219.327 22.348 219.716 23.9181 219.683 25.5079V34.1705C219.715 35.7657 219.326 37.3412 218.556 38.7381C217.816 40.0501 216.711 41.1187 215.375 41.814C213.908 42.5651 212.278 42.9402 210.631 42.9059ZM210.631 39.8842C211.372 39.9175 212.112 39.7991 212.806 39.5363C213.5 39.2734 214.133 38.8717 214.666 38.3555C215.182 37.8214 215.583 37.1877 215.845 36.493C216.108 35.7984 216.226 35.0574 216.193 34.3154V25.4715C216.227 24.7212 216.11 23.9718 215.847 23.2681C215.585 22.5645 215.183 21.9213 214.666 21.3771C214.135 20.856 213.503 20.4498 212.809 20.1837C212.115 19.9177 211.374 19.7974 210.631 19.8305C209.899 19.7974 209.169 19.9179 208.486 20.1843C207.804 20.4506 207.185 20.8569 206.669 21.3771C206.162 21.9267 205.769 22.5717 205.513 23.2746C205.257 23.9774 205.143 24.7242 205.178 25.4715V34.3161C205.144 35.0551 205.259 35.7933 205.515 36.4872C205.771 37.1812 206.163 37.8167 206.669 38.3562C207.188 38.8715 207.808 39.2734 208.49 39.5365C209.172 39.7996 209.901 39.9183 210.631 39.8849V39.8842ZM224.372 17.464C224.365 17.4146 224.37 17.3641 224.385 17.3167C224.401 17.2693 224.428 17.2262 224.463 17.1909C224.498 17.1555 224.541 17.1289 224.589 17.1132C224.636 17.0974 224.686 17.0929 224.736 17.1H227.499C227.548 17.0929 227.598 17.0974 227.646 17.1132C227.693 17.1289 227.736 17.1555 227.771 17.1909C227.807 17.2262 227.833 17.2693 227.849 17.3167C227.865 17.3641 227.869 17.4146 227.862 17.464V42.2144C227.869 42.2638 227.865 42.3143 227.849 42.3617C227.833 42.4091 227.807 42.4522 227.771 42.4875C227.736 42.5228 227.693 42.5494 227.646 42.5652C227.598 42.581 227.548 42.5855 227.499 42.5784H224.736C224.686 42.5855 224.636 42.581 224.589 42.5652C224.541 42.5494 224.498 42.5228 224.463 42.4875C224.428 42.4522 224.401 42.4091 224.385 42.3617C224.37 42.3143 224.365 42.2638 224.372 42.2144V17.464ZM248.51 17.464C248.503 17.4146 248.508 17.3641 248.523 17.3167C248.539 17.2693 248.566 17.2262 248.601 17.1909C248.636 17.1555 248.679 17.1289 248.727 17.1132C248.774 17.0974 248.824 17.0929 248.874 17.1H251.637C251.686 17.0929 251.736 17.0974 251.784 17.1132C251.831 17.1289 251.874 17.1555 251.909 17.1909C251.945 17.2262 251.971 17.2693 251.987 17.3167C252.003 17.3641 252.007 17.4146 252 17.464V42.2144C252.007 42.2638 252.003 42.3143 251.987 42.3617C251.971 42.4091 251.945 42.4522 251.909 42.4875C251.874 42.5228 251.831 42.5494 251.784 42.5652C251.736 42.581 251.686 42.5855 251.637 42.5784H248.98C248.892 42.5758 248.806 42.5511 248.73 42.5066C248.653 42.4621 248.59 42.3992 248.544 42.3236L237.168 23.7244C237.144 23.6516 237.108 23.6214 237.059 23.6337C237.011 23.6461 236.987 23.6885 236.987 23.7608L237.023 42.2144C237.03 42.2638 237.026 42.3143 237.01 42.3617C236.994 42.4091 236.967 42.4522 236.932 42.4875C236.897 42.5228 236.854 42.5494 236.807 42.5652C236.759 42.581 236.709 42.5855 236.659 42.5784H233.897C233.847 42.5855 233.797 42.581 233.749 42.5652C233.702 42.5494 233.659 42.5228 233.624 42.4875C233.589 42.4522 233.562 42.4091 233.546 42.3617C233.53 42.3143 233.526 42.2638 233.533 42.2144V17.464C233.526 17.4146 233.53 17.3641 233.546 17.3167C233.562 17.2693 233.589 17.2262 233.624 17.1909C233.659 17.1555 233.702 17.1289 233.749 17.1132C233.797 17.0974 233.847 17.0929 233.897 17.1H236.587C236.675 17.1026 236.761 17.1272 236.837 17.1718C236.913 17.2163 236.977 17.2792 237.023 17.3548L248.363 35.954C248.387 36.0268 248.423 36.057 248.472 36.0446C248.52 36.0323 248.545 35.9899 248.545 35.9176L248.51 17.464Z" fill="white"/>
</g>
<defs>
<clipPath id="clip0">
<rect width="252" height="57" fill="white"/>
</clipPath>
</defs>
</svg>
