<svg viewBox="0 0 159 29" fill="none" xmlns="http://www.w3.org/2000/svg">
<path d="M21.1757 9.34686C21.1757 9.49873 21.3756 9.57086 21.4834 9.46365C21.8582 9.09088 22.3083 8.80197 22.8336 8.59691C23.4841 8.33456 24.2191 8.19541 25.0386 8.17946C25.127 8.17774 25.1988 8.24946 25.1988 8.33772V11.7696C25.1988 11.8651 25.1153 11.9392 25.0201 11.9295C24.716 11.8983 24.4587 11.8828 24.2483 11.8828C23.3493 11.8828 22.642 12.1254 22.1262 12.6105C21.6252 13.0957 21.3747 13.8381 21.3747 14.8379V20.1692C21.3747 20.2575 21.3029 20.329 21.2145 20.329H17.3349C17.2465 20.329 17.1748 20.2575 17.1748 20.1692V8.5362C17.1748 8.44793 17.2465 8.37638 17.3349 8.37638H21.0155C21.104 8.37638 21.1757 8.44793 21.1757 8.5362V9.34686Z" fill="#0941D7"/>
<path d="M39.1936 8.37638C39.282 8.37638 39.3538 8.44793 39.3538 8.5362V18.1458C39.3538 20.3658 38.7569 22.0271 37.5633 23.1297C36.3844 24.2471 34.6823 24.8057 32.4571 24.8057C31.2929 24.8057 30.2024 24.6734 29.1856 24.4088C28.2358 24.158 27.4185 23.7949 26.7335 23.3196C26.6685 23.2745 26.6483 23.1882 26.6848 23.1181L28.0543 20.4845C28.1017 20.3935 28.2213 20.3699 28.303 20.432C28.7464 20.7693 29.2838 21.0364 29.915 21.2332C30.6371 21.4684 31.3518 21.586 32.0592 21.586C33.1202 21.586 33.9013 21.3434 34.4023 20.8583C34.9033 20.3731 35.1539 19.6527 35.1539 18.6971C35.1539 18.5973 35.0329 18.5449 34.9567 18.6096C34.0929 19.3442 33.0386 19.7115 31.7939 19.7115C30.2466 19.7115 29.0087 19.2558 28.0803 18.3443C27.1667 17.4327 26.7098 16.0655 26.7098 14.2424V8.5362C26.7098 8.44793 26.7816 8.37638 26.87 8.37638H30.7496C30.838 8.37638 30.9097 8.44793 30.9097 8.5362V13.5588C30.9097 14.4703 31.0792 15.1319 31.4181 15.5435C31.7571 15.9552 32.2508 16.161 32.8992 16.161C33.5623 16.161 34.1002 15.9258 34.5128 15.4553C34.9402 14.9849 35.1539 14.2792 35.1539 13.3383V8.5362C35.1539 8.44793 35.2256 8.37638 35.314 8.37638H39.1936Z" fill="#0941D7"/>
<path d="M49.3757 8.17791C50.4662 8.17791 51.4535 8.43519 52.3377 8.94976C53.2366 9.44962 53.944 10.17 54.4598 11.1109C54.9903 12.0372 55.2555 13.1177 55.2555 14.3527C55.2555 15.5877 54.9903 16.6756 54.4598 17.6165C53.944 18.5427 53.2366 19.2631 52.3377 19.7777C51.4535 20.2776 50.4662 20.5275 49.3757 20.5275C48.1321 20.5275 47.1153 20.1969 46.3253 19.5357C46.2154 19.4438 46.0379 19.5181 46.0379 19.6612V24.4474C46.0379 24.5357 45.9661 24.6073 45.8777 24.6073H41.9981C41.9097 24.6073 41.8379 24.5357 41.8379 24.4474V8.5362C41.8379 8.44793 41.9097 8.37638 41.9981 8.37638H45.6787C45.7672 8.37638 45.8389 8.44793 45.8389 8.5362V9.12903C45.8389 9.27813 46.032 9.3514 46.1415 9.24991C46.9125 8.53524 47.9906 8.17791 49.3757 8.17791ZM48.4915 17.1975C49.2283 17.1975 49.8325 16.9476 50.3041 16.4477C50.7756 15.9331 51.0114 15.2348 51.0114 14.3527C51.0114 13.4706 50.7756 12.7796 50.3041 12.2797C49.8325 11.7652 49.2283 11.5079 48.4915 11.5079C47.7547 11.5079 47.1505 11.7652 46.6789 12.2797C46.2073 12.7796 45.9715 13.4706 45.9715 14.3527C45.9715 15.2348 46.2073 15.9331 46.6789 16.4477C47.1505 16.9476 47.7547 17.1975 48.4915 17.1975Z" fill="#0941D7"/>
<path d="M64.6584 19.723C64.6834 19.7936 64.6561 19.8724 64.5909 19.9095C64.2583 20.0982 63.8604 20.2454 63.397 20.3511C62.8959 20.4687 62.3581 20.5275 61.7833 20.5275C60.2213 20.5275 59.0202 20.1452 58.1803 19.3807C57.355 18.6162 56.9424 17.4768 56.9424 15.9626V5.86781C56.9424 5.77954 57.0141 5.70799 57.1026 5.70799H60.9821C61.0706 5.70799 61.1423 5.77954 61.1423 5.86781V8.65762C61.1423 8.74589 61.214 8.81744 61.3025 8.81744H63.701C63.7895 8.81744 63.8612 8.88899 63.8612 8.97726V11.7891C63.8612 11.8774 63.7895 11.9489 63.701 11.9489H61.3025C61.214 11.9489 61.1423 12.0205 61.1423 12.1088V15.9184C61.1423 16.3595 61.2528 16.6976 61.4739 16.9329C61.6949 17.1681 61.997 17.2857 62.3802 17.2857C62.7904 17.2857 63.1587 17.1968 63.485 17.0189C63.5772 16.9687 63.6965 17.0075 63.7315 17.1063L64.6584 19.723Z" fill="#0941D7"/>
<path d="M71.7581 20.5275C70.476 20.5275 69.3192 20.2629 68.2877 19.7336C67.2561 19.2043 66.4456 18.4692 65.8561 17.5283C65.2814 16.5874 64.994 15.5215 64.994 14.3306C64.994 13.1545 65.2814 12.096 65.8561 11.155C66.4456 10.2141 67.2487 9.48638 68.2656 8.97181C69.2971 8.44254 70.4613 8.17791 71.7581 8.17791C73.0549 8.17791 74.2191 8.44254 75.2507 8.97181C76.2822 9.48638 77.0853 10.2141 77.6601 11.155C78.2348 12.0813 78.5222 13.1398 78.5222 14.3306C78.5222 15.5215 78.2348 16.5874 77.6601 17.5283C77.0853 18.4692 76.2822 19.2043 75.2507 19.7336C74.2191 20.2629 73.0549 20.5275 71.7581 20.5275ZM71.7581 17.1975C72.4949 17.1975 73.0991 16.9476 73.5707 16.4477C74.0423 15.9331 74.278 15.2275 74.278 14.3306C74.278 13.4485 74.0423 12.7575 73.5707 12.2577C73.0991 11.7578 72.4949 11.5079 71.7581 11.5079C71.0213 11.5079 70.4171 11.7578 69.9455 12.2577C69.4739 12.7575 69.2382 13.4485 69.2382 14.3306C69.2382 15.2275 69.4739 15.9331 69.9455 16.4477C70.4171 16.9476 71.0213 17.1975 71.7581 17.1975Z" fill="#0941D7"/>
<path d="M84.9108 20.5275C83.4371 20.5275 82.2877 20.1526 81.4624 19.4028C80.6519 18.6383 80.2467 17.5504 80.2467 16.139V4.12564C80.2467 4.03737 80.3184 3.96582 80.4069 3.96582H84.2864C84.3749 3.96582 84.4466 4.03737 84.4466 4.12564V15.9184C84.4466 16.3595 84.5571 16.6976 84.7781 16.9329C85.0139 17.1681 85.3381 17.2857 85.7508 17.2857C86.0055 17.2857 86.2477 17.2442 86.4775 17.1612C86.5858 17.122 86.7084 17.1932 86.7149 17.3079L86.8712 20.0959C86.8753 20.1683 86.83 20.2346 86.7605 20.2557C86.1634 20.4369 85.5468 20.5275 84.9108 20.5275Z" fill="#0941D7"/>
<path d="M93.9604 20.5275C92.6783 20.5275 91.5215 20.2629 90.49 19.7336C89.4584 19.2043 88.6479 18.4692 88.0585 17.5283C87.4837 16.5874 87.1964 15.5215 87.1964 14.3306C87.1964 13.1545 87.4837 12.096 88.0585 11.155C88.6479 10.2141 89.451 9.48638 90.4679 8.97181C91.4994 8.44254 92.6636 8.17791 93.9604 8.17791C95.2572 8.17791 96.4214 8.44254 97.453 8.97181C98.4845 9.48638 99.2877 10.2141 99.8624 11.155C100.437 12.0813 100.724 13.1398 100.724 14.3306C100.724 15.5215 100.437 16.5874 99.8624 17.5283C99.2877 18.4692 98.4845 19.2043 97.453 19.7336C96.4214 20.2629 95.2572 20.5275 93.9604 20.5275ZM93.9604 17.1975C94.6972 17.1975 95.3014 16.9476 95.773 16.4477C96.2446 15.9331 96.4804 15.2275 96.4804 14.3306C96.4804 13.4485 96.2446 12.7575 95.773 12.2577C95.3014 11.7578 94.6972 11.5079 93.9604 11.5079C93.2236 11.5079 92.6194 11.7578 92.1478 12.2577C91.6763 12.7575 91.4405 13.4485 91.4405 14.3306C91.4405 15.2275 91.6763 15.9331 92.1478 16.4477C92.6194 16.9476 93.2236 17.1975 93.9604 17.1975Z" fill="#0941D7"/>
<path d="M108.572 20.5275C107.246 20.5275 106.059 20.2629 105.013 19.7336C103.967 19.2043 103.149 18.4692 102.56 17.5283C101.985 16.5874 101.697 15.5215 101.697 14.3306C101.697 13.1398 101.985 12.0813 102.56 11.155C103.149 10.2141 103.967 9.48638 105.013 8.97181C106.059 8.44254 107.246 8.17791 108.572 8.17791C109.928 8.17791 111.099 8.47195 112.087 9.06002C113.031 9.60813 113.712 10.3645 114.13 11.3291C114.163 11.4049 114.13 11.4925 114.056 11.5301L111.08 13.0449C111.001 13.0851 110.905 13.0533 110.862 12.9759C110.32 11.9972 109.549 11.5079 108.55 11.5079C107.798 11.5079 107.172 11.7578 106.671 12.2577C106.185 12.7575 105.942 13.4485 105.942 14.3306C105.942 15.2275 106.185 15.9331 106.671 16.4477C107.172 16.9476 107.798 17.1975 108.55 17.1975C109.549 17.1975 110.32 16.7082 110.862 15.7295C110.905 15.6521 111.001 15.6203 111.08 15.6605L114.056 17.1753C114.13 17.2129 114.163 17.3005 114.13 17.3763C113.712 18.3416 113.031 19.1053 112.087 19.6674C111.099 20.2408 109.928 20.5275 108.572 20.5275Z" fill="#0941D7"/>
<path d="M127.923 8.37638C128.012 8.37638 128.083 8.44793 128.083 8.5362V20.1692C128.083 20.2575 128.012 20.329 127.923 20.329H124.243C124.154 20.329 124.082 20.2575 124.082 20.1692V19.5764C124.082 19.4273 123.889 19.354 123.78 19.4555C123.009 20.1702 121.931 20.5275 120.546 20.5275C119.455 20.5275 118.46 20.2776 117.562 19.7777C116.677 19.2631 115.97 18.5354 115.439 17.5945C114.924 16.6535 114.666 15.5656 114.666 14.3306C114.666 13.0957 114.924 12.0151 115.439 11.0889C115.97 10.148 116.677 9.42757 117.562 8.9277C118.46 8.42784 119.455 8.17791 120.546 8.17791C121.8 8.17791 122.816 8.50133 123.596 9.14817C123.706 9.23968 123.884 9.16515 123.884 9.02208V8.5362C123.884 8.44793 123.955 8.37638 124.044 8.37638H127.923ZM121.43 17.1975C122.167 17.1975 122.771 16.9476 123.242 16.4477C123.714 15.9331 123.95 15.2275 123.95 14.3306C123.95 13.4485 123.714 12.7575 123.242 12.2577C122.771 11.7578 122.167 11.5079 121.43 11.5079C120.693 11.5079 120.089 11.7578 119.617 12.2577C119.146 12.7575 118.91 13.4485 118.91 14.3306C118.91 15.2275 119.146 15.9331 119.617 16.4477C120.089 16.9476 120.693 17.1975 121.43 17.1975Z" fill="#0941D7"/>
<path d="M135.23 20.5275C133.757 20.5275 132.607 20.1526 131.782 19.4028C130.971 18.6383 130.566 17.5504 130.566 16.139V4.12564C130.566 4.03737 130.638 3.96582 130.726 3.96582H134.606C134.694 3.96582 134.766 4.03737 134.766 4.12564V15.9184C134.766 16.3595 134.876 16.6976 135.098 16.9329C135.333 17.1681 135.658 17.2857 136.07 17.2857C136.325 17.2857 136.567 17.2442 136.797 17.1612C136.905 17.122 137.028 17.1932 137.034 17.3079L137.191 20.0959C137.195 20.1683 137.149 20.2346 137.08 20.2557C136.483 20.4369 135.866 20.5275 135.23 20.5275Z" fill="#0941D7"/>
<path d="M143.147 20.5275C141.674 20.5275 140.524 20.1526 139.699 19.4028C138.888 18.6383 138.483 17.5504 138.483 16.139V4.12564C138.483 4.03737 138.555 3.96582 138.643 3.96582H142.523C142.611 3.96582 142.683 4.03737 142.683 4.12564V15.9184C142.683 16.3595 142.794 16.6976 143.015 16.9329C143.25 17.1681 143.575 17.2857 143.987 17.2857C144.242 17.2857 144.484 17.2442 144.714 17.1612C144.822 17.122 144.945 17.1932 144.951 17.3079L145.108 20.0959C145.112 20.1683 145.067 20.2346 144.997 20.2557C144.4 20.4369 143.783 20.5275 143.147 20.5275Z" fill="#0941D7"/>
<path d="M158.84 8.37638C158.928 8.37638 159 8.44793 159 8.5362V18.1458C159 20.3658 158.403 22.0271 157.21 23.1297C156.031 24.2471 154.329 24.8057 152.103 24.8057C150.939 24.8057 149.849 24.6734 148.832 24.4088C147.882 24.158 147.065 23.7949 146.38 23.3196C146.315 23.2745 146.295 23.1882 146.331 23.1181L147.701 20.4845C147.748 20.3935 147.868 20.3699 147.949 20.432C148.393 20.7693 148.93 21.0364 149.561 21.2332C150.283 21.4684 150.998 21.586 151.705 21.586C152.766 21.586 153.548 21.3434 154.049 20.8583C154.55 20.3731 154.8 19.6527 154.8 18.6971C154.8 18.5973 154.679 18.5449 154.603 18.6096C153.739 19.3442 152.685 19.7115 151.44 19.7115C149.893 19.7115 148.655 19.2558 147.727 18.3443C146.813 17.4327 146.356 16.0655 146.356 14.2424V8.5362C146.356 8.44793 146.428 8.37638 146.516 8.37638H150.396C150.484 8.37638 150.556 8.44793 150.556 8.5362V13.5588C150.556 14.4703 150.725 15.1319 151.064 15.5435C151.403 15.9552 151.897 16.161 152.545 16.161C153.209 16.161 153.746 15.9258 154.159 15.4553C154.586 14.9849 154.8 14.2792 154.8 13.3383V8.5362C154.8 8.44793 154.872 8.37638 154.96 8.37638H158.84Z" fill="#0941D7"/>
<path d="M8.00069 16.1428C9.61354 16.1428 10.9779 15.0806 11.4301 13.6186C11.4592 13.5245 11.5567 13.4673 11.6518 13.4931L15.5684 14.5569C15.6619 14.5823 15.7176 14.6786 15.6908 14.7716C14.7301 18.1073 11.6509 20.5478 8.00069 20.5478C6.3363 20.5478 4.79061 20.0404 3.51035 19.1721C3.46124 19.1387 3.34366 19.1535 3.34366 19.1535L0.512044 20.5478C0.368013 20.6052 0.0915772 20.2511 0.149129 20.1073L1.34163 17.1278C1.36338 17.0734 1.35658 17.0119 1.32423 16.9631C0.487332 15.7008 0 14.1873 0 12.5601C0 8.14868 3.58203 4.57249 8.00069 4.57249C11.6102 4.57249 14.6615 6.9589 15.6579 10.2376C15.6863 10.3312 15.6307 10.429 15.5362 10.4546L11.6166 11.5193C11.5236 11.5445 11.4279 11.4903 11.3967 11.3993C10.9136 9.99036 9.57563 8.97744 8.00069 8.97744C6.01879 8.97744 4.41215 10.5815 4.41215 12.5601C4.41215 14.5388 6.01879 16.1428 8.00069 16.1428Z" fill="#0941D7"/>
</svg>
