<svg width="80" height="80" viewBox="0 0 80 80" fill="none" xmlns="http://www.w3.org/2000/svg">
<mask id="path-1-inside-1_69_1499" fill="white">
<path d="M16.6504 63.085L40.0004 76.565L63.3504 63.085"/>
</mask>
<path d="M40.0004 76.565L39.5004 77.431L40.0004 77.7196L40.5004 77.431L40.0004 76.565ZM16.1504 63.951L39.5004 77.431L40.5004 75.6989L17.1504 62.2189L16.1504 63.951ZM40.5004 77.431L63.8504 63.951L62.8504 62.2189L39.5004 75.6989L40.5004 77.431Z" fill="#1AD6FF" mask="url(#path-1-inside-1_69_1499)"/>
<mask id="path-3-inside-2_69_1499" fill="white">
<path d="M31.684 8.23657L8.33398 21.7166V48.6782"/>
</mask>
<path d="M8.33398 21.7166L7.83402 20.8505L7.33398 21.1392V21.7166H8.33398ZM31.184 7.37053L7.83402 20.8505L8.83395 22.5826L32.184 9.10262L31.184 7.37053ZM7.33398 21.7166V48.6782H9.33398V21.7166H7.33398Z" fill="#1AD6FF" mask="url(#path-3-inside-2_69_1499)"/>
<mask id="path-5-inside-3_69_1499" fill="white">
<path d="M71.6674 48.6799V21.7166L48.3174 8.23657"/>
</mask>
<path d="M71.6674 21.7166H72.6674V21.1392L72.1674 20.8505L71.6674 21.7166ZM72.6674 48.6799V21.7166H70.6674V48.6799H72.6674ZM72.1674 20.8505L48.8174 7.37053L47.8174 9.10262L71.1674 22.5826L72.1674 20.8505Z" fill="#1AD6FF" mask="url(#path-5-inside-3_69_1499)"/>
<path d="M48.3337 8.33325V19.9999C48.3337 22.7616 44.602 24.9999 40.0003 24.9999C35.3987 24.9999 31.667 22.7616 31.667 19.9999V8.33325" stroke="white" stroke-miterlimit="10"/>
<path d="M40.0003 13.3333C44.6027 13.3333 48.3337 11.0947 48.3337 8.33325C48.3337 5.57183 44.6027 3.33325 40.0003 3.33325C35.398 3.33325 31.667 5.57183 31.667 8.33325C31.667 11.0947 35.398 13.3333 40.0003 13.3333Z" stroke="white" stroke-miterlimit="10" stroke-linecap="square"/>
<mask id="path-9-inside-4_69_1499" fill="white">
<path d="M8.33398 21.7166L40.0007 39.9999L71.6673 21.7166"/>
</mask>
<path d="M40.0007 39.9999L39.5006 40.8659L40.0007 41.1546L40.5007 40.8659L40.0007 39.9999ZM7.83397 22.5826L39.5006 40.8659L40.5007 39.1339L8.834 20.8505L7.83397 22.5826ZM40.5007 40.8659L72.1673 22.5826L71.1673 20.8505L39.5006 39.1339L40.5007 40.8659Z" fill="#1AD6FF" mask="url(#path-9-inside-4_69_1499)"/>
<path d="M71.5903 48.6166L61.487 42.7833C59.0953 41.4016 55.292 43.5149 52.987 47.4999C50.682 51.4849 50.7587 55.8333 53.1537 57.2166L63.257 63.0499" stroke="white" stroke-miterlimit="10"/>
<path d="M71.5899 48.6165C69.1999 47.2348 65.3949 49.3482 63.0899 53.3332C60.7849 57.3182 60.8632 61.6665 63.2566 63.0498C65.6499 64.4332 69.4532 62.3198 71.7566 58.3332C74.0599 54.3465 73.9816 49.9998 71.5899 48.6165Z" stroke="white" stroke-miterlimit="10" stroke-linecap="square"/>
<path d="M40 40V76.565" stroke="#1AD6FF"/>
<path d="M16.7425 63.0499L26.8475 57.2166C29.2375 55.8366 29.3108 51.4849 27.0142 47.4999C24.7175 43.5149 20.9075 41.4016 18.5142 42.7833L8.40918 48.6166" stroke="white" stroke-miterlimit="10"/>
<path d="M16.9053 53.3333C14.6053 49.3467 10.8003 47.235 8.40534 48.6167C6.01034 49.9983 5.942 54.3467 8.23867 58.3333C10.5353 62.32 14.3453 64.4317 16.7387 63.05C19.132 61.6683 19.207 57.3183 16.9053 53.3333Z" stroke="white" stroke-miterlimit="10" stroke-linecap="square"/>
</svg>
