<svg width="80" height="82" viewBox="0 0 80 82" fill="none" xmlns="http://www.w3.org/2000/svg">
<mask id="mask0" mask-type="alpha" maskUnits="userSpaceOnUse" x="0" y="0" width="80" height="82">
<rect width="80" height="81.0127" fill="#291A69"/>
</mask>
<g mask="url(#mask0)">
<path d="M20.1126 8.79899C31.0473 -2.13569 48.7759 -2.13569 59.7106 8.79899L71.0243 20.1127C81.959 31.0474 81.959 48.776 71.0243 59.7107L59.7106 71.0244C48.7759 81.9591 31.0473 81.9591 20.1126 71.0244L8.79892 59.7107C-2.13576 48.776 -2.13576 31.0474 8.79892 20.1127L20.1126 8.79899Z" fill="#071A5F"/>
</g>
<path d="M51 36H29C28.448 36 28 36.448 28 37V51C28 51.552 28.448 52 29 52H51C51.552 52 52 51.552 52 51V37C52 36.448 51.552 36 51 36ZM40 47C38.343 47 37 45.657 37 44C37 42.343 38.343 41 40 41C41.657 41 43 42.343 43 44C43 45.657 41.657 47 40 47Z" fill="#8946DF"/>
<path d="M49 32H31V34H49V32Z" fill="#8946DF"/>
<path d="M45 28H35V30H45V28Z" fill="#8946DF"/>
</svg>
