<svg width="167" height="49" transform="scale(0.4)" viewBox="0 0 167 49" fill="none" xmlns="http://www.w3.org/2000/svg">
<path d="M76.3852 3.56666C76.3852 2.39969 76.7192 1.55427 77.3872 1.03039C78.1909 0.468578 79.1602 0.19346 80.1392 0.249274C80.8468 0.243538 81.5517 0.338602 82.2326 0.531605C82.877 0.719825 83.3051 0.856284 83.5168 0.936278V15.5704H92.5819C93.9618 15.5704 94.9324 15.8527 95.4938 16.4174C96.0963 17.0934 96.4 17.9844 96.3358 18.8878C96.3428 19.5581 96.2363 20.2247 96.0206 20.8594C95.8805 21.2957 95.714 21.7232 95.522 22.1393H83.5168V36.0911C83.4855 36.9975 83.6342 37.9012 83.9543 38.7497C84.2138 39.396 84.633 39.9659 85.1727 40.4061C85.7035 40.8295 86.3223 41.1285 86.9838 41.2813C87.6907 41.4525 88.4157 41.5378 89.1431 41.5354C90.2932 41.5453 91.4363 41.3542 92.5207 40.9707C93.3144 40.7147 94.0718 40.3572 94.774 39.9073L97.6483 44.6598C97.3143 44.9139 96.8439 45.2245 96.237 45.6009C95.5319 46.0244 94.7885 46.3805 94.0166 46.6644C93.0598 47.0207 92.0768 47.3023 91.0765 47.5067C89.9031 47.7454 88.708 47.8605 87.5107 47.8502C83.8414 47.8502 81.069 46.9091 79.1936 45.0269C77.3182 43.1447 76.3774 40.6539 76.3711 37.5545L76.3852 3.56666Z" fill="#0074FF"/>
<path d="M117.206 14.6948C119.528 14.6778 121.832 15.1025 123.995 15.9465C126.027 16.7364 127.886 17.9161 129.466 19.4192C131.016 20.9095 132.249 22.6972 133.093 24.6752C134.843 28.8795 134.843 33.6086 133.093 37.813C132.25 39.79 131.016 41.5762 129.466 43.0643C127.884 44.5764 126.026 45.7711 123.995 46.584C119.632 48.2906 114.786 48.2906 110.423 46.584C108.391 45.7777 106.534 44.5875 104.952 43.0784C103.402 41.5903 102.168 39.8041 101.325 37.8271C99.5687 33.624 99.5687 28.8924 101.325 24.6893C102.169 22.7113 103.402 20.9237 104.952 19.4333C106.53 17.9282 108.389 16.7483 110.423 15.9606C112.583 15.1114 114.885 14.6818 117.206 14.6948ZM117.206 41.5162C118.561 41.5286 119.903 41.2611 121.149 40.7304C122.323 40.2464 123.379 39.5145 124.244 38.5847C125.111 37.6216 125.789 36.5043 126.243 35.2908C126.734 34.002 126.978 32.6325 126.963 31.2535C126.974 29.855 126.73 28.4662 126.243 27.155C125.801 25.9359 125.121 24.8164 124.244 23.8612C123.374 22.9333 122.32 22.1977 121.149 21.7013C118.614 20.6597 115.771 20.6597 113.236 21.7013C112.078 22.2029 111.035 22.9382 110.174 23.8612C109.295 24.8162 108.614 25.9356 108.17 27.155C107.683 28.4662 107.439 29.855 107.45 31.2535C107.435 32.6325 107.679 34.002 108.17 35.2908C108.626 36.5046 109.305 37.622 110.174 38.5847C111.026 39.5248 112.071 40.271 113.236 40.7727C114.492 41.3008 115.844 41.5604 117.206 41.535V41.5162Z" fill="#0074FF"/>
<path d="M33.146 0.531628C32.4766 0.337314 31.7824 0.242193 31.0855 0.249297C30.0903 0.184085 29.1041 0.472374 28.3006 1.06335C27.6514 1.60448 27.3315 2.44206 27.3315 3.56668V17.7255C26.2866 17.0123 25.1665 16.4159 23.9915 15.9469C21.8286 15.1029 19.525 14.6781 17.2034 14.6952C14.8832 14.6777 12.581 15.1025 10.4199 15.9469C8.38373 16.7351 6.52182 17.9149 4.93944 19.4195C3.38959 20.9099 2.15603 22.6975 1.31248 24.6756C-0.437493 28.8799 -0.437493 33.609 1.31248 37.8134C2.15544 39.7903 3.38912 41.5765 4.93944 43.0647C6.52255 44.5778 8.38146 45.7727 10.4152 46.5844C12.5719 47.447 14.8759 47.8817 17.1986 47.8643C19.5245 47.8819 21.8315 47.4472 23.9915 46.5844C26.0221 45.7757 27.8792 44.5858 29.4626 43.0788C31.0129 41.5906 32.2466 39.8045 33.0895 37.8275C33.9734 35.7612 34.4203 33.5343 34.402 31.2868V0.941007C34.1903 0.856308 33.7716 0.719848 33.146 0.531628ZM26.2355 35.2912C25.7793 36.5038 25.1013 37.6208 24.2362 38.5851C23.3751 39.5302 22.3189 40.2767 21.1408 40.7731C19.8947 41.3034 18.5527 41.5709 17.1986 41.5589C15.8349 41.5769 14.4824 41.3092 13.2283 40.7731C12.062 40.2726 11.0174 39.5263 10.1658 38.5851C9.2975 37.6223 8.61771 36.505 8.16183 35.2912C7.67138 34.0024 7.42724 32.6329 7.44208 31.2539C7.43158 29.8554 7.67547 28.4666 8.16183 27.1554C8.60611 25.936 9.28719 24.8165 10.1658 23.8615C11.0264 22.9376 12.0692 22.2021 13.2283 21.7017C14.4827 21.1671 15.8352 20.901 17.1986 20.9206C18.5524 20.9071 19.8944 21.173 21.1408 21.7017C22.3118 22.198 23.3661 22.9337 24.2362 23.8615C25.1117 24.818 25.791 25.9371 26.2355 27.1554C26.7218 28.4666 26.9657 29.8554 26.9552 31.2539C26.9701 32.6329 26.7259 34.0024 26.2355 35.2912Z" fill="white"/>
<path d="M139.785 26.7696C139.785 22.9362 140.963 19.9655 143.318 17.8574C145.673 15.7493 148.935 14.6953 153.103 14.6953C155.734 14.6953 157.871 15.0608 159.515 15.7917C161.158 16.5226 161.981 17.6378 161.984 19.1373C161.979 19.867 161.774 20.5813 161.392 21.203C161.148 21.6787 160.816 22.1035 160.413 22.4547C159.564 22.0693 158.684 21.7545 157.784 21.5136C156.622 21.2066 155.424 21.0593 154.222 21.076C149.343 21.076 146.903 23.6624 146.903 28.8354V46.9751H139.785V26.7696Z" fill="#0074FF"/>
<path d="M68.5085 29.3056C67.6843 27.6583 66.4836 26.2284 65.0039 25.1318C63.4139 23.899 60.9049 22.5705 57.4771 21.1463C55.2948 20.3127 53.1849 19.3008 51.1688 18.1206C50.1564 17.5089 49.2959 16.6755 48.652 15.6832C48.1177 14.7357 47.8526 13.6602 47.8852 12.5728C47.8359 10.9413 48.5425 9.37838 49.7998 8.33789C51.07 7.26503 52.9391 6.72861 55.4073 6.72861C56.4545 6.72816 57.5002 6.80681 58.5356 6.96388C59.7937 7.24823 61.0246 7.64184 62.2143 8.14026C63.1501 8.5352 64.0411 9.02894 64.8722 9.61308C65.4576 10.0136 65.9889 10.488 66.4528 11.0247C67.0269 10.5366 67.5137 9.95421 67.8923 9.30252C68.4116 8.50473 68.6864 7.5724 68.6826 6.62038C68.6944 5.95163 68.5025 5.29513 68.1322 4.73818C67.7316 4.16741 67.2462 3.66122 66.6927 3.23712C66.3963 3.03008 65.9353 2.73834 65.305 2.3619C64.515 1.91382 63.6811 1.54801 62.8164 1.27022C61.5884 0.866708 60.3299 0.563001 59.053 0.362058C57.9158 0.236036 56.7725 0.173199 55.6284 0.173833C50.9775 0.173833 47.2721 1.28904 44.5123 3.51945C41.7525 5.74986 40.3631 8.81158 40.3443 12.7046C40.2698 15.5833 41.1922 18.3992 42.9552 20.6757C44.6989 22.8716 47.6939 24.837 51.9402 26.5717C56.0611 28.2281 58.7802 29.6617 60.0974 30.8726C61.3783 31.9816 62.109 33.5965 62.0967 35.291C62.1607 37.0867 61.3615 38.8045 59.9468 39.9118C58.5136 41.06 56.2885 41.6325 53.2715 41.6293C51.0132 41.6096 48.765 41.3253 46.5727 40.7824C45.2991 40.475 44.0428 40.0996 42.8093 39.6577L40.1797 45.7749C43.4789 47.2932 47.6641 48.0555 52.7353 48.0618C58.004 48.0618 62.1343 46.8823 65.1262 44.5232C68.1181 42.1642 69.6172 38.919 69.6234 34.7875C69.6682 32.8997 69.2872 31.0259 68.5085 29.3056Z" fill="#0074FF"/>
<path d="M163.525 16.9726H163.144V14.9681H162.457V14.6387H164.212V14.9681H163.525V16.9726Z" fill="#0074FF"/>
<path d="M165.59 16.9729L164.913 15.0248C164.913 15.3118 164.941 15.5847 164.941 15.8388V16.9729H164.598V14.6201H165.12L165.764 16.4741L166.432 14.6201H166.973V16.9729H166.606V15.82C166.606 15.7024 166.606 15.5518 166.606 15.3495C166.606 15.1471 166.606 15.0483 166.606 15.0107L165.905 16.954L165.59 16.9729Z" fill="#0074FF"/>
</svg>
