<?xml version="1.0" standalone="no"?>
<!DOCTYPE svg PUBLIC "-//W3C//DTD SVG 20010904//EN"
 "http://www.w3.org/TR/2001/REC-SVG-20010904/DTD/svg10.dtd">
<svg version="1.0" xmlns="http://www.w3.org/2000/svg"
 width="100.000000pt" height="100.000000pt" viewBox="0 0 100.000000 100.000000"
 preserveAspectRatio="xMidYMid meet">

<g transform="translate(0.000000,100.000000) scale(0.100000,-0.100000)"
fill="orange" stroke="none">
<path d="M112 913 c-7 -2 -17 -14 -23 -25 -14 -27 14 -58 52 -58 23 0 32 -7
46 -37 l18 -38 132 -3 132 -3 -110 -173 c-70 -111 -109 -183 -109 -200 0 -17
11 -39 29 -57 l29 -29 250 0 c269 0 277 2 270 52 l-3 23 -242 3 c-140 1 -243
6 -243 12 0 5 9 25 21 44 l21 36 168 0 c145 0 171 2 188 17 11 10 57 84 102
165 69 125 80 150 70 168 -10 20 -18 20 -329 20 l-319 0 -12 31 c-7 17 -19 37
-27 45 -14 13 -84 18 -111 7z"/>
<path d="M0 625 l0 -45 130 0 129 0 26 37 c14 21 25 41 25 45 0 5 -70 8 -155
8 l-155 0 0 -45z"/>
<path d="M0 460 l0 -40 83 0 82 0 23 40 23 40 -106 0 -105 0 0 -40z"/>
<path d="M294 238 c-23 -11 -44 -48 -44 -77 0 -26 36 -68 64 -75 36 -9 73 9
91 43 37 73 -37 145 -111 109z"/>
<path d="M695 225 c-25 -24 -32 -65 -19 -100 9 -23 62 -48 90 -41 92 23 78
166 -16 166 -19 0 -40 -9 -55 -25z"/>
</g>
</svg>
