<?xml version="1.0" standalone="no"?>
<!DOCTYPE svg PUBLIC "-//W3C//DTD SVG 20010904//EN"
 "http://www.w3.org/TR/2001/REC-SVG-20010904/DTD/svg10.dtd">
<svg version="1.0" xmlns="http://www.w3.org/2000/svg"
 width="100.000000pt" height="100.000000pt" viewBox="0 0 100.000000 100.000000"
 preserveAspectRatio="xMidYMid meet">

<g transform="translate(0.000000,100.000000) scale(0.100000,-0.100000)"
fill="green" stroke="none">
<path d="M4 989 c-4 -7 193 -211 484 -502 391 -391 494 -489 504 -479 10 10
-5 30 -72 97 l-84 84 -1 88 c-1 99 -20 152 -95 263 -55 81 -80 137 -80 183 l0
37 -160 0 -160 0 0 -30 c0 -16 -3 -30 -8 -30 -4 0 -75 68 -157 150 -82 83
-153 150 -157 150 -4 0 -10 -5 -14 -11z"/>
<path d="M478 963 c-4 -49 -32 -53 -36 -5 -4 37 -23 42 -62 15 -37 -25 -40
-32 -40 -105 l0 -68 160 0 160 0 0 68 c0 73 -3 80 -40 105 -39 27 -58 22 -62
-15 -4 -48 -32 -44 -36 5 -2 28 -8 37 -22 37 -14 0 -20 -9 -22 -37z"/>
<path d="M261 540 c-73 -103 -95 -164 -96 -255 0 -59 5 -89 18 -113 24 -44 83
-109 131 -144 39 -28 40 -28 185 -28 164 0 161 -1 244 79 l47 46 -157 157
c-127 127 -160 155 -174 148 -9 -5 -19 -17 -23 -25 -11 -30 12 -52 76 -70 77
-21 108 -47 108 -91 0 -24 -8 -39 -31 -58 -56 -47 -171 -29 -198 31 -16 34
-14 43 9 43 11 0 20 -6 20 -13 0 -46 117 -71 146 -32 28 39 7 68 -59 85 -97
24 -126 52 -113 105 4 14 16 34 28 45 l22 20 -64 65 c-36 36 -67 65 -71 65 -3
0 -25 -27 -48 -60z"/>
</g>
</svg>
