<?xml version="1.0" standalone="no"?>
<!DOCTYPE svg PUBLIC "-//W3C//DTD SVG 20010904//EN"
 "http://www.w3.org/TR/2001/REC-SVG-20010904/DTD/svg10.dtd">
<svg version="1.0" xmlns="http://www.w3.org/2000/svg"
 width="90.000000pt" height="90.000000pt" viewBox="0 0 90.000000 90.000000"
 preserveAspectRatio="xMidYMid meet">
<metadata>
Created by potrace 1.16, written by Peter Selinger 2001-2019
</metadata>
<g transform="translate(0.000000,90.000000) scale(0.100000,-0.100000)"
fill="green" stroke="none">
<path d="M490 825 c-8 -10 -11 -32 -7 -62 3 -25 0 -59 -5 -75 -9 -25 -14 -28
-56 -28 -26 0 -65 -9 -87 -19 l-40 -18 -42 35 c-32 25 -43 42 -43 62 0 37 -29
60 -77 60 -51 0 -73 -23 -73 -77 0 -50 23 -73 76 -73 28 0 49 -9 73 -29 l34
-28 -16 -42 c-23 -56 -21 -145 3 -199 l20 -44 -32 -39 c-25 -31 -38 -39 -63
-39 -42 0 -65 -27 -65 -77 0 -51 23 -73 77 -73 49 0 73 23 73 71 1 24 11 45
34 72 l33 37 36 -15 c51 -21 143 -19 196 5 l44 20 53 -57 c34 -38 53 -67 54
-84 0 -35 18 -49 60 -49 45 0 60 15 60 60 0 41 -14 60 -46 60 -14 0 -41 22
-78 64 l-56 64 15 36 c8 19 15 64 15 99 0 63 0 63 35 80 20 9 55 17 78 17 24
0 48 5 55 12 17 17 15 83 -2 97 -24 20 -89 10 -100 -15 -6 -12 -30 -31 -54
-43 l-44 -22 -41 38 c-23 21 -42 41 -41 45 1 5 2 17 3 28 0 11 12 30 26 42 27
24 35 84 13 106 -17 17 -83 15 -98 -3z m-40 -245 c0 -11 6 -20 14 -20 20 0 66
-39 66 -56 0 -19 -40 -18 -55 2 -13 19 -61 22 -77 6 -19 -19 0 -41 44 -52 65
-17 66 -17 83 -44 10 -15 14 -33 10 -46 -9 -28 -45 -60 -67 -60 -11 0 -18 -7
-18 -20 0 -11 -7 -20 -15 -20 -8 0 -15 8 -15 18 0 12 -11 21 -32 27 -19 6 -38
21 -45 35 -12 23 -11 25 13 28 14 2 31 -3 37 -11 27 -32 87 -24 87 12 0 15
-10 23 -37 30 -21 6 -44 11 -50 11 -23 0 -53 39 -53 69 0 30 38 71 66 71 8 0
14 9 14 20 0 11 7 20 15 20 8 0 15 -9 15 -20z"/>
</g>
</svg>
