<?xml version="1.0" standalone="no"?>
<!DOCTYPE svg PUBLIC "-//W3C//DTD SVG 20010904//EN"
 "http://www.w3.org/TR/2001/REC-SVG-20010904/DTD/svg10.dtd">
<svg version="1.0" xmlns="http://www.w3.org/2000/svg"
 width="90.000000pt" height="90.000000pt" viewBox="0 0 90.000000 90.000000"
 preserveAspectRatio="xMidYMid meet">

<g transform="translate(0.000000,90.000000) scale(0.100000,-0.100000)"
fill="#000000" stroke="none">
<path d="M170 820 c-19 -19 -20 -33 -20 -370 0 -337 1 -351 20 -370 18 -18 33
-20 162 -20 l141 0 -56 59 c-45 47 -57 66 -57 91 0 36 46 90 76 90 24 0 164
139 164 163 0 10 13 32 29 48 31 30 67 37 102 19 18 -10 19 -7 19 42 l0 53
-108 108 -107 107 -173 0 c-159 0 -174 -2 -192 -20z m444 -218 c-43 -2 -83 -1
-91 2 -9 4 -13 29 -13 93 l0 88 90 -90 91 -90 -77 -3z" fill="white"/>
<path d="M667 473 c-17 -17 -2 -44 62 -107 70 -69 102 -82 109 -42 3 12 -19
41 -64 87 -63 64 -90 79 -107 62z" fill="brown"/>
<path d="M566 331 l-59 -60 61 -63 62 -63 62 63 61 63 -59 60 c-32 32 -61 59
-64 59 -3 0 -32 -27 -64 -59z" fill="brown"/>
<path d="M427 233 c-17 -17 -2 -44 62 -107 46 -45 75 -67 87 -64 40 7 27 39
-42 109 -63 64 -90 79 -107 62z" fill="brown"/>
<path d="M725 170 c-18 -20 -18 -22 56 -96 50 -51 80 -74 94 -72 42 6 28 39
-46 114 -41 41 -76 74 -80 74 -3 0 -14 -9 -24 -20z" fill="brown"/>
</g>
</svg>
