<?xml version="1.0" standalone="no"?>
<!DOCTYPE svg PUBLIC "-//W3C//DTD SVG 20010904//EN"
 "http://www.w3.org/TR/2001/REC-SVG-20010904/DTD/svg10.dtd">
<svg version="1.0" xmlns="http://www.w3.org/2000/svg"
 width="90.000000pt" height="90.000000pt" viewBox="0 0 90.000000 90.000000"
 preserveAspectRatio="xMidYMid meet">

<g transform="translate(0.000000,90.000000) scale(0.100000,-0.100000)"
fill="#000000" stroke="none">
<path d="M170 795 c0 -20 5 -25 25 -25 20 0 25 5 25 25 0 20 -5 25 -25 25 -20
0 -25 -5 -25 -25z" fill="yellow"/>
<path d="M680 795 c0 -20 5 -25 25 -25 20 0 25 5 25 25 0 20 -5 25 -25 25 -20
0 -25 -5 -25 -25z" fill="yellow"/>
<path d="M367 796 c-128 -46 -202 -168 -183 -300 7 -45 36 -93 131 -220 l50
-66 85 0 85 0 50 66 c95 127 124 175 131 220 29 199 -164 365 -349 300z m65
-156 c62 -24 89 -45 117 -91 21 -34 26 -73 15 -103 -9 -23 -19 -20 -33 11 -17
36 -69 101 -91 113 -14 7 -10 -5 15 -46 42 -70 62 -151 49 -201 -11 -43 -40
-66 -54 -43 -5 8 -8 21 -5 28 3 8 8 24 11 37 6 23 4 24 -29 18 -71 -11 -110
67 -90 182 11 61 29 115 37 115 3 0 29 -9 58 -20z" fill="green"/>
<path d="M64 556 c-10 -26 4 -48 28 -44 33 4 33 52 0 56 -13 2 -25 -3 -28 -12z" fill="yellow"/>
<path d="M784 556 c-10 -26 4 -48 28 -44 17 2 23 10 23 28 0 18 -6 26 -23 28
-13 2 -25 -3 -28 -12z" fill="yellow"/>
<path d="M170 285 c0 -20 5 -25 25 -25 20 0 25 5 25 25 0 20 -5 25 -25 25 -20
0 -25 -5 -25 -25z" fill="yellow"/>
<path d="M680 285 c0 -20 5 -25 25 -25 20 0 25 5 25 25 0 20 -5 25 -25 25 -20
0 -25 -5 -25 -25z" fill="yellow"/>
<path d="M360 125 c0 -14 10 -34 23 -45 12 -12 29 -27 38 -35 20 -19 38 -19
58 0 9 8 26 23 39 35 12 11 22 31 22 45 0 25 -1 25 -90 25 -89 0 -90 0 -90
-25z" fill="red" />
</g>
</svg>
