<?xml version="1.0" standalone="no"?>
<!DOCTYPE svg PUBLIC "-//W3C//DTD SVG 20010904//EN"
 "http://www.w3.org/TR/2001/REC-SVG-20010904/DTD/svg10.dtd">
<svg version="1.0" xmlns="http://www.w3.org/2000/svg"
 width="100.000000pt" height="100.000000pt" viewBox="0 0 100.000000 100.000000"
 preserveAspectRatio="xMidYMid meet">

<g transform="translate(0.000000,100.000000) scale(0.100000,-0.100000)"
fill="#000000" stroke="none">
<path d="M426 909 c-213 -35 -376 -264 -337 -475 25 -131 112 -250 225 -303
98 -47 109 -47 134 -2 l22 39 -37 7 c-93 17 -182 86 -230 178 -25 46 -28 63
-28 147 0 84 3 101 27 147 34 64 87 117 153 151 44 24 61 27 145 27 79 0 103
-4 142 -24 93 -45 169 -145 184 -242 4 -24 23 -70 43 -103 l36 -60 7 53 c31
212 -130 426 -347 461 -67 11 -70 11 -139 -1z" fill="green"/>
<path d="M490 735 c0 -18 -7 -28 -24 -35 -40 -15 -66 -58 -66 -109 0 -54 18
-84 63 -107 72 -36 96 -83 61 -118 -20 -21 -51 -5 -60 29 -5 21 -12 25 -46 25
-39 0 -40 0 -32 -32 10 -46 30 -74 64 -88 22 -9 30 -19 30 -37 0 -30 33 -29
39 2 2 11 9 24 16 30 7 5 27 37 45 70 44 80 38 104 -36 151 -63 40 -82 70 -65
103 17 30 41 26 54 -9 10 -27 16 -31 47 -28 31 3 35 6 32 28 -3 31 -32 72 -60
85 -15 7 -22 19 -22 37 0 21 -5 28 -20 28 -15 0 -20 -7 -20 -25z" fill="green"/>
<path d="M728 448 c-19 -16 -228 -390 -228 -410 0 -35 20 -38 250 -38 230 0
250 3 250 38 0 20 -209 394 -228 410 -9 6 -19 12 -22 12 -3 0 -13 -6 -22 -12z
m62 -198 l0 -80 -40 0 -40 0 0 80 0 80 40 0 40 0 0 -80z m0 -170 l0 -40 -40 0
-40 0 0 40 0 40 40 0 40 0 0 -40z" fill="yellow"/>
</g>
</svg>
