<svg width="294" height="63" transform="scale(0.6)" viewBox="0 0 294 63" fill="none" xmlns="http://www.w3.org/2000/svg">
<path d="M30.8878 48.7968C31.2379 47.7636 31.4582 46.6914 31.5436 45.6045C32.9208 45.6696 34.6259 45.6696 36.4621 45.6696C36.4852 46.7571 36.4414 47.845 36.3309 48.9271C35.4128 56.0285 25.707 60.4587 25.707 60.4587C26.9969 58.9155 27.735 56.9907 27.8056 54.9861C28.9893 53.0035 30.0197 50.9345 30.8878 48.7968Z" fill="#576FED"/>
<path d="M10.1648 63C10.1648 63 13.7061 58.1789 14.7554 54.7911C17.4442 52.7715 23.0184 45.6701 23.0184 45.6701C23.0184 45.6701 17.3786 45.1489 15.8047 40.7187C14.7554 37.9173 14.7554 32.8356 14.7554 32.8356C12.7696 34.8337 10.6199 36.6642 8.32861 38.3082C5.31195 40.2627 0 41.9566 0 41.9566C0 41.9566 2.09855 36.2885 3.67246 33.7477C5.24637 31.2068 7.34492 28.2751 7.34492 28.2751L4.59057 12.6391C4.59057 12.6391 9.70578 13.7466 11.9355 16.2875C13.6188 18.3029 15.153 20.4367 16.5261 22.6722C16.5261 22.6722 16.1326 15.3754 20.1985 9.51189C21.3574 7.82174 22.9818 6.49897 24.8775 5.70177C26.7732 4.90457 28.8598 4.66668 30.888 5.01655C32.018 5.4194 33.1809 5.72457 34.3637 5.92865C35.5442 6.1241 37.1181 5.01655 35.6097 2.14995C38.3641 2.8666 40.9217 5.8635 40.9217 5.8635C40.9217 5.8635 42.7579 4.88625 40.7249 0.32575C45.4467 0.716649 47.8731 8.33919 47.8731 8.33919C47.8625 5.55295 48.0158 2.76848 48.3322 0C49.5975 1.12888 50.6168 2.50314 51.3274 4.03816C52.0379 5.57318 52.4246 7.23645 52.4637 8.92554C52.4637 8.92554 57.251 8.99069 59.3496 13.0951C61.4481 17.1996 57.9724 31.8583 57.9724 31.8583L60.0709 33.5522L63.5466 27.819L67.088 32.575L68.9898 25.4085C68.9898 25.4085 71.5474 27.6887 73.5803 29.969C74.9062 31.5608 75.8483 33.4327 76.3347 35.4416C76.3347 35.4416 74.105 40.7839 61.5793 43.6505C49.0536 46.5171 27.4779 45.4747 27.4779 45.4747C27.4779 45.4747 28.855 51.4685 22.8873 57.3971C21.2737 59.1565 19.3094 60.5631 17.1192 61.5277C14.9289 62.4923 12.5606 62.9937 10.1648 63Z" fill="#7699FF"/>
<path d="M38.6256 37.1351C44.6741 37.1351 49.5774 32.2639 49.5774 26.255C49.5774 20.2462 44.6741 15.375 38.6256 15.375C32.5771 15.375 27.6738 20.2462 27.6738 26.255C27.6738 32.2639 32.5771 37.1351 38.6256 37.1351Z" fill="#1D1D1B"/>
<path opacity="0.1" d="M47.151 25.9944C46.9748 27.3053 46.5287 28.5661 45.8404 29.6982C45.1522 30.8303 44.2365 31.8094 43.1506 32.5745C44.4783 31.229 45.3299 29.4913 45.5771 27.6231C45.7122 26.7631 45.6751 25.885 45.4679 25.0392C45.2607 24.1935 44.8875 23.3967 44.3696 22.6945C43.8517 21.9924 43.1994 21.3987 42.45 20.9476C41.7006 20.4965 40.869 20.1968 40.0028 20.0657C39.6118 20.0116 39.217 19.9898 38.8224 20.0006C36.7148 20.0585 34.696 20.8556 33.1235 22.2508C31.551 23.6461 30.5265 25.5492 30.2314 27.6231C30.1769 27.9897 30.155 28.3603 30.1659 28.7307C29.9589 27.8115 29.9145 26.8635 30.0347 25.9292C30.3631 23.62 31.5057 21.5014 33.2589 19.9505C35.0122 18.3996 37.2625 17.517 39.6093 17.4597C41.572 17.4176 43.4721 18.1467 44.8966 19.4887C46.3211 20.8306 47.1548 22.6769 47.2166 24.6262C47.229 25.0833 47.2071 25.5406 47.151 25.9944Z" fill="white"/>
<path d="M42.364 17.8508C44.2658 18.4371 46.4299 20.3916 45.5118 22.1507C44.856 23.4537 42.823 21.3037 40.9212 20.7825C39.0194 20.2613 36.1995 20.2613 36.7241 18.8932C37.5766 16.9387 40.4621 17.2644 42.364 17.8508Z" fill="white"/>
<path d="M67.744 33.0314C63.3847 33.7372 58.9466 33.825 54.5625 33.292L57.7759 27.9497L60.5303 32.1845L63.6781 27.2982L67.2194 32.0542L69.1212 24.8877L73.7118 29.4482C74.1708 29.9042 74.6299 31.7936 67.744 33.0314Z" fill="#F76F60"/>
<path d="M105.005 41.1742C103.65 41.1692 102.32 40.8041 101.154 40.1168C99.9884 39.4295 99.0289 38.4449 98.375 37.2652V48.8619H96.3486C95.7463 48.8741 95.1476 48.7661 94.5881 48.5441C94.0286 48.3221 93.5196 47.9907 93.0915 47.5696C92.6633 47.1486 92.3247 46.6463 92.0956 46.0927C91.8666 45.5391 91.7518 44.9455 91.7581 44.347V28.4895C91.7581 19.7659 95.6928 13.7852 104.959 13.7852C111.957 13.7852 116.934 20.1308 116.934 26.7174C116.921 35.0762 112.685 41.1742 105.005 41.1742ZM103.903 19.5444C100.277 19.5444 98.2504 22.6586 98.2504 27.1735C98.2504 32.3855 100.834 35.4084 104.763 35.4084C107.956 35.4084 110.166 32.6005 110.166 28.3918C110.173 22.2025 108.081 19.5444 103.903 19.5444Z" fill="white"/>
<path d="M130.916 30.2551H126.621C127.112 33.5517 130.123 35.6235 133.992 35.6235C136.753 35.6235 139.946 35.0762 142.032 33.1217H142.307V35.1349C142.307 38.4901 140.032 41.057 132.785 41.057C131.059 41.0531 129.35 40.7072 127.76 40.0395C126.17 39.3719 124.73 38.3959 123.524 37.1686C122.318 35.9414 121.37 34.4876 120.736 32.8922C120.103 31.2968 119.796 29.5919 119.833 27.8772C119.833 19.1536 125.237 13.668 132.726 13.668C138.189 13.668 143.284 17.577 143.284 23.7923C143.324 28.7306 139.638 30.2551 130.916 30.2551ZM132.149 19.2187C128.955 19.2187 126.745 21.7791 126.621 24.8282L126.568 25.6816H129.513C135.717 25.6816 137.127 25.0301 137.127 23.1799C137.12 20.4957 135.218 19.2187 132.149 19.2187Z" fill="white"/>
<path d="M157.259 30.2551H152.964C153.456 33.5517 156.459 35.6235 160.329 35.6235C163.096 35.6235 166.283 35.0762 168.375 33.1217H168.618V35.1349C168.618 38.4901 166.349 41.057 159.102 41.057C157.375 41.0539 155.666 40.7087 154.075 40.0414C152.484 39.3741 151.043 38.3983 149.837 37.171C148.63 35.9436 147.682 34.4895 147.048 32.8937C146.413 31.2979 146.106 29.5924 146.144 27.8772C146.144 19.1536 151.547 13.668 159.043 13.668C164.506 13.668 169.602 17.577 169.602 23.7923C169.602 28.7306 165.982 30.2551 157.259 30.2551ZM158.486 19.2187C155.299 19.2187 153.082 21.7791 152.964 24.8282L152.898 25.6816H155.849C162.047 25.6816 163.463 25.0301 163.463 23.1799C163.463 20.4957 161.496 19.2187 158.486 19.2187Z" fill="white"/>
<path d="M188.639 20.6785C187.434 20.1662 186.139 19.8982 184.829 19.8901C181.884 19.8901 180.284 21.4733 180.284 25.4996V40.5687H178.507C175.556 40.5687 173.713 39.1029 173.713 36.3601V24.3399C173.713 19.1279 176.48 14.0918 183.478 14.0918C187.53 14.0918 188.94 16.3525 188.94 18.3656V20.6785H188.639Z" fill="white"/>
<path d="M204.607 40.9921H203.256C196.993 40.9921 192.691 37.5196 192.691 32.6985C192.691 28.0598 196.134 24.4636 205.775 24.4636H208.044V24.1052C208.044 20.3852 206.266 19.2841 202.397 19.2841C197.669 19.2841 195.026 21.0562 194.042 22.2745H193.8V20.1962C193.8 17.271 196.423 13.792 203.381 13.792C209.283 13.792 214.529 16.5413 214.529 25.5646V31.5975C214.608 37.1352 210.509 40.9921 204.607 40.9921ZM208.168 29.1609H205.834C200.863 29.1609 199.446 30.3205 199.446 32.4509C199.446 34.4641 201.105 35.7084 203.991 35.7084C206.876 35.7084 208.168 34.3663 208.168 31.6822V29.1609Z" fill="#7699FF"/>
<path d="M239.292 40.5683C236.341 40.5683 234.504 38.7376 234.504 36.2945V25.9291C234.504 21.5315 232.537 19.5835 229.16 19.5835C226.333 19.5835 224.372 21.7205 224.372 25.447V40.627H222.405C219.644 40.627 217.814 38.7963 217.814 36.3597V24.9519C217.814 19.4011 221.5 13.7266 229.724 13.7266C235.928 13.7266 241.082 17.8766 241.082 25.3167V40.5683H239.292Z" fill="#7699FF"/>
<path d="M266.797 40.5685C264.036 40.5685 262.377 39.044 262.377 36.1774V25.4993C262.377 21.232 260.042 19.5185 257.13 19.5185C255.104 19.5185 252.402 21.0496 252.402 25.6817V40.5685H250.192C247.123 40.5685 245.713 38.855 245.713 36.1774V1.9541H247.739C250.867 1.9541 252.402 3.72618 252.402 6.16279V17.323C253.386 15.7985 255.681 13.8505 258.114 13.8505C264.928 13.8505 268.922 17.8767 268.922 25.3169V40.6857H266.771L266.797 40.5685Z" fill="#7699FF"/>
<path d="M284.05 40.9921H282.699C276.436 40.9921 272.141 37.5196 272.141 32.6985C272.141 28.0598 275.577 24.4636 285.217 24.4636H287.493V24.1052C287.493 20.3852 285.709 19.2841 281.84 19.2841C277.112 19.2841 274.475 21.0562 273.492 22.2745H273.242V20.1962C273.242 17.271 275.866 13.792 282.824 13.792C288.726 13.792 293.972 16.5413 293.972 25.5646V31.5975C293.998 37.1352 289.86 40.9921 284.05 40.9921ZM287.611 29.1609H285.27C280.292 29.1609 278.882 30.3205 278.882 32.4509C278.882 34.4641 280.541 35.7084 283.427 35.7084C286.312 35.7084 287.663 34.3663 287.663 31.6822V29.1609H287.611Z" fill="#7699FF"/>
</svg>
