<?xml version="1.0" standalone="no"?>
<!DOCTYPE svg PUBLIC "-//W3C//DTD SVG 20010904//EN"
 "http://www.w3.org/TR/2001/REC-SVG-20010904/DTD/svg10.dtd">
<svg version="1.0" xmlns="http://www.w3.org/2000/svg"
 width="90.000000pt" height="90.000000pt" viewBox="0 0 90.000000 90.000000"
 preserveAspectRatio="xMidYMid meet">
<metadata>
Created by potrace 1.16, written by Peter Selinger 2001-2019
</metadata>
<g transform="translate(0.000000,90.000000) scale(0.100000,-0.100000)"
 stroke="none">
<path d="M377 792 c-33 -33 -47 -56 -47 -75 0 -25 3 -27 45 -27 l45 0 0 -315
0 -315 29 0 c17 0 31 6 35 16 3 9 6 150 6 315 l0 299 40 0 c37 0 40 2 40 28 0
20 -13 41 -48 75 -62 61 -84 61 -145 -1z" fill="purple"/>
<path d="M167 582 c-33 -33 -47 -56 -47 -75 0 -25 3 -27 45 -27 l45 0 0 -130
c0 -183 -13 -209 -112 -225 -34 -5 -38 -9 -38 -35 0 -29 2 -30 45 -30 85 0
144 41 164 115 6 22 11 100 11 173 l0 132 40 0 c37 0 40 2 40 28 0 20 -13 41
-48 75 -62 61 -84 61 -145 -1z" fill="gold"/>
<path d="M587 582 c-33 -33 -47 -56 -47 -75 0 -25 3 -27 45 -27 l45 0 0 -159
c0 -148 1 -160 23 -192 12 -19 38 -42 57 -51 44 -23 126 -24 134 -3 12 33 -15
55 -72 55 -13 0 -34 11 -47 25 -24 23 -25 28 -25 175 l0 150 40 0 c37 0 40 2
40 28 0 20 -13 41 -48 75 -62 61 -84 61 -145 -1z" fill="gold"/>
</g>
</svg>
