<?xml version="1.0" encoding="UTF-8"?>
<!DOCTYPE svg PUBLIC "-//W3C//DTD SVG 1.1//EN" "http://www.w3.org/Graphics/SVG/1.1/DTD/svg11.dtd">
<svg xmlns="http://www.w3.org/2000/svg" version="1.1" width="100px" height="100px" style="shape-rendering:geometricPrecision; text-rendering:geometricPrecision; image-rendering:optimizeQuality; fill-rule:evenodd; clip-rule:evenodd" xmlns:xlink="http://www.w3.org/1999/xlink">
<g><path style="opacity:0.841" fill="blue" d="M 70.5,7.5 C 81.5812,10.915 88.5812,18.2484 91.5,29.5C 81.4182,33.0288 71.4182,36.8621 61.5,41C 59.5527,41.9913 57.5527,42.3247 55.5,42C 60.4056,30.4466 65.4056,18.9466 70.5,7.5 Z M 73.5,18.5 C 77.159,19.3146 79.8256,21.4813 81.5,25C 77.7931,26.4023 74.1264,27.9023 70.5,29.5C 70.1667,29.1667 69.8333,28.8333 69.5,28.5C 71.0355,25.2225 72.3689,21.8891 73.5,18.5 Z"/></g>
<g><path style="opacity:0.842" fill="darkblue" d="M 40.5,20.5 C 46.6072,20.9436 52.6072,21.9436 58.5,23.5C 55.4293,32.705 51.7626,41.705 47.5,50.5C 47.8333,50.8333 48.1667,51.1667 48.5,51.5C 56.9605,48.0687 65.4605,44.7353 74,41.5C 75.7351,42.6819 76.7351,44.3485 77,46.5C 80.8475,69.3047 71.6808,83.8047 49.5,90C 30.3146,92.1263 17.1479,84.293 10,66.5C 5.6878,41.3473 15.8545,26.0139 40.5,20.5 Z M 36.5,28.5 C 40.5546,28.1758 44.5546,28.5091 48.5,29.5C 43.3232,41.4975 38.4899,53.4975 34,65.5C 45.9898,60.3373 58.1565,55.6707 70.5,51.5C 70.8728,70.124 61.8728,80.7906 43.5,83.5C 24.4534,81.2887 15.2867,70.6221 16,51.5C 18.8169,40.1866 25.6503,32.5199 36.5,28.5 Z"/></g>
</svg>
