<?xml version="1.0" encoding="UTF-8"?>
<!DOCTYPE svg PUBLIC "-//W3C//DTD SVG 1.1//EN" "http://www.w3.org/Graphics/SVG/1.1/DTD/svg11.dtd">
<svg xmlns="http://www.w3.org/2000/svg" version="1.1" width="100px" height="100px" style="shape-rendering:geometricPrecision; text-rendering:geometricPrecision; image-rendering:optimizeQuality; fill-rule:evenodd; clip-rule:evenodd" xmlns:xlink="http://www.w3.org/1999/xlink">
<g><path style="opacity:0.935" fill="green" d="M 10.5,12.5 C 36.5021,12.3334 62.5021,12.5 88.5,13C 89.1667,14 89.8333,15 90.5,16C 89.6634,17.0113 89.33,18.1779 89.5,19.5C 62.8333,19.5 36.1667,19.5 9.5,19.5C 9.66997,18.1779 9.33663,17.0113 8.5,16C 9.30501,14.8873 9.97168,13.7206 10.5,12.5 Z"/></g>
<g><path style="opacity:0.864" fill="green" d="M 10.5,25.5 C 36.5021,25.3334 62.5021,25.5 88.5,26C 90.6667,26.8333 92.1667,28.3333 93,30.5C 93.4995,36.4908 93.6662,42.4908 93.5,48.5C 90.7938,48.4249 88.1272,48.0916 85.5,47.5C 85.5,44.8333 85.5,42.1667 85.5,39.5C 81.5,39.5 79.5,37.5 79.5,33.5C 59.5,33.5 39.5,33.5 19.5,33.5C 19.5,37.5 17.5,39.5 13.5,39.5C 13.1686,48.1922 13.502,56.8589 14.5,65.5C 18.1477,66.4732 19.8143,68.8065 19.5,72.5C 28.8333,72.5 38.1667,72.5 47.5,72.5C 47.3184,74.5914 47.6518,76.5914 48.5,78.5C 35.1792,79.666 21.8458,79.8327 8.5,79C 8,78.5 7.5,78 7,77.5C 5.36507,61.9258 5.03174,46.2591 6,30.5C 7.02496,28.313 8.52496,26.6464 10.5,25.5 Z"/></g>
<g><path style="opacity:0.883" fill="green" d="M 44.5,39.5 C 52.1863,37.6806 57.853,40.1806 61.5,47C 57.0224,49.089 52.5224,51.2556 48,53.5C 46.6326,57.6996 46.1326,62.0329 46.5,66.5C 38.8108,66.4704 35.1441,62.4704 35.5,54.5C 35.7055,47.7456 38.7055,42.7456 44.5,39.5 Z"/></g>
<g><path style="opacity:0.757" fill="green" d="M 20.5,49.5 C 26.1581,48.6794 27.8248,50.846 25.5,56C 19.741,57.1387 18.0744,54.972 20.5,49.5 Z"/></g>
<g><path style="opacity:0.957" fill="gold" d="M 99.5,57.5 C 99.5,64.1667 99.5,70.8333 99.5,77.5C 95.5882,87.3134 88.9215,94.6467 79.5,99.5C 77.1667,99.5 74.8333,99.5 72.5,99.5C 62.9568,94.4535 56.4568,86.7868 53,76.5C 52.3333,70.5 52.3333,64.5 53,58.5C 53.8333,57.6667 54.6667,56.8333 55.5,56C 70.423,50.9344 85.0896,51.4344 99.5,57.5 Z"/></g>
</svg>
