<svg width="186" height="32" transform="scale(0.5)" viewBox="0 0 186 32" fill="none" xmlns="http://www.w3.org/2000/svg">
<path d="M14.6012 4.07678V29.8981C14.6083 30.171 14.5594 30.4424 14.4574 30.6957C14.3554 30.949 14.2026 31.1787 14.0082 31.3707C13.8237 31.5615 13.602 31.7124 13.3567 31.8143C13.1114 31.9161 12.8479 31.9666 12.5823 31.9627C12.3097 31.9683 12.0388 31.9186 11.7859 31.8167C11.5331 31.7148 11.3036 31.5628 11.1113 31.3698C10.919 31.1768 10.7678 30.9469 10.667 30.6939C10.5662 30.441 10.5179 30.1703 10.5248 29.8981V4.07678H2.06539C1.79636 4.07927 1.52953 4.02819 1.28049 3.92655C1.03146 3.82491 0.805209 3.67473 0.614962 3.48479C0.418489 3.30423 0.262253 3.08442 0.156402 2.83964C0.0505505 2.59487 -0.00254953 2.3306 0.000550553 2.064C-0.00596242 1.78972 0.0453729 1.51714 0.151223 1.26395C0.257074 1.01076 0.415073 0.782634 0.614962 0.594375C0.805209 0.404437 1.03146 0.254259 1.28049 0.152615C1.52953 0.0509699 1.79636 -0.000102924 2.06539 0.00237994H23.1088C23.3778 -0.000102924 23.6446 0.0509699 23.8937 0.152615C24.1427 0.254259 24.369 0.404437 24.5592 0.594375C24.7595 0.78297 24.9177 1.01158 25.0236 1.26531C25.1294 1.51903 25.1805 1.79219 25.1736 2.06696C25.1771 2.33406 25.1242 2.59889 25.0184 2.84421C24.9125 3.08953 24.7561 3.30981 24.5592 3.49071C24.369 3.68065 24.1427 3.83083 23.8937 3.93247C23.6446 4.03411 23.3778 4.08519 23.1088 4.0827L14.6012 4.07678ZM61.6381 30.9289C61.7993 31.2022 62.0205 31.4353 62.285 31.6109C62.5495 31.7865 62.8504 31.8999 63.1652 31.9427C63.4799 31.9854 63.8003 31.9563 64.1021 31.8577C64.404 31.759 64.6795 31.5932 64.908 31.3729C65.1049 31.192 65.2613 30.9717 65.3672 30.7264C65.473 30.4811 65.5259 30.2163 65.5224 29.9492C65.5183 29.6648 65.4683 29.3829 65.3742 29.1145C65.3085 29.0489 60.5557 19.7054 51.116 1.08425C50.9862 0.751742 50.755 0.468384 50.4551 0.274242C50.1552 0.0801002 49.8017 -0.0150028 49.4447 0.00237994C49.0748 -0.0169761 48.7083 0.0821296 48.3988 0.285253C48.0892 0.488377 47.8527 0.784901 47.7238 1.13161L33.5152 29.113C33.3849 29.3719 33.3176 29.6579 33.3188 29.9477C33.3153 30.2148 33.3682 30.4796 33.4741 30.7249C33.5799 30.9703 33.7364 31.1905 33.9332 31.3714C34.1235 31.5613 34.3498 31.7115 34.5988 31.8131C34.8478 31.9148 35.1146 31.9659 35.3837 31.9634H48.9044C49.17 31.9674 49.4336 31.9168 49.6788 31.815C49.9241 31.7132 50.1459 31.5622 50.3304 31.3714C50.5247 31.1794 50.6776 30.9497 50.7796 30.6965C50.8815 30.4432 50.9305 30.1717 50.9233 29.8989C50.9235 29.6345 50.8715 29.3727 50.7702 29.1284C50.669 28.8841 50.5205 28.6621 50.3333 28.4752C50.146 28.2882 49.9237 28.14 49.6791 28.0389C49.4344 27.9378 49.1722 27.8859 48.9074 27.8861H38.727L49.4447 6.82586L61.6381 30.9289ZM82.6829 0.00237994C82.4135 -0.000398913 82.1463 0.05053 81.8968 0.152183C81.6474 0.253836 81.4208 0.404169 81.2303 0.594375C81.03 0.78297 80.8718 1.01158 80.7659 1.26531C80.6601 1.51903 80.6089 1.79219 80.6159 2.06696V29.8981C80.6089 30.1729 80.6601 30.446 80.7659 30.6998C80.8718 30.9535 81.03 31.1821 81.2303 31.3707C81.618 31.749 82.1386 31.9608 82.6807 31.9608C83.2228 31.9608 83.7434 31.749 84.1311 31.3707C84.3314 31.1821 84.4896 30.9535 84.5955 30.6998C84.7013 30.446 84.7525 30.1729 84.7455 29.8981V2.064C84.7523 1.78988 84.7014 1.5174 84.5959 1.26422C84.4904 1.01105 84.3328 0.78283 84.1334 0.594375C83.9431 0.404437 83.7169 0.254259 83.4678 0.152615C83.2188 0.0509699 82.952 -0.000102924 82.6829 0.00237994ZM123.259 0.00829989C122.985 -0.0140505 122.709 0.02158 122.449 0.11287C122.189 0.20416 121.952 0.349062 121.752 0.538135L104.112 16.3836V2.09804C104.119 1.82328 104.068 1.55015 103.962 1.29644C103.856 1.04273 103.698 0.814107 103.498 0.625455C103.11 0.247144 102.59 0.0353364 102.048 0.0353364C101.506 0.0353364 100.985 0.247144 100.597 0.625455C100.397 0.814107 100.239 1.04273 100.133 1.29644C100.027 1.55015 99.976 1.82328 99.9828 2.09804V29.9322C99.9759 30.2069 100.027 30.4801 100.133 30.7338C100.239 30.9875 100.397 31.2161 100.597 31.4047C100.985 31.7831 101.506 31.9949 102.048 31.9949C102.59 31.9949 103.11 31.7831 103.498 31.4047C103.698 31.2161 103.856 30.9875 103.962 30.7338C104.068 30.4801 104.119 30.2069 104.112 29.9322V21.9402L108.31 18.1663L121.665 31.4033C121.693 31.464 121.734 31.5176 121.785 31.5602C121.836 31.6028 121.897 31.6331 121.962 31.6489C122.352 31.9101 122.82 32.0314 123.289 31.993C123.774 31.9625 124.23 31.7512 124.567 31.401C124.759 31.2273 124.914 31.0153 125.02 30.7785C125.126 30.5417 125.181 30.2855 125.182 30.0261C125.195 29.7662 125.156 29.5063 125.067 29.2617C124.978 29.0171 124.841 28.7929 124.663 28.6024L124.515 28.4544L111.395 15.4009L124.513 3.60171C124.722 3.42292 124.891 3.20215 125.009 2.95379C125.127 2.70542 125.192 2.43502 125.198 2.1602C125.212 1.89231 125.172 1.62434 125.082 1.37189C124.991 1.11945 124.85 0.887589 124.669 0.689834C124.491 0.488581 124.275 0.324675 124.033 0.207665C123.791 0.0906562 123.528 0.0228846 123.26 0.00829989H123.259ZM183.223 0.00237994C182.953 -0.000102924 182.687 0.0509699 182.438 0.152615C182.189 0.254259 181.962 0.404437 181.772 0.594375C181.572 0.78297 181.414 1.01158 181.308 1.26531C181.202 1.51903 181.151 1.79219 181.158 2.06696V29.8981C181.151 30.1729 181.202 30.446 181.308 30.6998C181.414 30.9535 181.572 31.1821 181.772 31.3707C182.16 31.749 182.68 31.9608 183.223 31.9608C183.765 31.9608 184.285 31.749 184.673 31.3707C184.873 31.1821 185.031 30.9535 185.137 30.6998C185.243 30.446 185.294 30.1729 185.287 29.8981V2.064C185.294 1.78972 185.243 1.51714 185.137 1.26395C185.031 1.01076 184.873 0.782634 184.673 0.594375C184.483 0.404404 184.256 0.254204 184.007 0.152557C183.758 0.0509097 183.492 -0.000144256 183.223 0.00237994ZM162.174 30.9289C162.335 31.202 162.556 31.4351 162.821 31.6106C163.085 31.7861 163.386 31.8995 163.701 31.9422C164.015 31.9849 164.336 31.9559 164.637 31.8573C164.939 31.7587 165.215 31.5931 165.443 31.3729C165.64 31.192 165.796 30.9717 165.902 30.7264C166.008 30.4811 166.061 30.2163 166.058 29.9492C166.053 29.6648 166.003 29.3829 165.909 29.1145C165.844 29.0489 161.091 19.7054 151.651 1.08425C151.521 0.751617 151.29 0.468172 150.99 0.274019C150.69 0.0798668 150.336 -0.0151615 149.979 0.00237994C149.609 -0.0169761 149.243 0.0821296 148.933 0.285253C148.624 0.488377 148.387 0.784901 148.258 1.13161L134.049 29.113C133.919 29.3719 133.851 29.6579 133.852 29.9477C133.849 30.2148 133.902 30.4796 134.008 30.7249C134.114 30.9703 134.27 31.1905 134.467 31.3714C134.657 31.5614 134.883 31.7116 135.132 31.8132C135.381 31.9149 135.648 31.9659 135.917 31.9634H149.438C149.704 31.9673 149.967 31.9168 150.212 31.8149C150.458 31.7131 150.679 31.5622 150.864 31.3714C151.058 31.1794 151.211 30.9497 151.313 30.6965C151.415 30.4432 151.464 30.1717 151.457 29.8989C151.457 29.6345 151.405 29.3727 151.304 29.1284C151.203 28.8841 151.054 28.6621 150.867 28.4752C150.68 28.2882 150.457 28.14 150.213 28.0389C149.968 27.9378 149.706 27.8859 149.441 27.8861H139.262L149.979 6.82586L162.174 30.9289Z" fill="white"/>
</svg>
