<?xml version="1.0" standalone="no"?>
<!DOCTYPE svg PUBLIC "-//W3C//DTD SVG 20010904//EN"
 "http://www.w3.org/TR/2001/REC-SVG-20010904/DTD/svg10.dtd">
<svg version="1.0" xmlns="http://www.w3.org/2000/svg"
 width="256.000000pt" height="256.000000pt" viewBox="0 0 256.000000 256.000000"
 preserveAspectRatio="xMidYMid meet">

<g transform="translate(0.000000,256.000000) scale(0.100000,-0.100000)"
fill="#000000" stroke="none">
<path d="M1140 2549 c-123 -16 -298 -67 -403 -117 -140 -67 -256 -152 -365
-268 -112 -120 -150 -187 -150 -264 1 -30 5 -61 11 -67 5 -7 6 -13 1 -13 -11
0 -12 -100 -1 -117 4 -6 2 -15 -4 -19 -8 -5 -7 -9 2 -14 10 -7 10 -12 0 -23
-8 -10 -9 -17 -1 -22 16 -10 12 -35 -6 -35 -9 0 -12 -5 -8 -12 4 -7 9 -26 10
-43 1 -16 2 -30 3 -30 1 0 3 -26 4 -58 1 -41 -3 -61 -13 -69 -13 -8 -13 -9 1
-5 12 4 15 0 11 -19 -3 -15 0 -24 8 -24 9 0 10 -3 1 -13 -8 -10 -7 -17 1 -25
9 -9 9 -12 0 -12 -9 0 -10 -5 -2 -19 7 -14 6 -21 -3 -24 -9 -3 -9 -7 1 -20 11
-13 10 -16 -5 -20 -16 -4 -16 -5 2 -6 14 -1 16 -4 7 -9 -9 -7 -10 -15 -3 -35
7 -17 7 -28 0 -32 -5 -4 -6 -12 -2 -18 11 -17 11 -91 0 -98 -5 -4 -4 -15 4
-27 10 -16 10 -23 0 -35 -9 -12 -9 -16 1 -20 8 -3 8 -6 2 -6 -8 -1 -9 -14 -2
-48 8 -33 7 -48 0 -51 -8 -2 -8 -9 0 -22 9 -14 9 -22 -1 -34 -8 -9 -9 -16 -4
-16 11 0 10 -61 -1 -79 -4 -6 -2 -11 5 -11 9 0 10 -3 2 -11 -15 -15 1 -81 33
-130 37 -59 209 -228 286 -281 230 -159 565 -248 825 -219 469 52 846 314
1044 724 171 357 166 766 -15 1125 -162 320 -466 566 -810 652 -185 47 -319
58 -466 39z m534 -555 c89 -5 101 -9 122 -32 33 -35 30 -66 -17 -186 l-41
-103 55 -94 c30 -52 80 -138 112 -192 81 -140 80 -137 55 -264 -34 -168 -54
-192 -178 -218 -42 -9 -84 -19 -93 -21 -8 -2 -29 -22 -45 -44 -40 -55 -172
-143 -279 -186 -49 -20 -163 -53 -254 -74 -232 -53 -245 -54 -295 -10 -27 24
-38 46 -55 109 -12 43 -32 111 -46 151 -42 122 -59 233 -58 375 0 109 3 139
21 186 l22 55 -25 74 c-29 86 -31 136 -9 182 21 42 165 167 213 184 27 10 88
12 256 8 l220 -6 33 52 c39 61 59 71 132 65 30 -2 100 -7 154 -11z"/>
<path d="M1466 1828 c-17 -26 -41 -52 -54 -57 -14 -7 -115 -11 -262 -11 l-239
0 -65 -57 c-36 -32 -66 -63 -66 -70 0 -7 15 -54 34 -106 l34 -93 -30 -60 c-29
-59 -29 -59 -25 -204 3 -106 10 -164 25 -215 12 -38 35 -117 51 -174 17 -57
33 -106 35 -109 9 -9 359 79 425 107 120 51 228 135 246 190 7 24 17 28 135
52 52 11 97 23 101 27 4 4 14 45 22 92 15 84 15 86 -7 125 -13 22 -64 112
-115 200 -51 88 -95 175 -98 193 -4 23 4 58 27 117 18 47 31 87 29 89 -2 2
-42 6 -88 8 l-84 3 -31 -47z"/>
</g>
</svg>
