<svg
    xmlns="http://www.w3.org/2000/svg"
    width={341.333}
    height={341.333}
    viewBox="0 0 256 256"
    
  >
    <path d="M104.5 1.5C91 4 84.4 6.2 73.2 11.6 67 14.6 61.5 17 60.9 17c-.5 0-.9.4-.9.9s-2.2 2.3-4.8 3.9c-2.6 1.6-6.3 4.3-8.2 6.1-1.9 1.7-4 2.9-4.7 2.7-1.3-.5-2.6.9-3 3.4-.2 1.9-5.2 6.2-6.3 5.5-.4-.3-1.4.3-2.1 1.2-1 1.2-1 1.4-.1.9 2.5-1.5 1.1 1.1-3.3 5.9-2.5 2.8-4.5 5.6-4.5 6.2 0 .7-.4 1.3-.9 1.3s-1.1.7-1.5 1.5c-.4 1.3-.2 1.3 1.4.5 1-.5 2.1-1.9 2.5-2.9.3-1.1 1.2-2.4 2-3.1.8-.6.1 1.2-1.5 4.2-2.2 4.1-2.8 6.6-2.8 10.8.1 3 .5 6.1 1.1 6.7.5.7.6 1.3.1 1.3-1.1 0-1.2 10-.1 11.7.4.6.2 1.5-.4 1.9-.8.5-.7.9.2 1.4 1 .7 1 1.2 0 2.3-.8 1-.9 1.7-.1 2.2 1.6 1 1.2 3.5-.6 3.5-.9 0-1.2.5-.8 1.2.4.7.9 2.6 1 4.3.1 1.6.2 3 .3 3 .1 0 .3 2.6.4 5.8.1 4.1-.3 6.1-1.3 6.9-1.3.8-1.3.9.1.5 1.2-.4 1.5 0 1.1 1.9-.3 1.5 0 2.4.8 2.4.9 0 1 .3.1 1.3-.8 1-.7 1.7.1 2.5.9.9.9 1.2 0 1.2s-1 .5-.2 1.9c.7 1.4.6 2.1-.3 2.4-.9.3-.9.7.1 2 1.1 1.3 1 1.6-.5 2-1.6.4-1.6.5.2.6 1.4.1 1.6.4.7.9-.9.7-1 1.5-.3 3.5.7 1.7.7 2.8 0 3.2-.5.4-.6 1.2-.2 1.8 1.1 1.7 1.1 9.1 0 9.8-.5.4-.4 1.5.4 2.7 1 1.6 1 2.3 0 3.5-.9 1.2-.9 1.6.1 2 .8.3.8.6.2.6-.8.1-.9 1.4-.2 4.8.8 3.3.7 4.8 0 5.1-.8.2-.8.9 0 2.2.9 1.4.9 2.2-.1 3.4-.8.9-.9 1.6-.4 1.6 1.1 0 1 6.1-.1 7.9-.4.6-.2 1.1.5 1.1.9 0 1 .3.2 1.1-1.2 1.2.1 8.4 1.8 10.6.6.6 1.2 2.3 1.3 3.7.2 1.3 1.1 3.2 2 4.2.9.9 1.5 2.3 1.2 3-.5 1.4.9 2.7 3.3 3.1 1.8.2 5.2 3.6 5.4 5.4.4 2.4 1.7 3.8 3 3.3.7-.2 2.8 1 4.7 2.7 1.9 1.8 5.6 4.5 8.2 6.1 2.6 1.6 4.8 3.4 4.8 3.9s.4.9.9.9c.6 0 6.1 2.5 12.3 5.5 16.7 8 28 10.6 49.6 11.2 25.6.8 40.9-2.1 60-11.3 6.2-3 11.7-5.4 12.3-5.4.5 0 .9-.4.9-.9s2.2-2.3 4.8-3.9c2.6-1.6 6.3-4.3 8.2-6.1 1.9-1.7 4-2.9 4.7-2.7 1.3.5 2.6-.9 3-3.3.2-1.8 3.6-5.2 5.4-5.4 2.4-.4 3.8-1.7 3.4-3-.3-.7 1.1-3 3.1-5.2s4.7-5.9 6.1-8.3c1.4-2.3 2.9-4.2 3.4-4.2s.9-.4.9-.9c0-.6 2.5-6.1 5.5-12.3 8-16.7 10.6-28 11.2-49.6.8-25.6-2.1-40.9-11.3-60-3-6.2-5.4-11.7-5.4-12.3 0-.5-.4-.9-.9-.9s-2.3-2.2-3.9-4.8c-1.6-2.6-4.3-6.3-6.1-8.2-1.7-1.9-2.9-4-2.7-4.7.5-1.3-.9-2.6-3.3-3-1.8-.2-5.2-3.6-5.4-5.4-.4-2.4-1.7-3.8-3-3.4-.7.3-3-1.1-5.2-3.1s-5.9-4.7-8.2-6.1c-2.4-1.4-4.3-2.9-4.3-3.4s-.4-.9-.9-.9c-.6 0-6.1-2.5-12.3-5.5C165.2 3 154.9.8 131 .4c-13.5-.2-21.7.1-26.5 1.1zm62.9 55.1c8.9.5 10.1.9 12.2 3.2 3.3 3.5 3 6.6-1.7 18.6l-4.1 10.3 5.5 9.4c3 5.2 8 13.8 11.2 19.2 8.1 14 8 13.7 5.5 26.4-3.4 16.8-5.4 19.2-17.8 21.8-4.2.9-8.4 1.9-9.3 2.1-.8.2-2.9 2.2-4.5 4.4-4 5.5-17.2 14.3-27.9 18.6-4.9 2-16.3 5.3-25.4 7.4-23.2 5.3-24.5 5.4-29.5 1-2.7-2.4-3.8-4.6-5.5-10.9-1.2-4.3-3.2-11.1-4.6-15.1-4.2-12.2-5.9-23.3-5.8-37.5 0-10.9.3-13.9 2.1-18.6l2.2-5.5-2.5-7.4c-2.9-8.6-3.1-13.6-.9-18.2 2.1-4.2 16.5-16.7 21.3-18.4 2.7-1 8.8-1.2 25.6-.8l22 .6 3.3-5.2c3.9-6.1 5.9-7.1 13.2-6.5 3 .2 10 .7 15.4 1.1z" />
    <path d="M146.6 73.2c-1.7 2.6-4.1 5.2-5.4 5.7-1.4.7-11.5 1.1-26.2 1.1H91.1l-6.5 5.7C81 88.9 78 92 78 92.7c0 .7 1.5 5.4 3.4 10.6l3.4 9.3-3 6c-2.9 5.9-2.9 5.9-2.5 20.4.3 10.6 1 16.4 2.5 21.5 1.2 3.8 3.5 11.7 5.1 17.4 1.7 5.7 3.3 10.6 3.5 10.9.9.9 35.9-7.9 42.5-10.7 12-5.1 22.8-13.5 24.6-19 .7-2.4 1.7-2.8 13.5-5.2 5.2-1.1 9.7-2.3 10.1-2.7.4-.4 1.4-4.5 2.2-9.2 1.5-8.4 1.5-8.6-.7-12.5-1.3-2.2-6.4-11.2-11.5-20s-9.5-17.5-9.8-19.3c-.4-2.3.4-5.8 2.7-11.7 1.8-4.7 3.1-8.7 2.9-8.9-.2-.2-4.2-.6-8.8-.8l-8.4-.3-3.1 4.7z" />
  </svg>