<?xml version="1.0" standalone="no"?>
<!DOCTYPE svg PUBLIC "-//W3C//DTD SVG 20010904//EN"
 "http://www.w3.org/TR/2001/REC-SVG-20010904/DTD/svg10.dtd">
<svg version="1.0" xmlns="http://www.w3.org/2000/svg"
 width="90.000000pt" height="90.000000pt" viewBox="0 0 90.000000 90.000000"
 preserveAspectRatio="xMidYMid meet">

<g transform="translate(0.000000,90.000000) scale(0.100000,-0.100000)"
fill="#000000" stroke="none">
<path d="M295 797 c-109 -37 -186 -103 -232 -202 -24 -51 -28 -73 -28 -145 0
-72 4 -94 28 -146 56 -121 175 -202 310 -212 l70 -5 -7 28 c-4 16 -14 34 -22
39 -9 7 -16 41 -20 99 -9 118 -29 118 -37 0 -6 -90 -15 -110 -41 -100 -14 5
-16 31 -16 176 l0 171 -75 71 c-41 40 -75 78 -75 86 0 33 33 22 106 -36 67
-53 82 -61 119 -61 37 0 52 8 119 61 72 58 106 69 106 37 0 -8 -34 -47 -75
-88 l-75 -74 0 -80 0 -80 25 34 c52 71 147 115 232 108 l44 -3 -6 35 c-20 112
-104 218 -209 266 -71 32 -178 41 -241 21z m130 -72 c48 -47 19 -115 -50 -115
-40 0 -75 31 -75 67 0 32 43 73 75 73 14 0 37 -11 50 -25z" fill="aqua"/>
<path d="M670 406 c0 -20 -38 -30 -55 -16 -17 14 -35 5 -35 -19 0 -20 -37 -58
-47 -48 -3 4 -12 2 -20 -4 -10 -9 -10 -15 -2 -25 15 -18 3 -64 -16 -64 -8 0
-15 -9 -15 -20 0 -11 7 -20 15 -20 19 0 31 -46 16 -64 -8 -10 -8 -16 2 -25 8
-6 17 -8 20 -4 10 10 48 -29 43 -43 -7 -19 18 -36 32 -22 14 14 62 2 62 -17 0
-8 9 -15 20 -15 11 0 20 7 20 15 0 18 46 31 63 17 16 -13 42 1 32 18 -10 16
25 51 45 45 21 -7 35 22 21 39 -13 16 -2 56 15 56 8 0 14 9 14 20 0 11 -5 20
-10 20 -18 0 -34 48 -22 63 13 16 -1 43 -18 32 -16 -10 -51 25 -45 45 6 19
-20 36 -30 20 -11 -17 -44 -11 -57 10 -15 23 -48 27 -48 6z m80 -92 c37 -22
60 -64 60 -108 0 -27 -8 -46 -34 -74 -31 -33 -39 -37 -85 -37 -44 0 -55 4 -83
33 -28 28 -33 39 -33 81 0 39 5 55 25 76 43 47 100 58 150 29z" fill="yellow"/>
<path d="M666 224 c-9 -22 17 -49 39 -40 10 3 15 15 13 28 -4 29 -42 37 -52
12z"/>
</g>
</svg>
