<svg width="165" height="32" transform="scale(0.6)" viewBox="0 0 165 32" fill="none" xmlns="http://www.w3.org/2000/svg">
<path d="M16.0092 0C7.21607 0 0 7.21185 0 16C0 24.7881 7.216 32 16.0092 32C24.8025 32 32.0185 24.7881 32.0185 16C32.0185 7.21185 24.8025 0 16.0092 0Z" fill="#571AFF"/>
<path d="M25.1623 8.06368C25.1218 7.32254 24.5322 6.7332 23.7906 6.69281C22.2942 6.61107 19.3661 6.69052 16.5663 8.13782C15.1391 8.87571 13.6294 10.1267 12.4248 11.5702C12.41 11.588 12.3956 11.6058 12.3808 11.6237L9.64689 11.8347C9.19684 11.8695 8.79602 12.1052 8.54715 12.4815L6.68198 15.301C6.49319 15.5864 6.46324 15.9434 6.6016 16.2562C6.74008 16.5689 7.02463 16.787 7.36282 16.8394L9.66624 17.196C9.65806 17.2406 9.64996 17.2854 9.64242 17.3302C9.56574 17.7888 9.71769 18.2601 10.049 18.5912L13.2574 21.7977C13.5321 22.0723 13.9032 22.2236 14.2835 22.2236C14.3619 22.2236 14.4407 22.2172 14.519 22.2041C14.5637 22.1966 14.6085 22.1884 14.6533 22.1803L15.01 24.4824C15.0624 24.8204 15.2805 25.1048 15.5934 25.2432C15.7237 25.3007 15.8615 25.3292 15.9987 25.3292C16.1914 25.3292 16.3826 25.2731 16.5493 25.163L19.3705 23.2988C19.747 23.0501 19.9829 22.6493 20.0175 22.1996L20.2289 19.4674C20.2466 19.4527 20.2646 19.4382 20.2825 19.4234C21.7266 18.2195 22.9784 16.7107 23.7167 15.2841C25.1646 12.4855 25.2439 9.5591 25.1623 8.06368ZM18.7669 22.3866L16.0683 24.1696L15.7207 21.9262C16.8612 21.5911 17.9894 21.0542 19.0643 20.335L18.9267 22.1151C18.9182 22.2261 18.86 22.3251 18.7669 22.3866ZM14.0308 21.0245L10.8223 17.8178C10.7404 17.7361 10.7026 17.621 10.7211 17.5104C10.8165 16.9402 10.9647 16.3977 11.1482 15.8865L15.9622 20.6977C15.3478 20.9176 14.7977 21.0488 14.3384 21.1256C14.2275 21.144 14.1126 21.1064 14.0308 21.0245ZM9.73097 12.9248L11.512 12.7872C10.7924 13.8614 10.2553 14.989 9.91996 16.129L7.67522 15.7815L9.45944 13.0844C9.52092 12.9914 9.61988 12.9332 9.73097 12.9248ZM19.5815 18.5835C18.6979 19.32 17.8402 19.853 17.0497 20.2385L11.6087 14.8006C12.114 13.7691 12.7307 12.9103 13.2647 12.2704C14.3796 10.9347 15.7661 9.7823 17.0688 9.10893C19.6385 7.78056 22.3458 7.70903 23.731 7.78432C23.9143 7.79441 24.0602 7.94008 24.0702 8.12334C24.1458 9.50767 24.074 12.2135 22.7448 14.7817C22.071 16.0836 20.918 17.4693 19.5815 18.5835Z" fill="white"/>
<path d="M19.3049 15.2798C20.005 15.2798 20.7055 15.0134 21.2385 14.4806C21.7551 13.9645 22.0395 13.2782 22.0395 12.5481C22.0395 11.8182 21.7549 11.1319 21.2385 10.6156C20.1722 9.54994 18.4373 9.55007 17.3713 10.6156C16.8547 11.1319 16.5703 11.8182 16.5703 12.5481C16.5703 13.2782 16.8547 13.9645 17.3713 14.4806C17.9044 15.0135 18.6044 15.2799 19.3049 15.2798ZM18.1446 11.3886C18.4644 11.069 18.8846 10.909 19.3048 10.909C19.725 10.909 20.1451 11.069 20.465 11.3886C20.7749 11.6983 20.9455 12.1101 20.9455 12.5481C20.9455 12.9861 20.7749 13.3979 20.465 13.7077C19.8252 14.3471 18.7843 14.3469 18.1446 13.7077C17.8347 13.3979 17.664 12.9861 17.664 12.5481C17.664 12.1101 17.8348 11.6983 18.1446 11.3886Z" fill="white"/>
<path d="M7.07423 22.0469C7.21418 22.0469 7.35425 21.9935 7.461 21.8868L9.24669 20.102C9.46025 19.8886 9.46025 19.5425 9.24669 19.3291C9.03313 19.1156 8.68677 19.1156 8.4732 19.3291L6.68752 21.1138C6.47395 21.3272 6.47395 21.6733 6.68752 21.8868C6.79433 21.9935 6.93428 22.0469 7.07423 22.0469Z" fill="white"/>
<path d="M10.8824 20.9649C10.6689 20.7513 10.3226 20.7513 10.1089 20.9649L6.67584 24.3959C6.46222 24.6095 6.46222 24.9556 6.67584 25.169C6.78266 25.2756 6.92261 25.3291 7.06262 25.3291C7.20257 25.3291 7.34252 25.2756 7.44933 25.169L10.8824 21.7378C11.096 21.5244 11.096 21.1783 10.8824 20.9649Z" fill="white"/>
<path d="M11.7467 22.6006L9.961 24.3852C9.74737 24.5989 9.74737 24.9448 9.961 25.1583C10.0678 25.265 10.2078 25.3184 10.3478 25.3184C10.4877 25.3184 10.6277 25.265 10.7345 25.1583L12.5202 23.3736C12.7338 23.16 12.7338 22.8139 12.5202 22.6006C12.3066 22.3871 11.9603 22.3871 11.7467 22.6006Z" fill="white"/>
<path d="M51.0893 10.1564H47.0038V24.8255C47.0038 25.1028 46.7768 25.3296 46.4994 25.3296H43.1956C42.9182 25.3296 42.6912 25.1027 42.6912 24.8255V10.1564H38.5806C38.3031 10.1564 38.0762 9.95473 38.0762 9.67748V7.08142C38.0762 6.80417 38.3031 6.60254 38.5806 6.60254H51.0893C51.3667 6.60254 51.6189 6.80417 51.6189 7.08142V9.67748C51.6189 9.95467 51.3667 10.1564 51.0893 10.1564Z" fill="white"/>
<path d="M57.0649 19.1287H52.1723C51.8949 19.1287 51.668 18.9522 51.668 18.675V16.6586C51.668 16.3813 51.8949 16.1797 52.1723 16.1797H57.0649C57.3423 16.1797 57.5693 16.3813 57.5693 16.6586V18.675C57.5693 18.9522 57.3423 19.1287 57.0649 19.1287Z" fill="white"/>
<path d="M65.3119 25.5557C63.3196 25.5557 61.8317 25.3289 60.5455 25.0013C60.2933 24.9256 60.0411 24.7744 60.0411 24.4972V22.0271C60.0411 21.6743 60.2428 21.5482 60.495 21.5482C60.5202 21.5482 60.5455 21.5482 60.5707 21.5482C61.6047 21.649 64.3788 21.8507 65.3623 21.8507C67.1024 21.8507 67.6069 21.2962 67.6069 20.0863C67.6069 19.3554 67.2538 18.9521 65.9424 18.1708L62.4622 16.104C60.1168 14.7177 59.4863 13.1298 59.4863 11.2899C59.4863 8.51738 61.0499 6.375 65.9424 6.375C67.7834 6.375 70.3305 6.67745 71.2889 6.9295C71.4907 6.97991 71.6672 7.10593 71.6672 7.38318V9.92889C71.6672 10.1557 71.5663 10.3574 71.2385 10.3574C71.2385 10.3574 71.2133 10.3574 71.188 10.3574C70.4819 10.307 67.5565 10.0801 65.8416 10.0801C64.4041 10.0801 63.8744 10.5086 63.8744 11.416C63.8744 12.1217 64.2023 12.4493 65.5641 13.1803L68.7922 14.9194C71.415 16.3308 72.1968 17.9943 72.1968 20.036C72.1967 22.7075 70.4314 25.5557 65.3119 25.5557Z" fill="white"/>
<path d="M86.8998 10.1564H82.8143V24.8255C82.8143 25.1028 82.5873 25.3296 82.3099 25.3296H79.0062C78.7288 25.3296 78.5018 25.1027 78.5018 24.8255V10.1564H74.3911C74.1137 10.1564 73.8867 9.95473 73.8867 9.67748V7.08142C73.8867 6.80417 74.1137 6.60254 74.3911 6.60254H86.8998C87.1772 6.60254 87.4294 6.80417 87.4294 7.08142V9.67748C87.4294 9.95467 87.1772 10.1564 86.8998 10.1564Z" fill="white"/>
<path d="M102.258 25.3289H98.7274C98.4752 25.3289 98.2734 25.1273 98.223 24.8752L97.3151 20.7417H92.1451L91.2373 24.8752C91.1868 25.1273 90.9851 25.3289 90.7329 25.3289H87.2022C86.95 25.3289 86.7734 25.1777 86.7734 24.9257C86.7734 24.9005 86.7987 24.85 86.7987 24.7996L90.5563 9.17269C91.1364 6.75307 93.0026 6.375 94.7427 6.375C96.4828 6.375 98.3238 6.75307 98.9038 9.17269L102.661 24.7996C102.661 24.85 102.687 24.9005 102.687 24.9257C102.687 25.1777 102.51 25.3289 102.258 25.3289ZM95.0706 10.3322C95.0202 10.0801 94.9697 9.95409 94.7427 9.95409C94.5157 9.95409 94.4401 10.0801 94.3896 10.3322L92.8513 17.2886H96.6089L95.0706 10.3322Z" fill="white"/>
<path d="M119.027 25.3289H115.169C114.891 25.3289 114.79 25.0769 114.664 24.8248L111.285 18.4481L111.008 18.4733C110.478 18.4733 109.696 18.4228 109.217 18.4228V24.8248C109.217 25.1022 108.99 25.3289 108.713 25.3289H105.434C105.157 25.3289 104.93 25.1021 104.93 24.8248V7.91247C104.93 7.05552 105.283 6.82868 106.065 6.70266C107.225 6.52623 109.368 6.375 111.184 6.375C115.471 6.375 118.775 7.81165 118.775 12.2729V12.6006C118.775 15.2722 117.363 16.9105 115.522 17.6415L119.33 24.7492C119.38 24.85 119.406 24.9509 119.406 25.0265C119.406 25.2029 119.305 25.3289 119.027 25.3289ZM114.488 12.2729C114.488 10.7354 113.303 10.0297 111.184 10.0297C110.831 10.0297 109.52 10.0801 109.217 10.1053V14.9446C109.494 14.9698 110.73 14.995 111.008 14.995C113.656 14.995 114.488 14.3145 114.488 12.6006V12.2729Z" fill="white"/>
<path d="M133.152 10.1564H129.066V24.8255C129.066 25.1028 128.839 25.3296 128.562 25.3296H125.258C124.981 25.3296 124.754 25.1027 124.754 24.8255V10.1564H120.643C120.366 10.1564 120.139 9.95473 120.139 9.67748V7.08142C120.139 6.80417 120.366 6.60254 120.643 6.60254H133.152C133.429 6.60254 133.681 6.80417 133.681 7.08142V9.67748C133.681 9.95467 133.429 10.1564 133.152 10.1564Z" fill="white"/>
<path d="M146.441 25.2281C145.558 25.3541 144.272 25.5558 141.548 25.5558C138.295 25.5558 135.42 24.724 135.42 20.1368V11.7688C135.42 7.18154 138.32 6.375 141.574 6.375C144.297 6.375 145.558 6.57664 146.441 6.70266C146.794 6.75307 146.945 6.87909 146.945 7.20675V9.55076C146.945 9.82801 146.718 10.0548 146.441 10.0548H141.321C140.136 10.0548 139.707 10.4581 139.707 11.7687V14.0624H146.239C146.516 14.0624 146.743 14.2892 146.743 14.5664V16.9609C146.743 17.2382 146.516 17.465 146.239 17.465H139.707V20.1366C139.707 21.4473 140.136 21.8505 141.321 21.8505H146.441C146.718 21.8505 146.945 22.0774 146.945 22.3546V24.6986C146.945 25.0265 146.794 25.1777 146.441 25.2281Z" fill="white"/>
<path d="M164.221 25.3289H160.362C160.085 25.3289 159.984 25.0769 159.858 24.8248L156.478 18.4481L156.201 18.4733C155.671 18.4733 154.889 18.4228 154.41 18.4228V24.8248C154.41 25.1022 154.183 25.3289 153.906 25.3289H150.627C150.35 25.3289 150.123 25.1021 150.123 24.8248V7.91247C150.123 7.05552 150.476 6.82868 151.258 6.70266C152.418 6.52623 154.562 6.375 156.377 6.375C160.665 6.375 163.968 7.81165 163.968 12.2729V12.6006C163.968 15.2722 162.556 16.9105 160.715 17.6415L164.523 24.7492C164.574 24.85 164.599 24.9509 164.599 25.0265C164.599 25.2029 164.498 25.3289 164.221 25.3289ZM159.681 12.2729C159.681 10.7354 158.496 10.0297 156.377 10.0297C156.024 10.0297 154.713 10.0801 154.41 10.1053V14.9446C154.688 14.9698 155.923 14.995 156.201 14.995C158.849 14.995 159.681 14.3145 159.681 12.6006V12.2729Z" fill="white"/>
</svg>
