<svg xmlns="http://www.w3.org/2000/svg" viewBox="0 0 261.05 189.59"><defs><style>.cls-1{fill:#5c88c6;}</style></defs><title>Asset 62</title><g id="Layer_2" data-name="Layer 2"><g id="Layer_1-2" data-name="Layer 1"><path class="cls-1" d="M0,148.63H15a37.56,37.56,0,0,1,5.27.37A14.29,14.29,0,0,1,25,150.48a9,9,0,0,1,3.41,3.1,9.5,9.5,0,0,1,1.31,5.29,8.46,8.46,0,0,1-1.91,5.66,10.44,10.44,0,0,1-5,3.21v.12A11.54,11.54,0,0,1,26.43,169a9.75,9.75,0,0,1,2.79,2.1,9,9,0,0,1,1.79,3,10.43,10.43,0,0,1,.63,3.64A9.67,9.67,0,0,1,30.27,183a10.75,10.75,0,0,1-3.53,3.44,15.29,15.29,0,0,1-4.86,1.88,26,26,0,0,1-5.38.57H0Zm8.88,16.1h6.43a9.2,9.2,0,0,0,2-.23,5.59,5.59,0,0,0,1.79-.74,3.89,3.89,0,0,0,1.28-1.36,4.14,4.14,0,0,0,.48-2.05A3.58,3.58,0,0,0,19,157a6.71,6.71,0,0,0-1.94-.65,11,11,0,0,0-2.1-.2h-6Zm0,16.67h8a9.27,9.27,0,0,0,2.08-.23,5.48,5.48,0,0,0,1.91-.79,4.69,4.69,0,0,0,1.39-1.48,4.3,4.3,0,0,0,.54-2.22,3.6,3.6,0,0,0-.71-2.31A4.57,4.57,0,0,0,20.26,173a8.77,8.77,0,0,0-2.34-.63,17.88,17.88,0,0,0-2.33-.17H8.88Z"/><path class="cls-1" d="M35.33,145.89h8.54v43H35.33Z"/><path class="cls-1" d="M48.42,175.08a14.4,14.4,0,0,1,1.2-6,13.6,13.6,0,0,1,3.27-4.58,14.33,14.33,0,0,1,4.89-2.93,18.19,18.19,0,0,1,12,0,14.33,14.33,0,0,1,4.89,2.93A13.6,13.6,0,0,1,78,169.11a15.48,15.48,0,0,1,0,11.95,13.6,13.6,0,0,1-3.27,4.58,14.33,14.33,0,0,1-4.89,2.93,18.19,18.19,0,0,1-12,0,14.33,14.33,0,0,1-4.89-2.93,13.6,13.6,0,0,1-3.27-4.58A14.42,14.42,0,0,1,48.42,175.08Zm8.54,0a7.14,7.14,0,0,0,1.79,5.07,6.51,6.51,0,0,0,5,1.93,6.5,6.5,0,0,0,5-1.93,8.06,8.06,0,0,0,0-10.13,6.5,6.5,0,0,0-5-1.93,6.51,6.51,0,0,0-5,1.93A7.13,7.13,0,0,0,57,175.08Z"/><path class="cls-1" d="M102.3,170.19a4.69,4.69,0,0,0-1.76-1.51,5.27,5.27,0,0,0-2.45-.59,6.5,6.5,0,0,0-5,1.93,8.06,8.06,0,0,0,0,10.13,6.5,6.5,0,0,0,5,1.93,4.58,4.58,0,0,0,2.45-.62A7.48,7.48,0,0,0,102.3,180l5.64,5.92a11,11,0,0,1-4.7,2.87,17.4,17.4,0,0,1-11.15-.2,14.33,14.33,0,0,1-4.89-2.93,13.6,13.6,0,0,1-3.27-4.58,15.48,15.48,0,0,1,0-11.95,13.6,13.6,0,0,1,3.27-4.58,14.33,14.33,0,0,1,4.89-2.93,17.4,17.4,0,0,1,11.15-.2,11,11,0,0,1,4.7,2.87Z"/><path class="cls-1" d="M110.44,145.89H119v26.29l9.44-10.92h10.47l-11,12.46,11.27,15.19H128.42l-9.33-14H119v14h-8.54Z"/><path class="cls-1" d="M142.59,148.63h15a37.56,37.56,0,0,1,5.27.37,14.29,14.29,0,0,1,4.75,1.48,9,9,0,0,1,3.41,3.1,9.5,9.5,0,0,1,1.31,5.29,8.46,8.46,0,0,1-1.91,5.66,10.44,10.44,0,0,1-5,3.21v.12A11.54,11.54,0,0,1,169,169a9.75,9.75,0,0,1,2.79,2.1,9.2,9.2,0,0,1,1.79,3,10.43,10.43,0,0,1,.63,3.64,9.67,9.67,0,0,1-1.37,5.32,10.75,10.75,0,0,1-3.53,3.44,15.29,15.29,0,0,1-4.86,1.88,26,26,0,0,1-5.38.57h-16.5Zm8.88,16.1h6.43a9.2,9.2,0,0,0,2-.23,5.59,5.59,0,0,0,1.79-.74A3.89,3.89,0,0,0,163,162.4a4.14,4.14,0,0,0,.48-2.05,3.58,3.58,0,0,0-1.93-3.36,6.71,6.71,0,0,0-1.94-.65,11,11,0,0,0-2.1-.2h-6Zm0,16.67h8a9.27,9.27,0,0,0,2.08-.23,5.48,5.48,0,0,0,1.91-.79,4.69,4.69,0,0,0,1.39-1.48,4.3,4.3,0,0,0,.54-2.22,3.6,3.6,0,0,0-.71-2.31,4.57,4.57,0,0,0-1.79-1.33,8.87,8.87,0,0,0-2.34-.63,17.88,17.88,0,0,0-2.33-.17h-6.71Z"/><path class="cls-1" d="M195.17,185.44h-.12a8.08,8.08,0,0,1-3.78,3.19,13.14,13.14,0,0,1-5,1,12.89,12.89,0,0,1-3.73-.54,9.46,9.46,0,0,1-3.16-1.62,7.82,7.82,0,0,1-2.16-2.67,8.19,8.19,0,0,1-.79-3.7,8.47,8.47,0,0,1,.88-4,7.86,7.86,0,0,1,2.39-2.73,11.85,11.85,0,0,1,3.44-1.68,25.08,25.08,0,0,1,4-.88,36.27,36.27,0,0,1,4.15-.34c1.39,0,2.67-.06,3.85-.06a4.44,4.44,0,0,0-1.63-3.61,5.85,5.85,0,0,0-3.84-1.34,8.34,8.34,0,0,0-3.84.88,10.55,10.55,0,0,0-3.1,2.42L178.21,165a15.6,15.6,0,0,1,5.58-3.33,20.13,20.13,0,0,1,6.6-1.1,17.39,17.39,0,0,1,6.17.93,9.08,9.08,0,0,1,3.87,2.76,10.68,10.68,0,0,1,2,4.47,29.23,29.23,0,0,1,.57,6.12v14h-7.85Zm-2.11-8.65c-.65,0-1.45,0-2.42.09a12.15,12.15,0,0,0-2.79.48,6.08,6.08,0,0,0-2.27,1.2,2.73,2.73,0,0,0-.94,2.21,2.43,2.43,0,0,0,1.31,2.28,5.49,5.49,0,0,0,2.73.74,8.52,8.52,0,0,0,2.42-.34,7.18,7.18,0,0,0,2.07-1,4.7,4.7,0,0,0,1.45-1.59,4.61,4.61,0,0,0,.55-2.28v-1.82Z"/><path class="cls-1" d="M223.44,169.39a6.05,6.05,0,0,0-4.95-2.33,4.64,4.64,0,0,0-2.1.51,1.83,1.83,0,0,0-1,1.77,1.59,1.59,0,0,0,1.06,1.51,14.3,14.3,0,0,0,2.67.85l3.47.8a13.13,13.13,0,0,1,3.47,1.33,7.85,7.85,0,0,1,2.68,2.48,7.39,7.39,0,0,1,1,4.18,7.74,7.74,0,0,1-1.17,4.41,8.94,8.94,0,0,1-3,2.79,13.08,13.08,0,0,1-4.1,1.48,24.8,24.8,0,0,1-4.5.42,21.74,21.74,0,0,1-5.86-.82,10.94,10.94,0,0,1-5-2.93l5.17-5.75a8.54,8.54,0,0,0,2.65,2.25,7.18,7.18,0,0,0,3.39.77,8,8,0,0,0,2.67-.43,1.56,1.56,0,0,0,1.19-1.56,1.76,1.76,0,0,0-1.05-1.63,11.66,11.66,0,0,0-2.67-.91l-3.47-.79a14.39,14.39,0,0,1-3.47-1.28,7.24,7.24,0,0,1-2.68-2.42,7.39,7.39,0,0,1-1-4.18,8.46,8.46,0,0,1,1-4.21,8.84,8.84,0,0,1,2.62-2.91,11.43,11.43,0,0,1,3.73-1.67,17.06,17.06,0,0,1,4.27-.54,20.06,20.06,0,0,1,5.52.79,10.24,10.24,0,0,1,4.72,2.85Z"/><path class="cls-1" d="M259.75,184.13a13.67,13.67,0,0,1-5.18,4,15.5,15.5,0,0,1-6.49,1.42,17.5,17.5,0,0,1-6-1,14.33,14.33,0,0,1-4.89-2.93,13.77,13.77,0,0,1-3.28-4.58,15.6,15.6,0,0,1,0-11.95,13.77,13.77,0,0,1,3.28-4.58,14.33,14.33,0,0,1,4.89-2.93,17.5,17.5,0,0,1,6-1,13.72,13.72,0,0,1,5.38,1,11.21,11.21,0,0,1,4.1,2.93,13.38,13.38,0,0,1,2.58,4.58,18.34,18.34,0,0,1,.91,6v2.68h-19.8a6.76,6.76,0,0,0,2.22,3.9,6.31,6.31,0,0,0,4.21,1.45,6.46,6.46,0,0,0,3.56-.94,9.52,9.52,0,0,0,2.53-2.42ZM252.52,172a4.94,4.94,0,0,0-1.42-3.7,5,5,0,0,0-3.81-1.54,6.29,6.29,0,0,0-4.36,1.62,5.19,5.19,0,0,0-1.19,1.65,5.39,5.39,0,0,0-.49,2Z"/><path class="cls-1" d="M180.06,86.6c0,20.22-17.76,36.53-46.43,36.53H78.47V63.52h53.28c17.58,0,28.57,9.54,28.57,22.1,0,11.09-8.27,21.37-26.31,21.37H98.2V79.66h7.9v20.48H134c13.16,0,18.42-6.77,18.42-14.52,0-8-6.49-15.25-20.68-15.25H86.36v45.91h47.27c25,0,38.53-13.86,38.53-29.68,0-15.26-8.55-24.23-21.33-29,6.11-4.16,13.82-10.84,13.82-24.71,0-12.8-13.16-25.12-35.72-25.12H86.36V47.45h42.48c11,0,16.45-4.57,16.45-13.05C145.29,27.47,138,24,127.43,24H106.1V38.15H98.2v-21h29.23c19,0,25.75,9.13,25.75,17.29,0,12.72-9.3,19.9-25.09,19.9H78.47V1h50.46c27.26,0,43.61,15.66,43.61,32a34,34,0,0,1-8.74,23.33C174.14,62.86,180.06,72.89,180.06,86.6Z"/><path class="cls-1" d="M133.63,124.09H77.5V62.55h54.25c17.39,0,29.53,9.49,29.53,23.07,0,10.3-7.14,22.33-27.27,22.33H97.24V78.7h9.82V99.18H134c11.09,0,17.46-5,17.46-13.56,0-6.6-5.17-14.29-19.72-14.29H87.32v44h46.31c18.1,0,37.57-9,37.57-28.72,0-13.53-7-23-20.7-28.06l-1.75-.64,1.54-1c6.24-4.25,13.4-10.8,13.4-23.92,0-11.71-12.18-24.16-34.76-24.16H87.32V46.49h41.52c10.28,0,15.48-4.07,15.48-12.09,0-5.94-6.31-9.48-16.89-9.48H107.06V39.11H97.24v-23h30.19c19.72,0,26.71,9.83,26.71,18.25,0,13.26-9.49,20.86-26,20.86H77.5V0h51.43c28.95,0,44.57,17,44.57,32.93a35.06,35.06,0,0,1-8.24,23.14C175.72,63.14,181,73.4,181,86.6,181,108.67,161.53,124.09,133.63,124.09Zm-54.2-1.92h54.2c26.77,0,45.47-14.63,45.47-35.57,0-12.89-5.32-22.83-15.82-29.53l-1-.62.79-.85a32.94,32.94,0,0,0,8.48-22.67c0-15-15-31-42.65-31H79.43V53.34h48.66c15.33,0,24.13-6.91,24.13-18.94,0-7.9-6.51-16.33-24.79-16.33H99.16V37.19h6V23h22.3c11.78,0,18.82,4.26,18.82,11.4,0,6.39-3,14-17.41,14H85.4V6.85h43.53c23.82,0,36.68,13.44,36.68,26.08,0,13-6.53,19.93-12.76,24.47,13.45,5.53,20.27,15.34,20.27,29.2,0,21.05-20.47,30.65-39.49,30.65H85.4V69.4h46.35c16,0,21.64,8.74,21.64,16.22,0,9.69-7.25,15.48-19.38,15.48H105.13V80.62h-6V106H134c18.71,0,25.35-11,25.35-20.4,0-12.45-11.35-21.14-27.61-21.14H79.43Z"/></g></g></svg>