<?xml version="1.0" encoding="utf-8"?>
<!-- Generator: Adobe Illustrator 24.1.3, SVG Export Plug-In . SVG Version: 6.00 Build 0)  -->
<svg version="1.1" id="Layer_1" xmlns="http://www.w3.org/2000/svg" xmlns:xlink="http://www.w3.org/1999/xlink" x="0px" y="0px"
	 viewBox="0 0 170.1 99.3" style="enable-background:new 0 0 170.1 99.3;" xml:space="preserve">
<style type="text/css">
	.st0{enable-background:new    ;}
	.st1{fill:#FFFFFF;}
	.st2{fill:none;}
	.st3{fill:#571AFF;}
</style>
<g class="st0">
	<path class="st1" d="M23.9,78.8L23.9,78.8c-1.9,3.1-4.5,4.2-7.7,4.2c-4.1,0-7.3-1.5-9.5-3.9c-2.2-2.5-3.5-6-3.5-10.1
		c0-4.5,1.6-8.5,4.4-11.1c2.2-2,5.1-3.1,8.7-3.1c6.8,0,10.7,3.8,11.6,9.1h-5.4c-0.6-2.6-2.6-4.5-6.1-4.5c-5.1,0-7.7,4.3-7.7,9.6
		c0,5.5,2.9,9.6,7.6,9.6c4.2,0,7-3.1,7-6.1v-0.2h-6.5v-4.2h11.4v14.4h-4.1L23.9,78.8z"/>
	<path class="st1" d="M43.3,80.3L43.3,80.3c-1.1,1.5-2.5,2.6-5.8,2.6c-4,0-6.8-2.1-6.8-6c0-4.3,3.5-5.7,7.8-6.3
		c3.2-0.5,4.7-0.7,4.7-2.2c0-1.4-1.1-2.3-3.3-2.3c-2.4,0-3.6,0.9-3.8,2.7h-4.6c0.2-3.4,2.7-6.4,8.4-6.4c5.8,0,8.2,2.6,8.2,7.2v9.9
		c0,1.5,0.2,2.4,0.7,2.7v0.2h-5C43.6,82.1,43.4,81.2,43.3,80.3z M43.3,75.6v-2.9c-0.9,0.5-2.3,0.8-3.6,1.1c-2.7,0.6-4,1.2-4,3
		s1.2,2.5,3,2.5C41.7,79.3,43.3,77.5,43.3,75.6z"/>
	<path class="st1" d="M51.4,63h5v2.6h0.1c1.1-1.8,3-3.1,5.7-3.1c2.5,0,4.4,1.4,5.4,3.4h0.1c1.3-2.1,3.4-3.4,5.8-3.4
		c4.1,0,6.4,2.7,6.4,6.9v13.1h-5.2V70.3c0-2.2-1.1-3.3-3-3.3c-2.2,0-3.5,1.7-3.5,4.3v11.3h-5.2V70.3c0-2.2-1.1-3.3-3-3.3
		c-2.1,0-3.5,1.7-3.5,4.3v11.3h-5.2V63z"/>
	<path class="st1" d="M83.1,55.4h5.2V60h-5.2V55.4z M83.1,63h5.2v19.5h-5.2V63z"/>
	<path class="st1" d="M90.4,63h2.7v-1.7c0-4.7,3.7-6.4,8.7-5.9v4c-2.4-0.1-3.5,0.2-3.5,2.2V63h3.5v3.6h-3.5v15.9h-5.2V66.6h-2.7V63z
		"/>
	<path class="st1" d="M105.1,84.8h1.8c2,0,2.9-1.1,2.9-2.7c0-1.1-0.4-2.3-1.5-5.3L103.1,63h5.4l2.9,8.8c0.6,1.8,1.3,4.3,1.3,4.3h0.1
		c0,0,0.5-2.5,1.1-4.3l2.7-8.8h5.2L115,83c-1.5,4.3-2.9,5.9-6.9,5.9h-3V84.8z"/>
</g>
<rect x="116.7" y="167.9" class="st2" width="82.4" height="1.1"/>
<g>
	<path class="st1" d="M26.3,90.4c1.5,0,2.6,1.1,2.6,2.9c0,1.8-1.1,3-2.6,3c-0.9,0-1.6-0.4-2-0.9v0.8h-1.1v-7.7h1.1v2.8
		C24.7,90.7,25.4,90.4,26.3,90.4z M26,91.4c-0.9,0-1.7,0.7-1.7,1.9c0,1.2,0.8,2,1.7,2s1.7-0.7,1.7-2C27.7,92,26.9,91.4,26,91.4z"/>
	<path class="st1" d="M32.2,96.3c-1.6,0-2.8-1.1-2.8-3s1.2-2.9,2.9-2.9c1.6,0,2.9,1.1,2.9,2.9C35.2,95.1,33.9,96.3,32.2,96.3z
		 M32.2,95.2c0.9,0,1.7-0.7,1.7-2s-0.8-1.9-1.7-1.9c-0.9,0-1.7,0.7-1.7,1.9C30.6,94.6,31.4,95.2,32.2,95.2z"/>
	<path class="st1" d="M41.1,96.2H40v-0.7c-0.4,0.5-1,0.8-1.7,0.8c-1.3,0-2.3-0.8-2.3-2.4v-3.4h1.1v3.2c0,1,0.5,1.6,1.4,1.6
		s1.4-0.5,1.4-1.6v-3.2h1.1L41.1,96.2L41.1,96.2z"/>
	<path class="st1" d="M46.4,93c0-1-0.5-1.6-1.4-1.6c-0.9,0-1.4,0.5-1.4,1.6v3.2h-1.1v-5.8h1.1v0.7c0.4-0.5,1-0.8,1.7-0.8
		c1.3,0,2.3,0.8,2.3,2.4v3.4h-1.1V93z"/>
	<path class="st1" d="M56.2,90.4l-1.6,4.4L53,90.4h-0.1h-1.2h-1.5V89H49v1.4h-0.7v1H49v3.2c0,1.1,0.7,1.6,1.6,1.6h0.9v-1h-0.7
		c-0.5,0-0.7-0.2-0.7-0.6v-3.2h1.9l1.8,4.7l-0.7,1.6h1.2l2.9-7.2C57.4,90.4,56.2,90.4,56.2,90.4z"/>
	<path class="st1" d="M61.1,90.4c1.5,0,2.6,1.1,2.6,2.9c0,1.8-1.1,3-2.6,3c-0.9,0-1.6-0.4-2-0.9v0.8H58v-7.7h1.1v2.8
		C59.5,90.7,60.2,90.4,61.1,90.4z M60.9,91.4c-0.9,0-1.7,0.7-1.7,1.9c0,1.2,0.8,2,1.7,2s1.7-0.7,1.7-2C62.5,92,61.7,91.4,60.9,91.4z
		"/>
	<path class="st1" d="M64.6,88.5h1.1v7.7h-1.1V88.5z"/>
	<path class="st1" d="M69.5,96.3c-1.6,0-2.8-1.1-2.8-3s1.2-2.9,2.9-2.9c1.6,0,2.9,1.1,2.9,2.9C72.5,95.1,71.1,96.3,69.5,96.3z
		 M69.5,95.2c0.9,0,1.7-0.7,1.7-2s-0.8-1.9-1.7-1.9s-1.7,0.7-1.7,1.9C67.9,94.6,68.6,95.2,69.5,95.2z"/>
	<path class="st1" d="M73.4,88.5h1.1V93l2-2.5h1.6l-2.6,2.9l2.6,2.9h-1.6l-2.1-2.4v2.4h-1.1V88.5L73.4,88.5z"/>
	<path class="st1" d="M13.4,91.8l1.8,4.7l-0.7,1.6h1.2l2.9-7.2h-1.2l-1.6,4.4l-1.6-4.4h-0.1H13"/>
</g>
<path class="st1" d="M10.4,90.6c1.5,0,2.6,1.1,2.6,2.9c0,1.8-1.1,3-2.6,3c-0.9,0-1.6-0.4-2-0.9v0.8H7.3v-7.7h1.1v2.8
	C8.8,91,9.5,90.6,10.4,90.6z M10.1,91.7c-0.9,0-1.7,0.7-1.7,1.9c0,1.2,0.8,2,1.7,2c0.9,0,1.7-0.7,1.7-2S11,91.7,10.1,91.7z"/>
<g>
	<circle class="st3" cx="148.2" cy="47.4" r="21.3"/>
	<path class="st1" d="M140.7,57.3h15c0.7,0,1.2,0.6,1.2,1.2l0,0c0,0.7-0.6,1.2-1.2,1.2h-15c-0.7,0-1.2-0.6-1.2-1.2l0,0
		C139.6,57.8,140.1,57.3,140.7,57.3z"/>
	<path class="st1" d="M154.7,57.3h-12.9l2.9-5.5h7.2L154.7,57.3z"/>
	<path class="st1" d="M144.5,55.7l1.2-2.2h5.2l1.2,2.2H144.5z"/>
	<path class="st1" d="M141.9,37.1v8.2c0,2,1.1,3.7,2.8,4.7h7.2c1.7-1,2.8-2.7,2.8-4.7v-8.2H141.9z"/>
	<path class="st2" d="M146.6,43.5l-1.2-1.7l2,0.2l0.8-1.9l0.8,1.9l2-0.2l-1.2,1.7l1.2,1.7l-2-0.2l-0.8,1.9l-0.8-1.9l-2,0.2
		L146.6,43.5z"/>
	<g>
		<path class="st1" d="M144.6,49.9h7.2v1.9h-7.2V49.9z"/>
		<path class="st1" d="M158.1,38.6h-3.6v1.7h3.6c0.7,0,1.3,0.6,1.3,1.3v2.6c0,0.6-0.4,1.1-1,1.2l-4,1c-0.1,0.7-0.4,1.3-0.7,1.9
			l5-1.2c1.3-0.3,2.2-1.5,2.2-2.8v-2.6C161,39.9,159.7,38.6,158.1,38.6z"/>
		<path class="st1" d="M138.3,38.6h3.6v1.7h-3.6c-0.7,0-1.3,0.6-1.3,1.3v2.6c0,0.6,0.4,1.1,1,1.2l4,1c0.1,0.7,0.4,1.3,0.7,1.9
			l-5-1.2c-1.3-0.3-2.2-1.5-2.2-2.8v-2.6C135.5,39.9,136.7,38.6,138.3,38.6z"/>
	</g>
</g>
<path class="st1" d="M3,18.5h4.1V9.6h4.4v8.9H17v3.6h-5.4v18.3c0,1,0.3,1.7,0.7,2.1c0.6,0.4,1.3,0.6,2.1,0.6c0.4,0,0.9,0,1.3-0.1
	c0.3-0.1,0.7-0.1,1-0.3h0.2v3.8c-0.5,0.1-1.1,0.2-1.7,0.3c-0.6,0.1-1.2,0.1-1.9,0.1c-1.6,0-3.1-0.4-4.5-1.3
	c-1.2-0.8-1.7-2.2-1.8-4.2V22.1H3V18.5z"/>
<path class="st1" d="M31.8,47.4c-2,0-3.9-0.4-5.7-1.2c-1.6-0.7-3.1-1.8-4.3-3.2c-1.2-1.4-2.1-3-2.7-4.7c-0.6-1.8-0.9-3.8-0.9-5.7
	c0-2,0.3-3.9,0.9-5.7c0.6-1.7,1.5-3.3,2.7-4.7c1.2-1.3,2.6-2.4,4.2-3.2c1.7-0.8,3.6-1.2,5.4-1.2c1.9,0,3.8,0.4,5.6,1.2
	c1.6,0.7,3,1.9,4.1,3.3c1.2,1.5,2,3.2,2.5,5c0.6,2.1,0.9,4.3,0.9,6.4H22.7c0.1,1.4,0.3,2.7,0.7,4c0.4,1.2,1,2.3,1.8,3.2
	c0.7,0.9,1.7,1.6,2.8,2.1c1.2,0.5,2.5,0.8,3.7,0.7c1.8,0.1,3.5-0.4,5-1.4c1.4-1.1,2.4-2.6,2.7-4.3h4.3c-0.7,3-2,5.4-4.1,7
	C37.6,46.6,35,47.4,31.8,47.4z M31.5,21.3c-1.2,0-2.4,0.2-3.5,0.7c-1,0.4-1.9,1.1-2.6,1.9c-0.8,0.9-1.3,1.8-1.7,2.9
	c-0.5,1.1-0.8,2.3-0.9,3.5h16.9c-0.1-2.8-0.9-5-2.3-6.7S34,21.3,31.5,21.3z"/>
<path class="st1" d="M48.5,7.7h4.4v38.9h-4.4V7.7z"/>
<path class="st1" d="M99.8,47.4c-3.9,0-6.9-0.9-9-2.6c-2.1-1.7-3.3-4.2-3.5-7.4h4.5c0.1,1.1,0.4,2.1,0.9,3c0.4,0.8,1.1,1.4,1.8,1.9
	c0.7,0.5,1.5,0.8,2.4,1c1,0.2,2,0.3,2.9,0.3c2.3,0,4-0.5,5-1.3c1-0.8,1.5-2,1.5-3.3c0-0.7-0.1-1.4-0.4-2c-0.3-0.6-0.8-1-1.3-1.3
	c-0.7-0.4-1.5-0.7-2.3-0.9c-0.9-0.3-2.1-0.5-3.3-0.8c-1.4-0.3-2.7-0.6-4-0.9c-1.2-0.3-2.3-0.8-3.3-1.4c-1-0.6-1.8-1.4-2.3-2.4
	c-0.6-1.1-0.9-2.4-0.9-3.7c-0.1-2.2,0.9-4.3,2.6-5.6c1.7-1.4,4.2-2.1,7.5-2.1c3.5,0,6.2,0.8,7.9,2.3s2.8,3.7,3.1,6.5h-4.6
	c-0.2-1.9-0.9-3.2-1.9-4.1c-1.1-0.9-2.6-1.3-4.7-1.3c-2.1,0-3.5,0.4-4.4,1.2c-0.8,0.7-1.3,1.8-1.3,2.9c0,0.7,0.1,1.3,0.5,1.9
	c0.4,0.5,0.9,0.9,1.5,1.2c0.8,0.4,1.6,0.7,2.4,0.8c0.9,0.2,2,0.5,3.2,0.7c1.4,0.3,2.7,0.6,4,0.9c1.2,0.3,2.3,0.8,3.3,1.5
	c0.9,0.6,1.7,1.5,2.3,2.5c0.6,1.2,0.9,2.6,0.8,4c0,1.3-0.3,2.6-0.8,3.7c-0.5,1.1-1.3,2-2.3,2.7c-1.1,0.8-2.3,1.3-3.5,1.6
	C102.8,47.3,101.3,47.5,99.8,47.4z"/>
<circle class="st3" cx="70.7" cy="32.6" r="14.8"/>
</svg>
