<svg width="196" height="46" viewBox="0 0 196 46" fill="none" xmlns="http://www.w3.org/2000/svg">
<path opacity="0.5" fill-rule="evenodd" clip-rule="evenodd" d="M0.161987 18.9846L1.44177 14.0873L10.4551 8.86938V15.407L0.161987 21.8952V18.9846Z" fill="#1C60DD"/>
<path opacity="0.7" fill-rule="evenodd" clip-rule="evenodd" d="M4.42798 19.1574L14.5777 12.8464V18.0292C14.5777 18.0292 14.4234 19.7398 13.6814 20.0584C13.1328 20.2823 4.43068 25.4312 4.43068 25.4312L4.42798 19.1574Z" fill="#1C60DD"/>
<path opacity="0.9" fill-rule="evenodd" clip-rule="evenodd" d="M9.95569 22.2194L18.9784 16.9021V22.0842C18.9784 22.0842 18.9784 23.5168 18.0822 24.0207C17.5038 24.3299 9.95772 28.7219 9.95772 28.7219L9.95569 22.2194Z" fill="#1C60DD"/>
<path opacity="0.5" fill-rule="evenodd" clip-rule="evenodd" d="M13.6947 7.01864L18.6555 3.82056V10.3547L13.6994 13.3878L13.6947 7.01864Z" fill="#1C60DD"/>
<path opacity="0.7" fill-rule="evenodd" clip-rule="evenodd" d="M17.7343 10.9115L22.7195 7.96704V14.7312L17.7322 17.6277L17.7343 10.9115Z" fill="#1C60DD"/>
<path opacity="0.5" fill-rule="evenodd" clip-rule="evenodd" d="M21.5567 2.07729L24.9517 0V4.50631C24.9517 4.50631 24.9517 6.76082 24.0554 7.212C23.8829 7.30331 21.575 8.64668 21.575 8.64668L21.5567 2.07729Z" fill="#1C60DD"/>
<path opacity="0.9" fill-rule="evenodd" clip-rule="evenodd" d="M21.6464 15.2719L25.0285 13.2427L24.9507 18.4207C24.9507 18.4207 25.0285 19.7864 24.0545 20.4499C23.8299 20.6495 21.5267 21.771 21.5673 21.7933C21.6079 21.8156 21.6329 15.0886 21.6464 15.2719Z" fill="#1C60DD"/>
<path opacity="0.7" fill-rule="evenodd" clip-rule="evenodd" d="M25.6279 6.30849L28.3336 4.51733C28.3336 4.51733 28.3607 7.20407 28.3336 9.02432C28.3137 9.57723 28.1847 10.1207 27.9541 10.6236C27.7234 11.1264 27.3956 11.5788 26.9896 11.9546C26.9896 11.9546 25.5901 12.8258 25.6327 12.8502C25.6753 12.8745 25.6279 6.30849 25.6279 6.30849Z" fill="#1C60DD"/>
<path fill-rule="evenodd" clip-rule="evenodd" d="M10.455 8.86499C10.4131 8.95292 2.18034 13.0385 0.932341 14.44C1.56885 13.903 0.391204 14.9704 0.25592 16.5782L0.647567 31.6888C0.647567 31.6888 0.0184966 34.3038 3.11109 36.0814C5.31622 37.349 18.0708 44.5901 19.6367 45.3267C21.2026 46.0634 21.6065 44.8992 21.6065 44.8992V30.2324C21.5726 30.1925 22.0739 27.915 19.3898 26.1976C18.8744 25.7498 2.34741 18.2219 1.64529 15.8517C0.891079 13.3064 10.455 9.52315 10.455 8.86499Z" fill="white"/>
<path fill-rule="evenodd" clip-rule="evenodd" d="M20.8377 30.1024L21.6426 29.52V45.1453C21.6426 45.1453 21.2543 45.9266 20.8377 46.001C20.7883 45.9753 20.8377 30.1024 20.8377 30.1024Z" fill="#C0C9D7"/>
<path d="M1.07855 16.3644C1.1929 16.546 1.32403 16.7165 1.47019 16.8737C1.30482 16.6911 1.16592 16.4862 1.05758 16.2649C0.0835329 13.7527 7.14537 10.928 10.0878 9.04077C10.0878 9.04077 2.94547 12.5872 1.52972 13.8244C0.278342 14.9175 0.188378 15.5784 0.188378 15.5784L0.0375366 16.5017C0.0686516 16.0539 0.0787979 15.6541 0.188378 15.5784C0.17485 15.6562 1.06705 16.2474 1.07855 16.3644Z" fill="#1C60DD"/>
<path d="M18.6372 26.8178C18.0568 26.3274 10.65 22.9405 5.5282 19.8777C5.83259 20.0698 6.10383 20.2382 6.31691 20.3789L18.4492 44.776C18.7049 44.9113 18.8976 45.0202 19.0451 45.0892L20.8376 45.9848V30.3128C20.8153 30.2952 21.0162 28.1314 18.6372 26.8178Z" fill="#1C60DD"/>
<path opacity="0.3" d="M0.5538 33.7224C0.276449 33.1509 0.0897757 32.5398 0.000488281 31.9109C0.0277243 32.5519 0.218175 33.1755 0.5538 33.7224Z" fill="url(#paint0_linear_46:6120)"/>
<path d="M5.52811 19.8778C3.7153 18.805 2.21365 17.7484 1.46959 16.8751C1.32361 16.7177 1.19272 16.547 1.07861 16.3651C1.06509 16.2481 0.19927 15.5744 0.222268 15.4939C0.112688 15.5703 0.0430172 16.0445 0.0119019 16.495L0.0355766 31.9059C0.123511 33.047 0.211446 33.091 0.514482 33.7207C0.957536 34.4073 1.1767 34.6677 1.96675 35.3725C3.8215 36.5055 15.3058 43.0742 18.4653 44.7748L6.31681 20.3722L5.52811 19.8778Z" fill="#1C60DD"/>
<path opacity="0.2" d="M5.50781 19.8692C3.69501 18.7964 2.19335 17.7399 1.44929 16.8666C1.30979 16.7085 1.18568 16.5375 1.07861 16.3559C1.06509 16.2396 0.195888 15.5658 0.222268 15.4854C0.168155 15.5374 0.0673683 16.1408 0.036253 16.5906L0.0119019 31.9535C0.0558692 32.9133 0.243237 33.1792 0.519217 33.7514C0.914245 34.4096 1.42224 34.9013 1.99516 35.364C3.85058 36.497 15.2861 43.0657 18.4457 44.7662L6.29652 20.3637L5.50781 19.8692Z" fill="url(#paint1_linear_46:6120)"/>
<path fill-rule="evenodd" clip-rule="evenodd" d="M18.225 33.1678L15.7039 31.612C15.2562 31.3522 14.8246 31.52 15.0458 31.9793V36.1656C15.1533 36.3205 15.3705 36.8218 15.2697 37.0747C14.9085 37.0572 16.7037 38.5629 17.7183 39.1304C18.0139 39.2961 18.5652 39.3651 18.5226 38.6826V33.7096C18.5239 33.6012 18.4968 33.4944 18.4441 33.3998C18.3921 33.3049 18.3167 33.225 18.225 33.1678Z" fill="#B0B5BE"/>
<path fill-rule="evenodd" clip-rule="evenodd" d="M18.1177 33.4176C17.7254 32.9292 16.4145 32.1791 15.525 31.5372C15.3011 31.3735 14.9114 31.4898 14.9162 31.7611C14.9723 34.9287 14.9838 36.3864 15.1671 37.0067C15.3024 37.4802 16.7872 38.4752 17.6313 39.0359C17.8823 39.2057 18.2212 39.2463 18.232 38.9392C18.2794 37.6073 18.232 34.5175 18.232 33.7274C18.2282 33.6138 18.1873 33.5045 18.1157 33.4163L18.1177 33.4176Z" fill="white"/>
<path fill-rule="evenodd" clip-rule="evenodd" d="M32.4896 30.3479C33.3494 31.2146 34.3769 31.8968 35.5094 32.3526C36.6419 32.8084 37.8555 33.0283 39.0759 32.9988C40.6215 33.0178 42.1465 32.6437 43.5078 31.9118C44.8055 31.2186 45.8923 30.1883 46.6539 28.9295L44.5116 27.3494C44.0074 28.1725 43.3234 28.8707 42.5107 29.3915C41.6981 29.9125 40.778 30.2425 39.8196 30.3569C38.8612 30.4714 37.8892 30.3672 36.9768 30.0523C36.0644 29.7373 35.2352 29.2198 34.5514 28.5385C33.3805 27.2642 32.7306 25.5968 32.7306 23.8661C32.7306 22.1356 33.3805 20.4681 34.5514 19.1938C35.236 18.5138 36.0657 17.9976 36.9781 17.6836C37.8906 17.3698 38.8622 17.2664 39.8203 17.3812C40.7784 17.4961 41.6981 17.8262 42.5105 18.3468C43.323 18.8674 44.0071 19.5652 44.5116 20.3876L46.6539 18.8082C45.8844 17.5536 44.7936 16.5274 43.4943 15.836C42.1393 15.0992 40.6182 14.7215 39.0759 14.7388C37.8553 14.7068 36.6409 14.9254 35.5081 15.3812C34.3752 15.8371 33.3479 16.5204 32.4896 17.3891C30.7714 19.0894 29.799 21.4027 29.7863 23.82C29.7736 26.2373 30.7217 28.5607 32.422 30.2789C32.4441 30.3029 32.4666 30.3259 32.4896 30.3479ZM49.8317 30.9743C50.4639 31.6363 51.2277 32.1584 52.074 32.5071C52.9203 32.8558 53.8302 33.0233 54.7452 32.9988C55.6648 33.0248 56.5798 32.8598 57.4325 32.514C58.2851 32.1684 59.0567 31.6496 59.6986 30.9905C60.9873 29.7213 61.7191 27.9922 61.7331 26.1834C61.747 24.3747 61.042 22.6344 59.773 21.3454L59.6986 21.271C58.3786 19.9863 56.6103 19.2662 54.7683 19.2633C52.9264 19.2604 51.1557 19.975 49.8317 21.2555C49.1935 21.8902 48.6866 22.6444 48.3398 23.4752C47.9932 24.3058 47.8134 25.1967 47.8111 26.0968C47.8087 26.9969 47.9836 27.8886 48.3259 28.7211C48.6682 29.5536 49.1712 30.3105 49.806 30.9486L49.8317 30.9743ZM57.6633 29.1696C57.2906 29.5527 56.8461 29.8587 56.3552 30.0701C55.8643 30.2814 55.3366 30.3939 54.8021 30.4013C54.2678 30.4086 53.7371 30.3106 53.2406 30.1129C52.7441 29.9152 52.2913 29.6215 51.9083 29.2488C51.8853 29.2264 51.8623 29.2034 51.8406 29.1811C51.4553 28.777 51.1539 28.3005 50.9539 27.7792C50.7538 27.258 50.6591 26.7022 50.6752 26.144C50.6604 25.5803 50.7567 25.0191 50.9589 24.4926C51.1611 23.9661 51.4651 23.4847 51.8535 23.0757C52.2177 22.6943 52.6534 22.3883 53.1358 22.1751C53.6182 21.9621 54.1379 21.8461 54.6651 21.8339C55.1924 21.8216 55.7169 21.9133 56.2086 22.1038C56.7004 22.2943 57.1499 22.5797 57.5314 22.9438C57.5765 22.9889 57.6204 23.0329 57.6633 23.0757C58.0523 23.4844 58.3569 23.9657 58.5597 24.4922C58.7624 25.0187 58.8594 25.58 58.845 26.144C58.8581 26.7013 58.7607 27.2556 58.5585 27.775C58.3563 28.2944 58.0532 28.7686 57.6666 29.1703L57.6633 29.1696ZM66.7158 32.7053V19.5577H63.9059V32.7053H66.7158ZM65.3237 16.505C65.8232 16.511 66.3046 16.3186 66.6623 15.9699C66.843 15.803 66.9866 15.5999 67.0835 15.3737C67.1805 15.1477 67.2287 14.9037 67.2251 14.6577C67.2288 14.4094 67.1806 14.1631 67.0838 13.9344C66.9868 13.7058 66.8434 13.4999 66.6623 13.3299C66.4872 13.1538 66.2784 13.0147 66.0485 12.9208C65.8185 12.8269 65.5721 12.7802 65.3237 12.7833C65.0711 12.7784 64.8201 12.8243 64.5855 12.9182C64.3509 13.0121 64.1375 13.152 63.958 13.3299C63.7771 13.5 63.6337 13.7059 63.5369 13.9345C63.4402 14.1631 63.3921 14.4094 63.3959 14.6577C63.3922 14.9036 63.4404 15.1476 63.5372 15.3737C63.634 15.5998 63.7774 15.803 63.958 15.9699C64.3246 16.3219 64.8157 16.5142 65.3237 16.505ZM79.9344 20.6819C79.4704 20.2022 78.9082 19.8272 78.2873 19.5822C77.6663 19.3372 77.0001 19.2278 76.3331 19.2614C75.6026 19.2317 74.8741 19.3571 74.1956 19.6295C73.5172 19.9018 72.9044 20.3149 72.397 20.8415V19.5563H69.7732V32.7053H72.5844V24.8588C72.5695 24.4548 72.6365 24.052 72.7812 23.6746C72.9267 23.2973 73.1465 22.9532 73.4279 22.6631C73.7086 22.379 74.0448 22.1561 74.4161 22.0086C74.7868 21.8611 75.1846 21.7922 75.5836 21.8061C75.9692 21.7901 76.3541 21.8569 76.7119 22.0019C77.0697 22.1469 77.3924 22.3668 77.6582 22.6469C78.2 23.2526 78.4828 24.0468 78.4456 24.8588V32.7053H81.2568V24.484C81.3285 23.0925 80.853 21.7281 79.9317 20.6826L79.9344 20.6819ZM87.2871 32.7053V25.8768H90.9012C92.4853 25.9425 94.0337 25.3958 95.2255 24.3501C95.7389 23.86 96.1515 23.2735 96.4383 22.624C96.7251 21.9746 96.8814 21.275 96.8976 20.5652C96.9145 19.8554 96.7908 19.1493 96.5344 18.4872C96.278 17.8252 95.8938 17.2201 95.4034 16.7066C95.35 16.6504 95.2952 16.5949 95.239 16.5415C94.0398 15.5012 92.4874 14.9606 90.9012 15.0311H84.4488V32.7053H87.2871ZM87.2871 17.5534H90.8477C91.6878 17.5047 92.5138 17.7873 93.1476 18.3408C93.4283 18.6176 93.6468 18.9506 93.7902 19.3179C93.9329 19.6852 93.9971 20.0785 93.9775 20.4722C93.9971 20.8635 93.9329 21.2544 93.7902 21.6191C93.6468 21.9837 93.4283 22.3138 93.1476 22.5874C92.5097 23.1334 91.6858 23.4116 90.8477 23.3639H87.2871V17.5534ZM107.668 20.713C107.145 20.2198 106.528 19.8375 105.854 19.5889C105.18 19.3404 104.462 19.2308 103.744 19.2668C102.657 19.2176 101.574 19.4507 100.603 19.9434C99.6324 20.4362 98.8051 21.1717 98.2024 22.0787L99.836 23.7346C100.925 22.4277 102.136 21.7797 103.478 21.7797C103.855 21.7565 104.231 21.8085 104.588 21.9327C104.944 22.0568 105.272 22.2506 105.552 22.5028C105.811 22.7826 106.01 23.1121 106.136 23.4713C106.263 23.8304 106.315 24.2116 106.289 24.5916V25.4479H102.569C101.31 25.3803 100.065 25.7389 99.0344 26.466C98.6117 26.7813 98.2714 27.1945 98.0428 27.67C97.8142 28.1456 97.7046 28.6694 97.7229 29.1967C97.7053 29.7223 97.8101 30.2448 98.0286 30.7232C98.2464 31.2017 98.5724 31.6231 98.981 31.9544C99.928 32.6867 101.105 33.0571 102.301 32.9988C103.09 33.0456 103.88 32.9107 104.608 32.6043C105.337 32.2981 105.986 31.8286 106.505 31.232V32.7053H109.129V24.7519C109.127 23.0169 108.64 21.6728 107.668 20.7089V20.713ZM105.315 29.9461C104.65 30.54 103.783 30.8565 102.892 30.8302C102.297 30.8577 101.71 30.6916 101.219 30.3567C101.017 30.2139 100.854 30.0231 100.744 29.8016C100.634 29.5801 100.581 29.3349 100.59 29.0878C100.59 28.0163 101.366 27.4809 102.918 27.4813H106.292V27.7221C106.302 28.1417 106.219 28.5583 106.05 28.9425C105.881 29.3267 105.63 29.6693 105.315 29.9461ZM116.721 29.1162L112.946 19.5577H109.915L115.163 32.1154L114.627 33.3472C114.418 33.9324 114.027 34.4353 113.512 34.7822C112.996 35.1291 112.384 35.3018 111.763 35.275C111.459 35.275 110.941 35.2371 110.207 35.1674V37.5505C110.916 37.7307 111.644 37.8215 112.375 37.821C113.393 37.8537 114.393 37.5467 115.216 36.9485C116.097 36.216 116.779 35.2727 117.198 34.2062L123.597 19.5604H120.602L116.721 29.1162ZM143.459 20.6934C143.004 20.2124 142.449 19.8357 141.835 19.5889C141.22 19.3421 140.559 19.231 139.898 19.2634C139.045 19.2216 138.195 19.3873 137.421 19.7465C136.647 20.1056 135.972 20.6473 135.453 21.3252C134.613 19.9489 133.283 19.2617 131.462 19.2634C130.756 19.2381 130.054 19.3608 129.4 19.6237C128.744 19.8865 128.152 20.2837 127.66 20.7894V19.5583H125.036V32.7053H127.847V24.8858C127.812 24.0714 128.101 23.2761 128.651 22.6746C128.921 22.3951 129.245 22.1758 129.606 22.0308C129.966 21.8859 130.352 21.8188 130.74 21.8338C131.116 21.8171 131.49 21.8838 131.838 22.0292C132.185 22.1746 132.496 22.395 132.748 22.6746C133.267 23.2914 133.535 24.0808 133.498 24.8858V32.7053H136.309V24.7519C136.294 24.3656 136.357 23.9802 136.494 23.6186C136.631 23.2571 136.84 22.9269 137.107 22.6476C137.38 22.3753 137.707 22.1626 138.066 22.023C138.426 21.8832 138.81 21.8196 139.196 21.8359C139.569 21.8177 139.942 21.8827 140.287 22.0262C140.632 22.1697 140.94 22.3882 141.19 22.6658C141.706 23.2878 141.969 24.081 141.926 24.8879V32.7053H144.767V24.484C144.833 23.0996 144.363 21.7429 143.455 20.6961L143.459 20.6934ZM159.724 25.2876C159.744 24.4899 159.601 23.6965 159.301 22.9568C159.002 22.217 158.554 21.5468 157.984 20.9876C157.416 20.4208 156.738 19.9756 155.993 19.6792C155.247 19.3827 154.449 19.2413 153.647 19.2634C152.748 19.2368 151.854 19.4005 151.023 19.7438C150.193 20.0872 149.445 20.6023 148.827 21.2555C147.854 22.2323 147.197 23.4785 146.94 24.833C146.683 26.1875 146.839 27.5879 147.387 28.8529C147.936 30.1179 148.85 31.1893 150.014 31.9285C151.178 32.6676 152.537 33.0405 153.914 32.9988C154.884 33.009 155.848 32.8274 156.747 32.4645C157.647 32.1015 158.467 31.5643 159.158 30.8837L157.819 28.9559C156.786 29.9405 155.418 30.4965 153.991 30.5116C152.961 30.5423 151.953 30.2147 151.139 29.5849C150.355 28.9574 149.842 28.0524 149.706 27.0571H159.506C159.639 26.4773 159.711 25.8851 159.72 25.2903L159.724 25.2876ZM151.116 22.5143C151.792 21.94 152.653 21.6316 153.54 21.6471C154.416 21.6216 155.268 21.9318 155.923 22.5143C156.245 22.8123 156.5 23.1756 156.669 23.5799C156.84 23.9842 156.922 24.4203 156.91 24.8588H149.76C149.932 23.9461 150.409 23.1189 151.113 22.513L151.116 22.5143ZM172.145 20.6826C171.681 20.2028 171.119 19.8279 170.498 19.5829C169.877 19.3379 169.211 19.2285 168.544 19.2621C167.813 19.2322 167.085 19.3574 166.407 19.6297C165.729 19.902 165.116 20.315 164.609 20.8415V19.5563H161.984V32.7053H164.796V24.8588C164.78 24.4548 164.847 24.052 164.992 23.6746C165.138 23.2972 165.357 22.9531 165.639 22.6631C165.919 22.3792 166.256 22.1563 166.627 22.0089C166.998 21.8614 167.395 21.7923 167.795 21.8061C168.18 21.7904 168.565 21.8573 168.923 22.0023C169.281 22.1473 169.604 22.367 169.87 22.6469C170.411 23.2531 170.694 24.047 170.657 24.8588V32.7053H173.469V24.484C173.54 23.0924 173.064 21.7281 172.143 20.6826H172.145ZM182.267 30.4555C181.57 30.5109 180.875 30.3256 180.298 29.9306C180.07 29.7041 179.894 29.4292 179.785 29.1263C179.676 28.8232 179.637 28.4997 179.669 28.1793V21.9941H183.577V19.559H179.668V16.1039H176.827V19.5583H174.685V21.9935H176.827V28.4195C176.827 29.9356 177.251 31.0781 178.099 31.8469C179.103 32.6671 180.379 33.0778 181.673 32.9968C182.458 32.9758 183.238 32.8772 184.003 32.7026V30.3216C183.146 30.4075 182.566 30.4568 182.262 30.4568L182.267 30.4555ZM190.304 32.9988C191.548 33.0445 192.771 32.6773 193.785 31.9544C194.238 31.6077 194.601 31.1567 194.843 30.6397C195.084 30.1228 195.198 29.5551 195.173 28.9849C195.202 28.1478 194.9 27.3331 194.332 26.7176C193.54 25.9733 192.607 25.3959 191.588 25.0198L190.329 24.5111C189.838 24.3379 189.377 24.0887 188.964 23.7724C188.845 23.6731 188.751 23.5488 188.686 23.4085C188.621 23.2682 188.588 23.1153 188.589 22.9607C188.589 22.1206 189.187 21.7012 190.383 21.7026C190.961 21.6967 191.535 21.8129 192.065 22.0435C192.595 22.2742 193.072 22.6141 193.462 23.0412L194.988 21.3008C194.436 20.6357 193.738 20.1064 192.949 19.7536C192.16 19.4008 191.3 19.2341 190.436 19.2661C189.24 19.2155 188.063 19.5786 187.103 20.2943C186.682 20.6203 186.345 21.0419 186.119 21.5241C185.893 22.0064 185.785 22.5355 185.804 23.0676C185.776 23.8813 186.069 24.6733 186.621 25.2721C187.373 25.9836 188.261 26.5358 189.232 26.8955L190.57 27.4576C191.085 27.6425 191.572 27.8983 192.016 28.2179C192.145 28.3229 192.249 28.4563 192.319 28.6077C192.388 28.7591 192.422 28.9245 192.418 29.0911C192.424 29.3075 192.372 29.5216 192.269 29.7116C192.165 29.9017 192.013 30.061 191.828 30.1734C191.369 30.4501 190.838 30.586 190.302 30.5644C189.035 30.5644 187.803 29.9396 186.607 28.69L184.997 30.4548C185.61 31.2755 186.412 31.9356 187.336 32.3786C188.259 32.8217 189.276 33.0345 190.299 32.9988H190.304Z" fill="#0D1014"/>
<defs>
<linearGradient id="paint0_linear_46:6120" x1="8.33534" y1="23.5401" x2="0.367653" y2="32.7123" gradientUnits="userSpaceOnUse">
<stop/>
<stop offset="1" stop-color="#1C60DD" stop-opacity="0"/>
</linearGradient>
<linearGradient id="paint1_linear_46:6120" x1="12.1651" y1="26.8688" x2="4.19758" y2="36.0411" gradientUnits="userSpaceOnUse">
<stop offset="0.19"/>
<stop offset="1" stop-color="#1C60DD" stop-opacity="0"/>
</linearGradient>
</defs>
</svg>
