<?xml version="1.0" encoding="UTF-8"?>
<svg width="150px" height="44px" viewBox="0 0 150 44" version="1.1" xmlns="http://www.w3.org/2000/svg" xmlns:xlink="http://www.w3.org/1999/xlink">
    <title>dStor_Logo_primary</title>
    <defs>
        <linearGradient x1="2.03907918e-06%" y1="49.9941561%" x2="99.9847627%" y2="49.9941561%" id="linearGradient-1">
            <stop stop-color="#7F3EE5" offset="22%"></stop>
            <stop stop-color="#4A0091" offset="100%"></stop>
        </linearGradient>
    </defs>
    <g id="Page-1" stroke="none" stroke-width="1" fill="none" fill-rule="evenodd">
        <g id="FAQ_d" transform="translate(-40.000000, -18.000000)" fill-rule="nonzero">
            <g id="Nav">
                <g id="dStor_Logo_primary" transform="translate(40.000000, 18.000000)">
                    <path d="M68.6112676,3.2028169 C68.6112676,2.15492958 68.9112676,1.39577465 69.5112676,0.925352113 C70.2331926,0.420869092 71.1037995,0.173825087 71.9830986,0.223943662 C72.6187143,0.218792762 73.2518265,0.304156208 73.8633803,0.477464789 C74.4422535,0.646478873 74.8267606,0.769014085 75.0169014,0.84084507 L75.0169014,13.9816901 L83.1591549,13.9816901 C84.3985915,13.9816901 85.2704225,14.2352113 85.7746479,14.7422535 C86.3158374,15.3492961 86.5886181,16.1493511 86.5309859,16.9605634 C86.5373003,17.5624586 86.4415792,18.1610726 86.2478873,18.7309859 C86.1220506,19.1228178 85.9724782,19.5066262 85.8,19.8802817 L75.0169014,19.8802817 L75.0169014,32.4084507 C74.9888006,33.2223766 75.1223618,34.0337967 75.4098592,34.7957746 C75.642976,35.3761321 76.0195084,35.8878673 76.5042254,36.2830986 C76.9809658,36.6632957 77.5368344,36.9318452 78.1309859,37.0690141 C78.7659412,37.2227623 79.4171217,37.2993718 80.0704225,37.2971831 C81.1034965,37.3060708 82.1301864,37.1344791 83.1042254,36.7901408 C83.8171355,36.5602025 84.497399,36.2392431 85.128169,35.8352113 L87.7098592,40.1028169 C87.4098592,40.3309859 86.9873239,40.6098592 86.4422535,40.9478873 C85.8089463,41.328155 85.1412041,41.647879 84.4478873,41.9028169 C83.5884697,42.2227836 82.7055436,42.4756537 81.8070423,42.6591549 C80.7531346,42.8735169 79.6796723,42.9768978 78.6042254,42.9676056 C75.3084507,42.9676056 72.8183099,42.1225352 71.1338028,40.4323944 C69.4492958,38.7422535 68.6042254,36.5056338 68.5985915,33.7225352 L68.6112676,3.2028169 Z" id="Path" fill="#0074FF"></path>
                    <path d="M105.274648,13.1957746 C107.359921,13.180455 109.429081,13.5618802 111.371831,14.3197183 C113.197388,15.0290465 114.866709,16.0883401 116.285915,17.4380282 C117.677998,18.7763318 118.785986,20.3815491 119.543662,22.1577465 C121.115494,25.9330702 121.115494,30.1796059 119.543662,33.9549296 C118.786512,35.7301796 117.678419,37.3341128 116.285915,38.6704225 C114.864815,40.0281719 113.19671,41.1010374 111.371831,41.8309859 C107.452927,43.3633851 103.100594,43.3633851 99.1816901,41.8309859 C97.3567674,41.1068872 95.6883614,40.0381318 94.2676056,38.6830986 C92.8751025,37.3467889 91.7670089,35.7428557 91.0098592,33.9676056 C89.4323809,30.1934124 89.4323809,25.9446157 91.0098592,22.1704225 C91.7675352,20.3942252 92.8755232,18.7890078 94.2676056,17.4507042 C95.6853923,16.0991982 97.3550928,15.0396634 99.1816901,14.3323944 C101.122017,13.5698565 103.189894,13.1841014 105.274648,13.1957746 Z M105.274648,37.2802817 C106.49093,37.291429 107.696401,37.0511978 108.815493,36.5746479 C109.870156,36.1400387 110.81853,35.4828065 111.595775,34.6478873 C112.374204,33.7830512 112.983347,32.7797574 113.391549,31.6901408 C113.832074,30.5328106 114.051366,29.3030525 114.038028,28.0647887 C114.04746,26.8089781 113.828402,25.5619233 113.391549,24.384507 C112.993959,23.2897702 112.383643,22.2845431 111.595775,21.4267606 C110.814271,20.5936222 109.867264,19.9330198 108.815493,19.4873239 C106.53881,18.5519462 103.985134,18.5519462 101.708451,19.4873239 C100.667931,19.9377582 99.7315165,20.5979953 98.9577465,21.4267606 C98.1685442,22.2843098 97.5567995,23.2895241 97.1577465,24.384507 C96.720894,25.5619233 96.5018362,26.8089781 96.5112676,28.0647887 C96.4979296,29.3030525 96.7172221,30.5328106 97.1577465,31.6901408 C97.5672189,32.7800834 98.1778084,33.7833996 98.9577465,34.6478873 C99.7235056,35.4920861 100.66153,36.1621035 101.708451,36.6126761 C102.836498,37.0868523 104.051205,37.3200068 105.274648,37.2971831 L105.274648,37.2802817 Z" id="Shape" fill="#0074FF"></path>
                    <path d="M29.771831,0.477464789 C29.1706318,0.30297922 28.547102,0.217564189 27.9211268,0.223943662 C27.0272534,0.165385237 26.141401,0.424257632 25.4197183,0.954929577 C24.8366197,1.44084507 24.5492958,2.19295775 24.5492958,3.2028169 L24.5492958,15.9169014 C23.6106759,15.2764618 22.6046648,14.7408672 21.5492958,14.3197183 C19.6065453,13.5618802 17.5373856,13.180455 15.4521127,13.1957746 C13.3681776,13.180064 11.3003286,13.5615119 9.35915493,14.3197183 C7.53029666,15.0274827 5.85791876,16.0868946 4.43661972,17.4380282 C3.04453729,18.7763318 1.9365493,20.3815491 1.17887324,22.1577465 C-0.392958587,25.9330702 -0.392958587,30.1796059 1.17887324,33.9549296 C1.936023,35.7301796 3.04411663,37.3341128 4.43661972,38.6704225 C5.85858133,40.0291204 7.52825942,41.1020751 9.35492958,41.8309859 C11.2921648,42.6055907 13.3615874,42.9959394 15.4478873,42.9802817 C17.53694,42.9960677 19.6091526,42.605734 21.5492958,41.8309859 C23.3731612,41.1048263 25.0411945,40.0363097 26.4633803,38.6830986 C27.8558834,37.3467889 28.963977,35.7428557 29.7211268,33.9676056 C30.5150276,32.1121419 30.9163999,30.112473 30.9,28.0943662 L30.9,0.845070423 C30.7098592,0.769014085 30.3338028,0.646478873 29.771831,0.477464789 Z M23.5647887,31.6901408 C23.1550596,32.7790156 22.546081,33.7820391 21.7690141,34.6478873 C20.995584,35.4965545 20.0469232,36.1669607 18.9887324,36.6126761 C17.8695327,37.0888762 16.6641349,37.3290927 15.4478873,37.3183099 C14.2229455,37.3344568 13.00818,37.0940944 11.8816901,36.6126761 C10.8341177,36.1632604 9.89586204,35.4930778 9.13098592,34.6478873 C8.35104787,33.7833996 7.74045832,32.7800834 7.33098592,31.6901408 C6.89046152,30.5328106 6.671169,29.3030525 6.68450704,28.0647887 C6.6750756,26.8089781 6.89413344,25.5619233 7.33098592,24.384507 C7.73003891,23.2895241 8.34178365,22.2843098 9.13098592,21.4267606 C9.9039509,20.5970722 10.8405716,19.9366899 11.8816901,19.4873239 C13.0084551,19.0072347 14.2232343,18.768309 15.4478873,18.7859155 C16.663839,18.773797 17.8692251,19.0125728 18.9887324,19.4873239 C20.0405034,19.9330198 20.9875108,20.5936222 21.7690141,21.4267606 C22.5554603,22.2856103 23.1655958,23.2905392 23.5647887,24.384507 C24.0016412,25.5619233 24.2206991,26.8089781 24.2112676,28.0647887 C24.2246056,29.3030525 24.0053131,30.5328106 23.5647887,31.6901408 Z" id="Shape" fill="url(#linearGradient-1)"></path>
                    <path d="M125.556338,24.0380282 C125.556338,20.5957746 126.614085,17.928169 128.729577,16.0352113 C130.84507,14.1422535 133.774648,13.1957746 137.51831,13.1957746 C139.88169,13.1957746 141.801408,13.5239437 143.277465,14.1802817 C144.753521,14.8366197 145.492958,15.8380282 145.495775,17.184507 C145.490645,17.8397776 145.30655,18.4811891 144.96338,19.0394366 C144.744565,19.4665671 144.446276,19.8480334 144.084507,20.1633803 C143.321721,19.8173164 142.531726,19.5346707 141.722535,19.3183099 C140.679142,19.0426182 139.603042,18.9104157 138.523944,18.9253521 C134.140845,18.9253521 131.949296,21.2478873 131.949296,25.8929577 L131.949296,42.1816901 L125.556338,42.1816901 L125.556338,24.0380282 Z" id="Path" fill="#0074FF"></path>
                    <path d="M61.5338028,26.315493 C60.7934593,24.8362817 59.7150314,23.5523011 58.3859155,22.5676056 C56.9577465,21.4605634 54.7042254,20.2676056 51.6253521,18.9887324 C49.6652127,18.2402413 47.7700704,17.331534 45.9591549,16.271831 C45.0498715,15.7225135 44.2769747,14.974176 43.6985915,14.0830986 C43.2187061,13.2323028 42.9805438,12.2665036 43.0098592,11.2901408 C42.9655723,9.82507843 43.6002358,8.42164546 44.7295775,7.48732394 C45.8704225,6.52394366 47.5492958,6.04225352 49.7661972,6.04225352 C50.7067995,6.04184969 51.6460895,6.112473 52.5760563,6.25352113 C53.7060948,6.50884991 54.8116969,6.86230326 55.8802817,7.30985915 C56.7208486,7.66450117 57.5211572,8.10785798 58.2676056,8.63239437 C58.7934752,8.9920065 59.2706666,9.4180702 59.6873239,9.9 C60.2030215,9.46168921 60.6402645,8.93871225 60.9802817,8.35352113 C61.4467832,7.63714181 61.6935358,6.79994554 61.6901408,5.94507042 C61.7007743,5.34456403 61.5283415,4.75504988 61.1957746,4.25492958 C60.8359517,3.74240589 60.3999351,3.2878658 59.9028169,2.90704225 C59.6366197,2.72112676 59.2225352,2.45915493 58.656338,2.12112676 C57.9467594,1.71877111 57.1977663,1.39029019 56.4211268,1.14084507 C55.3181432,0.778507036 54.187712,0.505790508 53.0408451,0.325352113 C52.0194061,0.212189277 50.992477,0.1557646 49.9647887,0.156333701 C45.7873239,0.156333701 42.4591549,1.15774648 39.9802817,3.16056338 C37.5014085,5.16338028 36.2535211,7.91267606 36.2366197,11.4084507 C36.1696991,13.9933774 36.9981462,16.5220071 38.5816901,18.5661972 C40.1478873,20.5380282 42.8380282,22.3028169 46.6521127,23.8605634 C50.3535211,25.3478873 52.7957746,26.6352113 53.9788732,27.7225352 C55.129442,28.718401 55.7857637,30.1684859 55.7746479,31.6901408 C55.8321214,33.3025658 55.1142747,34.8450721 53.843662,35.8394366 C52.556338,36.8704225 50.5577465,37.384507 47.8478873,37.3816901 C45.81944,37.3639236 43.8000521,37.1086639 41.8309859,36.6211268 C40.686983,36.345176 39.5586021,36.0080722 38.4507042,35.6112676 L36.0887324,41.1042254 C39.0521127,42.4676056 42.8112676,43.1521127 47.3661972,43.1577465 C52.0985915,43.1577465 55.8084507,42.0985915 58.4957746,39.9802817 C61.1830986,37.8619718 62.5295775,34.9478873 62.5352113,31.2380282 C62.5754546,29.5427883 62.2331741,27.8602704 61.5338028,26.315493 Z" id="Path" fill="#0074FF"></path>
                    <polygon id="Path" fill="#0074FF" points="146.877465 15.2408451 146.535211 15.2408451 146.535211 13.4408451 145.91831 13.4408451 145.91831 13.1450704 147.494366 13.1450704 147.494366 13.4408451 146.877465 13.4408451"></polygon>
                    <path d="M148.732394,15.2408451 L148.123944,13.4915493 L148.123944,13.4915493 C148.123944,13.7492958 148.149296,13.9943662 148.149296,14.2225352 L148.149296,15.2408451 L147.840845,15.2408451 L147.840845,13.128169 L148.309859,13.128169 L148.888732,14.7929577 L148.888732,14.7929577 L149.488732,13.128169 L149.974648,13.128169 L149.974648,15.2408451 L149.64507,15.2408451 L149.64507,14.2056338 C149.64507,14.1 149.64507,13.9647887 149.64507,13.7830986 C149.64507,13.6014085 149.64507,13.5126761 149.64507,13.4788732 L149.64507,13.4788732 L149.015493,15.2239437 L148.732394,15.2408451 Z" id="Path" fill="#0074FF"></path>
                </g>
            </g>
        </g>
    </g>
</svg>