<svg xmlns="http://www.w3.org/2000/svg" xmlns:xlink="http://www.w3.org/1999/xlink" id="Layer_1" x="0px" y="0px" viewBox="0 0 110 38" style="enable-background:new 0 0 110 38;" xml:space="preserve">
<style type="text/css">
	.st0{fill-rule:evenodd;clip-rule:evenodd;fill:#0D2145;}
</style>
<g id="Navigation_header_L_sticky">
	<g id="edge_logo_dark">
		<path id="Fill-1" class="st0" d="M45.5,17.2c-0.4-2.3-2.5-4-4.8-4c-2.4,0-4.4,1.7-4.8,4H45.5z M35.8,19.8c0.5,2.5,2.7,4.2,5.2,4.2    c1.9,0,3.7-0.8,5-2.1l2,2.4c-1.8,1.9-4.3,2.9-6.9,3c-4.8,0-8.6-3.9-8.6-8.6c0,0,0-0.1,0-0.1c0-4.5,3.6-8.2,8.1-8.3    c0.1,0,0.1,0,0.2,0c4.8,0,8.4,3.8,8.4,9.5L35.8,19.8z"></path>
		<path id="Fill-3" class="st0" d="M64.8,18.8c0-2.8-2.3-5.2-5.2-5.2s-5.2,2.3-5.2,5.2s2.3,5.2,5.2,5.2l0,0    C62.5,23.9,64.8,21.6,64.8,18.8 M64.8,12.3V3.9h3.3v23h-2.8v-2c-1.5,1.5-3.5,2.3-5.7,2.3c-4.7,0-8.5-3.8-8.5-8.5s3.8-8.5,8.5-8.5    C61.6,10.3,63.4,11,64.8,12.3"></path>
		<path id="Fill-5" class="st0" d="M83.8,18.8c0-2.9-2.3-5.2-5.2-5.2c-2.9,0-5.2,2.3-5.2,5.2s2.3,5.2,5.2,5.2c0,0,0,0,0,0    C81.5,23.9,83.8,21.6,83.8,18.8z M87.1,25.1c0,6.3-3.8,8.7-7.6,8.7c-1.7,0-3.3-0.5-4.7-1.4l1.3-2.7c1,0.6,2.1,0.9,3.2,1    c2.7,0,4.6-1.9,4.6-5.5c-1.4,1.3-3.3,2.1-5.3,2.1c-4.7,0-8.5-3.8-8.5-8.5s3.8-8.5,8.5-8.5c2.1,0,4.1,0.8,5.6,2.3v-2h2.9L87.1,25.1    z"></path>
		<path id="Fill-7" class="st0" d="M102.3,17.2c-0.4-2.3-2.5-4-4.8-4c-2.4,0-4.4,1.7-4.8,4H102.3z M92.6,19.8    c0.5,2.5,2.7,4.2,5.2,4.2c1.9-0.1,3.6-0.8,4.9-2.1l2,2.4c-1.8,1.9-4.3,2.9-6.9,3c-4.8,0-8.6-3.9-8.6-8.6c0,0,0-0.1,0-0.1    c0-4.5,3.6-8.2,8.1-8.3c0.1,0,0.1,0,0.2,0c4.8,0,8.4,3.8,8.4,9.5L92.6,19.8z"></path>
		<polygon id="Fill-10" class="st0" points="28.6,7.3 21.3,27.4 4.4,27.4 8.2,16.9 14.9,16.9 18.4,7.3   "></polygon>
		<polygon id="Fill-12" class="st0" points="16.9,3.9 13.1,14.4 4,14.4 7.8,3.9   "></polygon>
	</g>
</g>
</svg>