<svg xmlns="http://www.w3.org/2000/svg" width="196" height="73" fill="none" viewBox="0 0 196 73">
    <path fill="#EDEDED" d="M182.422 24.234c-3.094.003-6.092 1.079-8.482 3.044-2.39 1.966-4.025 4.7-4.626 7.735s-.131 6.185 1.33 8.913c1.461 2.728 3.822 4.865 6.682 6.047 2.86 1.183 6.041 1.337 9.002.436 2.96-.9 5.517-2.799 7.235-5.373 1.718-2.574 2.49-5.664 2.185-8.744-.305-3.079-1.668-5.958-3.858-8.145-2.512-2.508-5.918-3.915-9.468-3.913zm0 19.13c-1.146 0-2.267-.34-3.221-.978-.953-.637-1.696-1.542-2.135-2.602-.439-1.059-.553-2.224-.33-3.35.224-1.124.776-2.157 1.587-2.968.811-.81 1.844-1.363 2.968-1.586 1.125-.224 2.291-.11 3.35.33 1.059.438 1.965 1.182 2.602 2.135.637.953.977 2.074.977 3.22 0 1.538-.611 3.013-1.698 4.1-1.087 1.088-2.562 1.698-4.1 1.698zM159.046 25.523c-2.619-1.25-5.574-1.616-8.419-1.04-2.846.575-5.427 2.058-7.356 4.228-1.928 2.17-3.1 4.907-3.338 7.8-.237 2.893.471 5.784 2.02 8.24 1.548 2.455 3.853 4.34 6.566 5.373 2.713 1.031 5.688 1.154 8.477.348 2.788-.806 5.24-2.496 6.984-4.816 1.745-2.32 2.689-5.143 2.689-8.046V13.233h-7.623v12.29zm-5.797 17.84c-1.147 0-2.268-.34-3.221-.976-.953-.637-1.696-1.543-2.135-2.602-.439-1.06-.554-2.225-.33-3.35.224-1.124.776-2.157 1.586-2.968.811-.81 1.844-1.363 2.969-1.587 1.125-.223 2.29-.109 3.35.33 1.059.439 1.964 1.182 2.601 2.136.637.953.977 2.074.977 3.22v.072c-.018 1.509-.624 2.95-1.689 4.019-1.064 1.068-2.503 1.68-4.011 1.705l-.097.002zM95.02 24.234c-3.477.11-6.774 1.569-9.193 4.067-2.42 2.498-3.773 5.839-3.773 9.317 0 3.477 1.353 6.819 3.773 9.317 2.42 2.497 5.716 3.956 9.192 4.066 2.007.012 3.99-.434 5.798-1.305v12.42h7.608V37.611c-.002-1.759-.35-3.5-1.025-5.124-.675-1.624-1.663-3.099-2.907-4.341-1.245-1.242-2.723-2.227-4.348-2.898-1.626-.672-3.367-1.016-5.126-1.014zm0 19.13c-1.148 0-2.268-.34-3.222-.978-.953-.637-1.696-1.542-2.135-2.602-.439-1.059-.554-2.224-.33-3.35.224-1.124.776-2.157 1.587-2.968.81-.81 1.843-1.363 2.968-1.586 1.125-.224 2.29-.11 3.35.33 1.059.438 1.965 1.182 2.602 2.135.637.953.977 2.074.977 3.22 0 1.538-.611 3.013-1.698 4.1-1.088 1.088-2.562 1.698-4.1 1.698zM129.902 37.567c.109.82.042 1.652-.197 2.443-.238.79-.643 1.522-1.188 2.143-.544.622-1.214 1.12-1.967 1.461-.752.342-1.569.518-2.395.518-.826 0-1.643-.176-2.395-.518-.752-.341-1.423-.84-1.967-1.46-.544-.622-.949-1.353-1.188-2.144-.239-.791-.306-1.624-.196-2.443V24.234h-7.637V37.61c-.057 1.793.247 3.58.894 5.253.647 1.674 1.624 3.2 2.872 4.489 1.249 1.289 2.743 2.313 4.396 3.013 1.652.7 3.428 1.06 5.222 1.06 1.794 0 3.57-.36 5.222-1.06 1.652-.7 3.147-1.724 4.396-3.013 1.248-1.289 2.225-2.815 2.872-4.489.647-1.673.951-3.46.894-5.253V24.234h-7.638v13.333zM36.948.726c-7.13-.043-14.112 2.032-20.061 5.962-5.95 3.93-10.598 9.538-13.356 16.113C.773 29.376.03 36.62 1.395 43.62c1.366 6.998 4.779 13.433 9.806 18.489 5.027 5.056 11.443 8.505 18.433 9.91 6.99 1.406 14.24.703 20.831-2.017 6.59-2.72 12.225-7.337 16.189-13.264 3.963-5.926 6.078-12.897 6.075-20.027-.004-9.507-3.768-18.627-10.472-25.369C55.554 4.6 46.455.784 36.948.726zm0 69.884c-6.714.043-13.29-1.908-18.893-5.607-5.604-3.698-9.983-8.977-12.582-15.168-2.6-6.19-3.302-13.013-2.02-19.604 1.284-6.59 4.495-12.65 9.227-17.414 4.733-4.763 10.773-8.013 17.355-9.339 6.581-1.326 13.409-.667 19.616 1.892 6.207 2.56 11.514 6.904 15.25 12.483 3.734 5.58 5.728 12.143 5.728 18.857 0 8.953-3.541 17.542-9.852 23.894-6.31 6.35-14.876 9.948-23.829 10.006z"/>
    <path fill="#EDEDED" d="M27.135 44.32c-.737 0-1.457.22-2.07.629-.612.409-1.09.99-1.371 1.671-.282.68-.356 1.43-.212 2.152.144.722.498 1.386 1.02 1.907.52.52 1.184.875 1.906 1.02.723.143 1.472.07 2.152-.213.68-.282 1.263-.759 1.672-1.371.409-.613.627-1.333.627-2.07 0-.489-.096-.973-.283-1.425-.187-.452-.462-.862-.808-1.208-.345-.346-.756-.62-1.208-.808-.452-.187-.936-.283-1.425-.283zM27.135 22.118c-.737 0-1.457.218-2.07.627-.612.41-1.09.991-1.371 1.672-.282.68-.356 1.43-.212 2.152.144.722.498 1.386 1.02 1.907.52.52 1.184.875 1.906 1.02.723.143 1.472.07 2.152-.213.68-.282 1.263-.76 1.672-1.372.409-.612.627-1.332.627-2.069 0-.489-.096-.973-.283-1.425-.187-.452-.462-.863-.808-1.208-.345-.346-.756-.62-1.208-.808-.452-.187-.936-.283-1.425-.283zM46.758 51.77c.988 0 1.935-.393 2.634-1.091.698-.699 1.09-1.646 1.09-2.634s-.392-1.935-1.09-2.633c-.699-.699-1.646-1.091-2.634-1.091-.286.009-.571.033-.855.072-.9.196-1.694.72-2.23 1.468-.535.75-.772 1.671-.665 2.586.106.914.55 1.757 1.242 2.363.694.606 1.587.933 2.508.916v.044z"/>
    <path fill="#EDEDED" d="M36.947 6.219c-6.025-.023-11.92 1.742-16.941 5.072-5.02 3.33-8.94 8.075-11.261 13.635-2.322 5.559-2.94 11.682-1.78 17.594 1.161 5.911 4.05 11.345 8.302 15.613 4.252 4.268 9.675 7.178 15.582 8.362 5.907 1.184 12.032.588 17.6-1.712 5.568-2.3 10.329-6.2 13.678-11.208 3.35-5.008 5.137-10.897 5.137-16.921 0-8.052-3.19-15.775-8.872-21.48C52.709 9.47 44.998 6.25 36.946 6.22zm18.476 19.595c.004 2.22-.842 4.36-2.364 5.977-1.523 1.618-3.606 2.592-5.824 2.723h-.478c-.584 0-1.167-.058-1.739-.175-3.693-.708-6.985-2.779-9.222-5.801v16.29c1.185-1.511 2.664-2.766 4.348-3.687 1.684-.922 3.538-1.492 5.449-1.676.384-.051.771-.08 1.159-.087 1.662-.014 3.293.449 4.7 1.333 1.408.884 2.533 2.152 3.242 3.656.709 1.503.972 3.178.759 4.826-.213 1.648-.894 3.201-1.962 4.475-1.068 1.273-2.478 2.214-4.064 2.711-1.586.498-3.281.53-4.885.094-1.604-.436-3.049-1.322-4.165-2.554-1.116-1.232-1.855-2.758-2.132-4.396L37.84 50c-2.521 3.13-5.4 6.666-10.71 6.666-1.32.026-2.628-.249-3.826-.803-1.197-.555-2.253-1.374-3.087-2.397-.835-1.023-1.425-2.223-1.727-3.507-.302-1.285-.308-2.622-.017-3.91.291-1.287.871-2.491 1.697-3.521.825-1.03 1.874-1.86 3.067-2.424 1.193-.564 2.498-.85 3.818-.836 1.32.015 2.62.33 3.8.92v-6.522c-1.18.583-2.477.89-3.793.9-1.316.008-2.617-.282-3.805-.848-1.188-.567-2.231-1.395-3.053-2.424-.82-1.028-1.398-2.23-1.688-3.513-.29-1.284-.284-2.616.016-3.898.3-1.281.886-2.478 1.715-3.5.83-1.021 1.88-1.842 3.072-2.399 1.192-.557 2.495-.837 3.811-.817h.479c5.144 0 7.999 3.332 10.5 6.391v-6.384h4.942v8.7c.002.843.29 1.66.816 2.317.526.659 1.26 1.119 2.082 1.305.364.002.728.03 1.087.087.939-.073 1.814-.5 2.449-1.194.635-.695.982-1.604.971-2.545v-7.09l4.943 4.188.025 2.87z"/>
</svg>
