<?xml version="1.0" encoding="utf-8"?>
<!-- Generator: Adobe Illustrator 25.2.1, SVG Export Plug-In . SVG Version: 6.00 Build 0)  -->
<svg version="1.1" id="Layer_1" xmlns="http://www.w3.org/2000/svg" xmlns:xlink="http://www.w3.org/1999/xlink" x="0px" y="0px"
	 viewBox="0 0 406 135" style="enable-background:new 0 0 406 135;" xml:space="preserve">
<style type="text/css">
	.st0{fill:#73479C;}
	.st1{fill:#F99D1C;}
	.st2{fill:#3E2469;}
</style>
<path class="st0" d="M180.4,75.8h-8.4v18.9c0,2.1,0.4,3.5,1.1,4.3c0.7,0.8,2.1,1.2,4.1,1.2c0.5,0,1-0.1,1.8-0.2
	c0.7-0.1,1.3-0.2,1.7-0.2c1.3,0,1.9,0.7,2,2.2l0.3,5.7c0,0.7-0.2,1.3-0.5,1.6c-0.3,0.3-0.9,0.6-1.6,0.8c-2.2,0.6-4.7,0.9-7.7,0.9
	c-5.2,0-9-1.1-11.4-3.3c-2.4-2.2-3.5-6-3.5-11.2V75.8h-4c-1.6,0-2.4-0.8-2.4-2.3v-5.6c0-1.6,0.8-2.4,2.4-2.4h4.1V55
	c0-1.4,0.8-2.1,2.4-2.1h8.6c1.6,0,2.4,0.7,2.4,2.1v10.4h8.5c1.6,0,2.3,0.8,2.3,2.4v5.6C182.8,75,182,75.8,180.4,75.8"/>
<path class="st0" d="M211,110h-17.8c-1.7,0-2.5-0.8-2.5-2.5V51.6c0-1.7,0.8-2.5,2.5-2.5H211c10.1,0,17.6,2.4,22.5,7.1
	c5,4.7,7.5,12.4,7.5,23c0,10.9-2.5,18.8-7.4,23.6C228.6,107.6,221.1,110,211,110 M210.3,62.1h-4.7v35h4.8c5.5,0,9.4-1.3,11.9-3.8
	c2.5-2.6,3.7-7.2,3.7-14c0-6.5-1.2-11-3.7-13.4C219.8,63.3,215.8,62.1,210.3,62.1"/>
<path class="st0" d="M252.1,64.1h8.4c1.4,0,2.2,0.7,2.4,2.1l0.7,5.9c1-2.2,2.7-4.2,5-5.9c2.3-1.7,5-2.5,8.1-2.5
	c1.5,0,2.2,0.7,2.2,2.2v9.5c0,1.3-0.7,1.9-2.1,1.9c-0.3,0-0.8,0-1.4-0.1c-0.7-0.1-1.2-0.1-1.8-0.1c-3,0-5.5,1-7.3,3.1
	c-1.8,2.1-2.7,4.7-2.7,7.8v19.7c0,1.6-0.8,2.4-2.3,2.4h-9.3c-1.6,0-2.4-0.8-2.4-2.4V66.4C249.7,64.9,250.5,64.1,252.1,64.1"/>
<path class="st0" d="M300.5,51.6v5.4c0,1.6-0.8,2.4-2.3,2.4h-9.6c-1.6,0-2.3-0.8-2.3-2.4v-5.4c0-1.6,0.8-2.3,2.3-2.3h9.6
	C299.7,49.3,300.5,50.1,300.5,51.6 M300.4,66.4v41.1c0,1.6-0.8,2.4-2.3,2.4h-9.4c-1.6,0-2.3-0.8-2.3-2.4V66.4c0-1.6,0.8-2.3,2.3-2.3
	h9.4C299.6,64.1,300.4,64.9,300.4,66.4"/>
<path class="st0" d="M335.3,110H325c-1.5,0-2.5-0.6-3-1.9l-14.7-41.2c-0.3-0.8-0.3-1.5,0.1-2c0.3-0.5,0.9-0.8,1.7-0.8h9.5
	c1.5,0,2.4,0.7,2.8,2.2l5.4,18.1l3.2,11.9h0.3l3.1-11.9l5.4-18.1c0.5-1.4,1.4-2.2,2.8-2.2h9.6c0.8,0,1.4,0.3,1.7,0.8
	c0.3,0.5,0.3,1.2,0,2l-14.7,41.2C337.8,109.3,336.8,110,335.3,110"/>
<path class="st0" d="M383.1,101.1c3.9,0,7.7-0.9,11.3-2.6c1.5-0.7,2.5-0.2,3.1,1.5l1.6,4.6c0.4,1.3-0.1,2.2-1.5,2.9
	c-4.7,2.4-9.9,3.5-15.7,3.5c-8,0-14.2-2.1-18.6-6.2c-4.4-4.2-6.6-10.1-6.6-17.7c0-7.6,2-13.5,6.1-17.7c4.1-4.2,9.6-6.2,16.6-6.2
	c6.8,0,12.1,2,15.9,6c3.8,4,5.7,9.4,5.7,16.1v4.2c0,1.6-0.8,2.3-2.4,2.3h-28c0.5,2.9,1.9,5.2,4,6.9
	C376.7,100.3,379.6,101.1,383.1,101.1 M379.7,73c-5.8,0-9,3.6-9.6,10.8h18.4v-0.6c0-3.2-0.7-5.7-2.2-7.5
	C384.8,73.9,382.6,73,379.7,73"/>
<g>
	<path class="st1" d="M46.8,6.3c-2.3-1.3-6-1.3-8.2,0l-12.5,7.2c-2.3,1.3-2.3,3.5,0,4.8l12.5,7.2c2.3,1.3,6,1.3,8.2,0l12.5-7.2
		c2.3-1.3,2.3-3.5,0-4.8L46.8,6.3z"/>
	<path class="st2" d="M83.8,90.3v9.5v18.3c0,2.6,1.9,3.7,4.1,2.4l12.5-7.2c2.3-1.3,4.1-4.5,4.1-7.1v-54c0-2.6-1.9-3.7-4.1-2.4
		L87.9,57c-2.3,1.3-4.1,4.5-4.1,7.1V90.3z"/>
	<path class="st2" d="M118.1,58.7c0,2.6,1.9,3.7,4.1,2.4l12.5-7.2c2.3-1.3,4.1-4.5,4.1-7.1V32.4c0-2.6-1.9-3.7-4.1-2.4l-12.5,7.2
		c-2.3,1.3-4.1,2.8-4.1,3.2V46V58.7z"/>
	<path class="st0" d="M49.5,106.2c0,2.6,1.9,5.8,4.1,7.1l12.5,7.2c2.3,1.3,4.1,0.2,4.1-2.4v-14.4c0-2.6-1.9-5.8-4.1-7.1l-12.5-7.2
		c-2.3-1.3-4.1-0.2-4.1,2.4V106.2z"/>
	<path class="st0" d="M71.9,51.3c0.9-1,3.6-2.8,5.8-4.1l26.1-15c2.3-1.3,4.1-2.4,4.1-2.4c0,0,1.9-1.1,4.1-2.4l15.9-9.2
		c2.3-1.3,2.3-3.5,0-4.8l-12.5-7.2c-2.3-1.3-6-1.3-8.2,0L53.6,37.2c-2.3,1.3-4.1,4.5-4.1,7.1v22.2c0,2.6,1.9,5.8,4.1,7.1l12.5,7.2
		c2.3,1.3,4.1,0.2,4.1-2.4V60.2C70.2,57.6,70.9,52.2,71.9,51.3"/>
	<path class="st1" d="M15.2,46.8c0,2.6,1.9,5.8,4.1,7.1l12.5,7.2c2.3,1.3,4.1,0.2,4.1-2.4V44.3c0-2.6-1.9-5.8-4.1-7.1L19.3,30
		c-2.3-1.3-4.1-0.2-4.1,2.4V46.8z"/>
</g>
</svg>
